;TYPE=PLATED
;Layer: PTH_Through
;EasyEDA Pro Client v2.1.59.0ce47373.225d47, 2024-05-28 20:03:58
;Gerber Generator version 0.3
M48
METRIC,LZ,000.00000
;Hole size 1 = 0.70002 METRIC
T01C0.70002
;Hole size 2 = 0.71120 METRIC
T02C0.71120
;Hole size 3 = 0.91440 METRIC
T03C0.91440
%
G05
G90
T01
X-05435600Y08013700
X-05562600Y08013700
X-05689600Y08013700
T02
X-01079500Y08013700
X-01333500Y08013700
X-01587500Y08013700
X-01841500Y08013700
X-01270000Y06032500
X-01524000Y06032500
X-01778000Y06032500
X-02032000Y06032500
T03
X-05054600Y06426200
X-05054600Y06172200
X-05054600Y05918200
X-05054600Y05664200
X-05054600Y05410200
X-05054600Y05156200
X-05054600Y04902200
X-05054600Y04646026
X-05054600Y04394200
X-05054600Y04140200
X-05054600Y03886200
X-05054600Y03632200
X-05054600Y03378200
X-05054600Y02870200
X-05054600Y02616200
X-05054600Y03124200
X-03276600Y02616200
X-03276600Y06159657
X-03276600Y05905657
X-03276600Y05651657
X-03276600Y05393450
X-03276600Y05143657
X-03276600Y04889657
X-03276600Y04635657
X-03276600Y04381657
X-03276600Y04127657
X-03276600Y03873657
X-03276600Y03619657
X-03276600Y03365657
X-03276600Y03111657
X-03276600Y02857657
X-03276600Y06426200
M30