G04 Layer: DrillDrawingLayer*
G04 EasyEDA Pro v2.1.59.0ce47373.225d47, 2024-05-28 20:03:57*
G04 Gerber Generator version 0.3*
G04 Scale: 100 percent, Rotated: No, Reflected: No*
G04 Dimensions in millimeters*
G04 Leading zeros omitted, absolute positions, 3 integers and 5 decimals*
%FSLAX35Y35*%
%MOMM*%
%ADD10C,0.254*%
G75*


G04 Image Start*
G36*
G01X-5455564Y8033614D02*
G01X-5455564Y8030007D01*
G01X-5451907D01*
G01X-5419293D01*
G01Y7997393D01*
G01X-5451907D01*
G01Y8030007D01*
G01X-5455564D01*
G01Y7993786D01*
G01X-5415636D01*
G01Y8033614D01*
G37*
G36*
G01X-5582564Y8033614D02*
G01X-5582564Y8030007D01*
G01X-5578907D01*
G01X-5546293D01*
G01Y7997393D01*
G01X-5578907D01*
G01Y8030007D01*
G01X-5582564D01*
G01Y7993786D01*
G01X-5542636D01*
G01Y8033614D01*
G37*
G36*
G01X-5709564Y8033614D02*
G01X-5709564Y8030007D01*
G01X-5705907D01*
G01X-5673293D01*
G01Y7997393D01*
G01X-5705907D01*
G01Y8030007D01*
G01X-5709564D01*
G01Y7993786D01*
G01X-5669636D01*
G01Y8033614D01*
G37*
G36*
G01X-1079500Y8033664D02*
G01X-1081532Y8033512D01*
G01X-1083513Y8033258D01*
G01X-1085444Y8032750D01*
G01X-1087272Y8032090D01*
G01X-1089000Y8031226D01*
G01X-1090625Y8030210D01*
G01X-1092200Y8029092D01*
G01X-1093622Y8027822D01*
G01X-1094892Y8026400D01*
G01X-1096010Y8024825D01*
G01X-1097026Y8023200D01*
G01X-1097890Y8021472D01*
G01X-1098550Y8019644D01*
G01X-1099058Y8017713D01*
G01X-1099312Y8015732D01*
G01X-1099464Y8013700D01*
G01X-1096112D01*
G01X-1096010Y8015376D01*
G01X-1095756Y8017053D01*
G01X-1095350Y8018628D01*
G01X-1094791Y8020152D01*
G01X-1094130Y8021625D01*
G01X-1093267Y8022996D01*
G01X-1092302Y8024266D01*
G01X-1091235Y8025435D01*
G01X-1090066Y8026502D01*
G01X-1088796Y8027467D01*
G01X-1087425Y8028330D01*
G01X-1085952Y8028991D01*
G01X-1084428Y8029550D01*
G01X-1082853Y8029956D01*
G01X-1081176Y8030210D01*
G01X-1079500Y8030312D01*
G01X-1077824Y8030210D01*
G01X-1076147Y8029956D01*
G01X-1074572Y8029550D01*
G01X-1073048Y8028991D01*
G01X-1071575Y8028330D01*
G01X-1070204Y8027467D01*
G01X-1068934Y8026502D01*
G01X-1067765Y8025435D01*
G01X-1066698Y8024266D01*
G01X-1065733Y8022996D01*
G01X-1064870Y8021625D01*
G01X-1064209Y8020152D01*
G01X-1063650Y8018628D01*
G01X-1063244Y8017053D01*
G01X-1062990Y8015376D01*
G01X-1062888Y8013700D01*
G01X-1062990Y8012024D01*
G01X-1063244Y8010347D01*
G01X-1063650Y8008772D01*
G01X-1064209Y8007248D01*
G01X-1064870Y8005775D01*
G01X-1065733Y8004404D01*
G01X-1066698Y8003134D01*
G01X-1067765Y8001965D01*
G01X-1068934Y8000898D01*
G01X-1070204Y7999933D01*
G01X-1071575Y7999070D01*
G01X-1073048Y7998409D01*
G01X-1074572Y7997850D01*
G01X-1076147Y7997444D01*
G01X-1077824Y7997190D01*
G01X-1079500Y7997088D01*
G01X-1081176Y7997190D01*
G01X-1082853Y7997444D01*
G01X-1084428Y7997850D01*
G01X-1085952Y7998409D01*
G01X-1087425Y7999070D01*
G01X-1088796Y7999933D01*
G01X-1090066Y8000898D01*
G01X-1091235Y8001965D01*
G01X-1092302Y8003134D01*
G01X-1093267Y8004404D01*
G01X-1094130Y8005775D01*
G01X-1094791Y8007248D01*
G01X-1095350Y8008772D01*
G01X-1095756Y8010347D01*
G01X-1096010Y8012024D01*
G01X-1096112Y8013700D01*
G01X-1099464D01*
G01X-1099312Y8011668D01*
G01X-1099058Y8009687D01*
G01X-1098550Y8007756D01*
G01X-1097890Y8005928D01*
G01X-1097026Y8004200D01*
G01X-1096010Y8002575D01*
G01X-1094892Y8001000D01*
G01X-1093622Y7999578D01*
G01X-1092200Y7998308D01*
G01X-1090625Y7997190D01*
G01X-1089000Y7996174D01*
G01X-1087272Y7995310D01*
G01X-1085444Y7994650D01*
G01X-1083513Y7994142D01*
G01X-1081532Y7993888D01*
G01X-1079500Y7993786D01*
G01X-1077468Y7993888D01*
G01X-1075487Y7994142D01*
G01X-1073556Y7994650D01*
G01X-1071728Y7995310D01*
G01X-1070000Y7996174D01*
G01X-1068375Y7997190D01*
G01X-1066800Y7998308D01*
G01X-1065378Y7999578D01*
G01X-1064108Y8001000D01*
G01X-1062990Y8002575D01*
G01X-1061974Y8004200D01*
G01X-1061110Y8005928D01*
G01X-1060450Y8007756D01*
G01X-1059942Y8009687D01*
G01X-1059688Y8011668D01*
G01X-1059536Y8013700D01*
G01X-1059688Y8015732D01*
G01X-1059942Y8017713D01*
G01X-1060450Y8019644D01*
G01X-1061110Y8021472D01*
G01X-1061974Y8023200D01*
G01X-1062990Y8024825D01*
G01X-1064108Y8026400D01*
G01X-1065378Y8027822D01*
G01X-1066800Y8029092D01*
G01X-1068375Y8030210D01*
G01X-1070000Y8031226D01*
G01X-1071728Y8032090D01*
G01X-1073556Y8032750D01*
G01X-1075487Y8033258D01*
G01X-1077468Y8033512D01*
G37*
G36*
G01X-1333500Y8033664D02*
G01X-1335532Y8033512D01*
G01X-1337513Y8033258D01*
G01X-1339444Y8032750D01*
G01X-1341272Y8032090D01*
G01X-1343000Y8031226D01*
G01X-1344625Y8030210D01*
G01X-1346200Y8029092D01*
G01X-1347622Y8027822D01*
G01X-1348892Y8026400D01*
G01X-1350010Y8024825D01*
G01X-1351026Y8023200D01*
G01X-1351890Y8021472D01*
G01X-1352550Y8019644D01*
G01X-1353058Y8017713D01*
G01X-1353312Y8015732D01*
G01X-1353464Y8013700D01*
G01X-1350112D01*
G01X-1350010Y8015376D01*
G01X-1349756Y8017053D01*
G01X-1349350Y8018628D01*
G01X-1348791Y8020152D01*
G01X-1348130Y8021625D01*
G01X-1347267Y8022996D01*
G01X-1346302Y8024266D01*
G01X-1345235Y8025435D01*
G01X-1344066Y8026502D01*
G01X-1342796Y8027467D01*
G01X-1341425Y8028330D01*
G01X-1339952Y8028991D01*
G01X-1338428Y8029550D01*
G01X-1336853Y8029956D01*
G01X-1335176Y8030210D01*
G01X-1333500Y8030312D01*
G01X-1331824Y8030210D01*
G01X-1330147Y8029956D01*
G01X-1328572Y8029550D01*
G01X-1327048Y8028991D01*
G01X-1325575Y8028330D01*
G01X-1324204Y8027467D01*
G01X-1322934Y8026502D01*
G01X-1321765Y8025435D01*
G01X-1320698Y8024266D01*
G01X-1319733Y8022996D01*
G01X-1318870Y8021625D01*
G01X-1318209Y8020152D01*
G01X-1317650Y8018628D01*
G01X-1317244Y8017053D01*
G01X-1316990Y8015376D01*
G01X-1316888Y8013700D01*
G01X-1316990Y8012024D01*
G01X-1317244Y8010347D01*
G01X-1317650Y8008772D01*
G01X-1318209Y8007248D01*
G01X-1318870Y8005775D01*
G01X-1319733Y8004404D01*
G01X-1320698Y8003134D01*
G01X-1321765Y8001965D01*
G01X-1322934Y8000898D01*
G01X-1324204Y7999933D01*
G01X-1325575Y7999070D01*
G01X-1327048Y7998409D01*
G01X-1328572Y7997850D01*
G01X-1330147Y7997444D01*
G01X-1331824Y7997190D01*
G01X-1333500Y7997088D01*
G01X-1335176Y7997190D01*
G01X-1336853Y7997444D01*
G01X-1338428Y7997850D01*
G01X-1339952Y7998409D01*
G01X-1341425Y7999070D01*
G01X-1342796Y7999933D01*
G01X-1344066Y8000898D01*
G01X-1345235Y8001965D01*
G01X-1346302Y8003134D01*
G01X-1347267Y8004404D01*
G01X-1348130Y8005775D01*
G01X-1348791Y8007248D01*
G01X-1349350Y8008772D01*
G01X-1349756Y8010347D01*
G01X-1350010Y8012024D01*
G01X-1350112Y8013700D01*
G01X-1353464D01*
G01X-1353312Y8011668D01*
G01X-1353058Y8009687D01*
G01X-1352550Y8007756D01*
G01X-1351890Y8005928D01*
G01X-1351026Y8004200D01*
G01X-1350010Y8002575D01*
G01X-1348892Y8001000D01*
G01X-1347622Y7999578D01*
G01X-1346200Y7998308D01*
G01X-1344625Y7997190D01*
G01X-1343000Y7996174D01*
G01X-1341272Y7995310D01*
G01X-1339444Y7994650D01*
G01X-1337513Y7994142D01*
G01X-1335532Y7993888D01*
G01X-1333500Y7993786D01*
G01X-1331468Y7993888D01*
G01X-1329487Y7994142D01*
G01X-1327556Y7994650D01*
G01X-1325728Y7995310D01*
G01X-1324000Y7996174D01*
G01X-1322375Y7997190D01*
G01X-1320800Y7998308D01*
G01X-1319378Y7999578D01*
G01X-1318108Y8001000D01*
G01X-1316990Y8002575D01*
G01X-1315974Y8004200D01*
G01X-1315110Y8005928D01*
G01X-1314450Y8007756D01*
G01X-1313942Y8009687D01*
G01X-1313688Y8011668D01*
G01X-1313536Y8013700D01*
G01X-1313688Y8015732D01*
G01X-1313942Y8017713D01*
G01X-1314450Y8019644D01*
G01X-1315110Y8021472D01*
G01X-1315974Y8023200D01*
G01X-1316990Y8024825D01*
G01X-1318108Y8026400D01*
G01X-1319378Y8027822D01*
G01X-1320800Y8029092D01*
G01X-1322375Y8030210D01*
G01X-1324000Y8031226D01*
G01X-1325728Y8032090D01*
G01X-1327556Y8032750D01*
G01X-1329487Y8033258D01*
G01X-1331468Y8033512D01*
G37*
G36*
G01X-1587500Y8033664D02*
G01X-1589532Y8033512D01*
G01X-1591513Y8033258D01*
G01X-1593444Y8032750D01*
G01X-1595272Y8032090D01*
G01X-1597000Y8031226D01*
G01X-1598625Y8030210D01*
G01X-1600200Y8029092D01*
G01X-1601622Y8027822D01*
G01X-1602892Y8026400D01*
G01X-1604010Y8024825D01*
G01X-1605026Y8023200D01*
G01X-1605890Y8021472D01*
G01X-1606550Y8019644D01*
G01X-1607058Y8017713D01*
G01X-1607312Y8015732D01*
G01X-1607464Y8013700D01*
G01X-1604112D01*
G01X-1604010Y8015376D01*
G01X-1603756Y8017053D01*
G01X-1603350Y8018628D01*
G01X-1602791Y8020152D01*
G01X-1602130Y8021625D01*
G01X-1601267Y8022996D01*
G01X-1600302Y8024266D01*
G01X-1599235Y8025435D01*
G01X-1598066Y8026502D01*
G01X-1596796Y8027467D01*
G01X-1595425Y8028330D01*
G01X-1593952Y8028991D01*
G01X-1592428Y8029550D01*
G01X-1590853Y8029956D01*
G01X-1589176Y8030210D01*
G01X-1587500Y8030312D01*
G01X-1585824Y8030210D01*
G01X-1584147Y8029956D01*
G01X-1582572Y8029550D01*
G01X-1581048Y8028991D01*
G01X-1579575Y8028330D01*
G01X-1578204Y8027467D01*
G01X-1576934Y8026502D01*
G01X-1575765Y8025435D01*
G01X-1574698Y8024266D01*
G01X-1573733Y8022996D01*
G01X-1572870Y8021625D01*
G01X-1572209Y8020152D01*
G01X-1571650Y8018628D01*
G01X-1571244Y8017053D01*
G01X-1570990Y8015376D01*
G01X-1570888Y8013700D01*
G01X-1570990Y8012024D01*
G01X-1571244Y8010347D01*
G01X-1571650Y8008772D01*
G01X-1572209Y8007248D01*
G01X-1572870Y8005775D01*
G01X-1573733Y8004404D01*
G01X-1574698Y8003134D01*
G01X-1575765Y8001965D01*
G01X-1576934Y8000898D01*
G01X-1578204Y7999933D01*
G01X-1579575Y7999070D01*
G01X-1581048Y7998409D01*
G01X-1582572Y7997850D01*
G01X-1584147Y7997444D01*
G01X-1585824Y7997190D01*
G01X-1587500Y7997088D01*
G01X-1589176Y7997190D01*
G01X-1590853Y7997444D01*
G01X-1592428Y7997850D01*
G01X-1593952Y7998409D01*
G01X-1595425Y7999070D01*
G01X-1596796Y7999933D01*
G01X-1598066Y8000898D01*
G01X-1599235Y8001965D01*
G01X-1600302Y8003134D01*
G01X-1601267Y8004404D01*
G01X-1602130Y8005775D01*
G01X-1602791Y8007248D01*
G01X-1603350Y8008772D01*
G01X-1603756Y8010347D01*
G01X-1604010Y8012024D01*
G01X-1604112Y8013700D01*
G01X-1607464D01*
G01X-1607312Y8011668D01*
G01X-1607058Y8009687D01*
G01X-1606550Y8007756D01*
G01X-1605890Y8005928D01*
G01X-1605026Y8004200D01*
G01X-1604010Y8002575D01*
G01X-1602892Y8001000D01*
G01X-1601622Y7999578D01*
G01X-1600200Y7998308D01*
G01X-1598625Y7997190D01*
G01X-1597000Y7996174D01*
G01X-1595272Y7995310D01*
G01X-1593444Y7994650D01*
G01X-1591513Y7994142D01*
G01X-1589532Y7993888D01*
G01X-1587500Y7993786D01*
G01X-1585468Y7993888D01*
G01X-1583487Y7994142D01*
G01X-1581556Y7994650D01*
G01X-1579728Y7995310D01*
G01X-1578000Y7996174D01*
G01X-1576375Y7997190D01*
G01X-1574800Y7998308D01*
G01X-1573378Y7999578D01*
G01X-1572108Y8001000D01*
G01X-1570990Y8002575D01*
G01X-1569974Y8004200D01*
G01X-1569110Y8005928D01*
G01X-1568450Y8007756D01*
G01X-1567942Y8009687D01*
G01X-1567688Y8011668D01*
G01X-1567536Y8013700D01*
G01X-1567688Y8015732D01*
G01X-1567942Y8017713D01*
G01X-1568450Y8019644D01*
G01X-1569110Y8021472D01*
G01X-1569974Y8023200D01*
G01X-1570990Y8024825D01*
G01X-1572108Y8026400D01*
G01X-1573378Y8027822D01*
G01X-1574800Y8029092D01*
G01X-1576375Y8030210D01*
G01X-1578000Y8031226D01*
G01X-1579728Y8032090D01*
G01X-1581556Y8032750D01*
G01X-1583487Y8033258D01*
G01X-1585468Y8033512D01*
G37*
G36*
G01X-1841500Y8033664D02*
G01X-1843532Y8033512D01*
G01X-1845513Y8033258D01*
G01X-1847444Y8032750D01*
G01X-1849272Y8032090D01*
G01X-1851000Y8031226D01*
G01X-1852625Y8030210D01*
G01X-1854200Y8029092D01*
G01X-1855622Y8027822D01*
G01X-1856892Y8026400D01*
G01X-1858010Y8024825D01*
G01X-1859026Y8023200D01*
G01X-1859890Y8021472D01*
G01X-1860550Y8019644D01*
G01X-1861058Y8017713D01*
G01X-1861312Y8015732D01*
G01X-1861414Y8013700D01*
G01X-1858112D01*
G01X-1858010Y8015376D01*
G01X-1857756Y8017053D01*
G01X-1857350Y8018628D01*
G01X-1856791Y8020152D01*
G01X-1856130Y8021625D01*
G01X-1855267Y8022996D01*
G01X-1854302Y8024266D01*
G01X-1853235Y8025435D01*
G01X-1852066Y8026502D01*
G01X-1850796Y8027467D01*
G01X-1849425Y8028330D01*
G01X-1847952Y8028991D01*
G01X-1846428Y8029550D01*
G01X-1844853Y8029956D01*
G01X-1843176Y8030210D01*
G01X-1841500Y8030312D01*
G01X-1839824Y8030210D01*
G01X-1838147Y8029956D01*
G01X-1836572Y8029550D01*
G01X-1835048Y8028991D01*
G01X-1833575Y8028330D01*
G01X-1832204Y8027467D01*
G01X-1830934Y8026502D01*
G01X-1829765Y8025435D01*
G01X-1828698Y8024266D01*
G01X-1827733Y8022996D01*
G01X-1826870Y8021625D01*
G01X-1826209Y8020152D01*
G01X-1825650Y8018628D01*
G01X-1825244Y8017053D01*
G01X-1824990Y8015376D01*
G01X-1824888Y8013700D01*
G01X-1824990Y8012024D01*
G01X-1825244Y8010347D01*
G01X-1825650Y8008772D01*
G01X-1826209Y8007248D01*
G01X-1826870Y8005775D01*
G01X-1827733Y8004404D01*
G01X-1828698Y8003134D01*
G01X-1829765Y8001965D01*
G01X-1830934Y8000898D01*
G01X-1832204Y7999933D01*
G01X-1833575Y7999070D01*
G01X-1835048Y7998409D01*
G01X-1836572Y7997850D01*
G01X-1838147Y7997444D01*
G01X-1839824Y7997190D01*
G01X-1841500Y7997088D01*
G01X-1843176Y7997190D01*
G01X-1844853Y7997444D01*
G01X-1846428Y7997850D01*
G01X-1847952Y7998409D01*
G01X-1849425Y7999070D01*
G01X-1850796Y7999933D01*
G01X-1852066Y8000898D01*
G01X-1853235Y8001965D01*
G01X-1854302Y8003134D01*
G01X-1855267Y8004404D01*
G01X-1856130Y8005775D01*
G01X-1856791Y8007248D01*
G01X-1857350Y8008772D01*
G01X-1857756Y8010347D01*
G01X-1858010Y8012024D01*
G01X-1858112Y8013700D01*
G01X-1861414D01*
G01X-1861312Y8011668D01*
G01X-1861058Y8009687D01*
G01X-1860550Y8007756D01*
G01X-1859890Y8005928D01*
G01X-1859026Y8004200D01*
G01X-1858010Y8002575D01*
G01X-1856892Y8001000D01*
G01X-1855622Y7999578D01*
G01X-1854200Y7998308D01*
G01X-1852625Y7997190D01*
G01X-1851000Y7996174D01*
G01X-1849272Y7995310D01*
G01X-1847444Y7994650D01*
G01X-1845513Y7994142D01*
G01X-1843532Y7993888D01*
G01X-1841500Y7993786D01*
G01X-1839468Y7993888D01*
G01X-1837487Y7994142D01*
G01X-1835556Y7994650D01*
G01X-1833728Y7995310D01*
G01X-1832000Y7996174D01*
G01X-1830375Y7997190D01*
G01X-1828800Y7998308D01*
G01X-1827378Y7999578D01*
G01X-1826108Y8001000D01*
G01X-1824990Y8002575D01*
G01X-1823974Y8004200D01*
G01X-1823110Y8005928D01*
G01X-1822450Y8007756D01*
G01X-1821942Y8009687D01*
G01X-1821688Y8011668D01*
G01X-1821536Y8013700D01*
G01X-1821688Y8015732D01*
G01X-1821942Y8017713D01*
G01X-1822450Y8019644D01*
G01X-1823110Y8021472D01*
G01X-1823974Y8023200D01*
G01X-1824990Y8024825D01*
G01X-1826108Y8026400D01*
G01X-1827378Y8027822D01*
G01X-1828800Y8029092D01*
G01X-1830375Y8030210D01*
G01X-1832000Y8031226D01*
G01X-1833728Y8032090D01*
G01X-1835556Y8032750D01*
G01X-1837487Y8033258D01*
G01X-1839468Y8033512D01*
G37*
G36*
G01X-1270000Y6052464D02*
G01X-1272032Y6052312D01*
G01X-1274013Y6052058D01*
G01X-1275944Y6051550D01*
G01X-1277772Y6050890D01*
G01X-1279500Y6050026D01*
G01X-1281125Y6049010D01*
G01X-1282700Y6047892D01*
G01X-1284122Y6046622D01*
G01X-1285392Y6045200D01*
G01X-1286510Y6043625D01*
G01X-1287526Y6042000D01*
G01X-1288390Y6040272D01*
G01X-1289050Y6038444D01*
G01X-1289558Y6036513D01*
G01X-1289812Y6034532D01*
G01X-1289964Y6032500D01*
G01X-1286612D01*
G01X-1286510Y6034176D01*
G01X-1286256Y6035853D01*
G01X-1285850Y6037428D01*
G01X-1285291Y6038952D01*
G01X-1284630Y6040425D01*
G01X-1283767Y6041796D01*
G01X-1282802Y6043066D01*
G01X-1281735Y6044235D01*
G01X-1280566Y6045302D01*
G01X-1279296Y6046267D01*
G01X-1277925Y6047130D01*
G01X-1276452Y6047791D01*
G01X-1274928Y6048350D01*
G01X-1273353Y6048756D01*
G01X-1271676Y6049010D01*
G01X-1270000Y6049112D01*
G01X-1268324Y6049010D01*
G01X-1266647Y6048756D01*
G01X-1265072Y6048350D01*
G01X-1263548Y6047791D01*
G01X-1262075Y6047130D01*
G01X-1260704Y6046267D01*
G01X-1259434Y6045302D01*
G01X-1258265Y6044235D01*
G01X-1257198Y6043066D01*
G01X-1256233Y6041796D01*
G01X-1255370Y6040425D01*
G01X-1254709Y6038952D01*
G01X-1254150Y6037428D01*
G01X-1253744Y6035853D01*
G01X-1253490Y6034176D01*
G01X-1253388Y6032500D01*
G01X-1253490Y6030824D01*
G01X-1253744Y6029147D01*
G01X-1254150Y6027572D01*
G01X-1254709Y6026048D01*
G01X-1255370Y6024575D01*
G01X-1256233Y6023204D01*
G01X-1257198Y6021934D01*
G01X-1258265Y6020765D01*
G01X-1259434Y6019698D01*
G01X-1260704Y6018733D01*
G01X-1262075Y6017870D01*
G01X-1263548Y6017209D01*
G01X-1265072Y6016650D01*
G01X-1266647Y6016244D01*
G01X-1268324Y6015990D01*
G01X-1270000Y6015888D01*
G01X-1271676Y6015990D01*
G01X-1273353Y6016244D01*
G01X-1274928Y6016650D01*
G01X-1276452Y6017209D01*
G01X-1277925Y6017870D01*
G01X-1279296Y6018733D01*
G01X-1280566Y6019698D01*
G01X-1281735Y6020765D01*
G01X-1282802Y6021934D01*
G01X-1283767Y6023204D01*
G01X-1284630Y6024575D01*
G01X-1285291Y6026048D01*
G01X-1285850Y6027572D01*
G01X-1286256Y6029147D01*
G01X-1286510Y6030824D01*
G01X-1286612Y6032500D01*
G01X-1289964D01*
G01X-1289812Y6030468D01*
G01X-1289558Y6028487D01*
G01X-1289050Y6026556D01*
G01X-1288390Y6024728D01*
G01X-1287526Y6023000D01*
G01X-1286510Y6021375D01*
G01X-1285392Y6019800D01*
G01X-1284122Y6018378D01*
G01X-1282700Y6017108D01*
G01X-1281125Y6015990D01*
G01X-1279500Y6014974D01*
G01X-1277772Y6014110D01*
G01X-1275944Y6013450D01*
G01X-1274013Y6012942D01*
G01X-1272032Y6012688D01*
G01X-1270000Y6012536D01*
G01X-1267968Y6012688D01*
G01X-1265987Y6012942D01*
G01X-1264056Y6013450D01*
G01X-1262228Y6014110D01*
G01X-1260500Y6014974D01*
G01X-1258875Y6015990D01*
G01X-1257300Y6017108D01*
G01X-1255878Y6018378D01*
G01X-1254608Y6019800D01*
G01X-1253490Y6021375D01*
G01X-1252474Y6023000D01*
G01X-1251610Y6024728D01*
G01X-1250950Y6026556D01*
G01X-1250442Y6028487D01*
G01X-1250188Y6030468D01*
G01X-1250036Y6032500D01*
G01X-1250188Y6034532D01*
G01X-1250442Y6036513D01*
G01X-1250950Y6038444D01*
G01X-1251610Y6040272D01*
G01X-1252474Y6042000D01*
G01X-1253490Y6043625D01*
G01X-1254608Y6045200D01*
G01X-1255878Y6046622D01*
G01X-1257300Y6047892D01*
G01X-1258875Y6049010D01*
G01X-1260500Y6050026D01*
G01X-1262228Y6050890D01*
G01X-1264056Y6051550D01*
G01X-1265987Y6052058D01*
G01X-1267968Y6052312D01*
G37*
G36*
G01X-1524000Y6052464D02*
G01X-1526032Y6052312D01*
G01X-1528013Y6052058D01*
G01X-1529944Y6051550D01*
G01X-1531772Y6050890D01*
G01X-1533500Y6050026D01*
G01X-1535125Y6049010D01*
G01X-1536700Y6047892D01*
G01X-1538122Y6046622D01*
G01X-1539392Y6045200D01*
G01X-1540510Y6043625D01*
G01X-1541526Y6042000D01*
G01X-1542390Y6040272D01*
G01X-1543050Y6038444D01*
G01X-1543558Y6036513D01*
G01X-1543812Y6034532D01*
G01X-1543964Y6032500D01*
G01X-1540612D01*
G01X-1540510Y6034176D01*
G01X-1540256Y6035853D01*
G01X-1539850Y6037428D01*
G01X-1539291Y6038952D01*
G01X-1538630Y6040425D01*
G01X-1537767Y6041796D01*
G01X-1536802Y6043066D01*
G01X-1535735Y6044235D01*
G01X-1534566Y6045302D01*
G01X-1533296Y6046267D01*
G01X-1531925Y6047130D01*
G01X-1530452Y6047791D01*
G01X-1528928Y6048350D01*
G01X-1527353Y6048756D01*
G01X-1525676Y6049010D01*
G01X-1524000Y6049112D01*
G01X-1522324Y6049010D01*
G01X-1520647Y6048756D01*
G01X-1519072Y6048350D01*
G01X-1517548Y6047791D01*
G01X-1516075Y6047130D01*
G01X-1514704Y6046267D01*
G01X-1513434Y6045302D01*
G01X-1512265Y6044235D01*
G01X-1511198Y6043066D01*
G01X-1510233Y6041796D01*
G01X-1509370Y6040425D01*
G01X-1508709Y6038952D01*
G01X-1508150Y6037428D01*
G01X-1507744Y6035853D01*
G01X-1507490Y6034176D01*
G01X-1507388Y6032500D01*
G01X-1507490Y6030824D01*
G01X-1507744Y6029147D01*
G01X-1508150Y6027572D01*
G01X-1508709Y6026048D01*
G01X-1509370Y6024575D01*
G01X-1510233Y6023204D01*
G01X-1511198Y6021934D01*
G01X-1512265Y6020765D01*
G01X-1513434Y6019698D01*
G01X-1514704Y6018733D01*
G01X-1516075Y6017870D01*
G01X-1517548Y6017209D01*
G01X-1519072Y6016650D01*
G01X-1520647Y6016244D01*
G01X-1522324Y6015990D01*
G01X-1524000Y6015888D01*
G01X-1525676Y6015990D01*
G01X-1527353Y6016244D01*
G01X-1528928Y6016650D01*
G01X-1530452Y6017209D01*
G01X-1531925Y6017870D01*
G01X-1533296Y6018733D01*
G01X-1534566Y6019698D01*
G01X-1535735Y6020765D01*
G01X-1536802Y6021934D01*
G01X-1537767Y6023204D01*
G01X-1538630Y6024575D01*
G01X-1539291Y6026048D01*
G01X-1539850Y6027572D01*
G01X-1540256Y6029147D01*
G01X-1540510Y6030824D01*
G01X-1540612Y6032500D01*
G01X-1543964D01*
G01X-1543812Y6030468D01*
G01X-1543558Y6028487D01*
G01X-1543050Y6026556D01*
G01X-1542390Y6024728D01*
G01X-1541526Y6023000D01*
G01X-1540510Y6021375D01*
G01X-1539392Y6019800D01*
G01X-1538122Y6018378D01*
G01X-1536700Y6017108D01*
G01X-1535125Y6015990D01*
G01X-1533500Y6014974D01*
G01X-1531772Y6014110D01*
G01X-1529944Y6013450D01*
G01X-1528013Y6012942D01*
G01X-1526032Y6012688D01*
G01X-1524000Y6012536D01*
G01X-1521968Y6012688D01*
G01X-1519987Y6012942D01*
G01X-1518056Y6013450D01*
G01X-1516228Y6014110D01*
G01X-1514500Y6014974D01*
G01X-1512875Y6015990D01*
G01X-1511300Y6017108D01*
G01X-1509878Y6018378D01*
G01X-1508608Y6019800D01*
G01X-1507490Y6021375D01*
G01X-1506474Y6023000D01*
G01X-1505610Y6024728D01*
G01X-1504950Y6026556D01*
G01X-1504442Y6028487D01*
G01X-1504188Y6030468D01*
G01X-1504036Y6032500D01*
G01X-1504188Y6034532D01*
G01X-1504442Y6036513D01*
G01X-1504950Y6038444D01*
G01X-1505610Y6040272D01*
G01X-1506474Y6042000D01*
G01X-1507490Y6043625D01*
G01X-1508608Y6045200D01*
G01X-1509878Y6046622D01*
G01X-1511300Y6047892D01*
G01X-1512875Y6049010D01*
G01X-1514500Y6050026D01*
G01X-1516228Y6050890D01*
G01X-1518056Y6051550D01*
G01X-1519987Y6052058D01*
G01X-1521968Y6052312D01*
G37*
G36*
G01X-1778000Y6052464D02*
G01X-1780032Y6052312D01*
G01X-1782013Y6052058D01*
G01X-1783944Y6051550D01*
G01X-1785772Y6050890D01*
G01X-1787500Y6050026D01*
G01X-1789125Y6049010D01*
G01X-1790700Y6047892D01*
G01X-1792122Y6046622D01*
G01X-1793392Y6045200D01*
G01X-1794510Y6043625D01*
G01X-1795526Y6042000D01*
G01X-1796390Y6040272D01*
G01X-1797050Y6038444D01*
G01X-1797558Y6036513D01*
G01X-1797812Y6034532D01*
G01X-1797914Y6032500D01*
G01X-1794612D01*
G01X-1794510Y6034176D01*
G01X-1794256Y6035853D01*
G01X-1793850Y6037428D01*
G01X-1793291Y6038952D01*
G01X-1792630Y6040425D01*
G01X-1791767Y6041796D01*
G01X-1790802Y6043066D01*
G01X-1789735Y6044235D01*
G01X-1788566Y6045302D01*
G01X-1787296Y6046267D01*
G01X-1785925Y6047130D01*
G01X-1784452Y6047791D01*
G01X-1782928Y6048350D01*
G01X-1781353Y6048756D01*
G01X-1779676Y6049010D01*
G01X-1778000Y6049112D01*
G01X-1776324Y6049010D01*
G01X-1774647Y6048756D01*
G01X-1773072Y6048350D01*
G01X-1771548Y6047791D01*
G01X-1770075Y6047130D01*
G01X-1768704Y6046267D01*
G01X-1767434Y6045302D01*
G01X-1766265Y6044235D01*
G01X-1765198Y6043066D01*
G01X-1764233Y6041796D01*
G01X-1763370Y6040425D01*
G01X-1762709Y6038952D01*
G01X-1762150Y6037428D01*
G01X-1761744Y6035853D01*
G01X-1761490Y6034176D01*
G01X-1761388Y6032500D01*
G01X-1761490Y6030824D01*
G01X-1761744Y6029147D01*
G01X-1762150Y6027572D01*
G01X-1762709Y6026048D01*
G01X-1763370Y6024575D01*
G01X-1764233Y6023204D01*
G01X-1765198Y6021934D01*
G01X-1766265Y6020765D01*
G01X-1767434Y6019698D01*
G01X-1768704Y6018733D01*
G01X-1770075Y6017870D01*
G01X-1771548Y6017209D01*
G01X-1773072Y6016650D01*
G01X-1774647Y6016244D01*
G01X-1776324Y6015990D01*
G01X-1778000Y6015888D01*
G01X-1779676Y6015990D01*
G01X-1781353Y6016244D01*
G01X-1782928Y6016650D01*
G01X-1784452Y6017209D01*
G01X-1785925Y6017870D01*
G01X-1787296Y6018733D01*
G01X-1788566Y6019698D01*
G01X-1789735Y6020765D01*
G01X-1790802Y6021934D01*
G01X-1791767Y6023204D01*
G01X-1792630Y6024575D01*
G01X-1793291Y6026048D01*
G01X-1793850Y6027572D01*
G01X-1794256Y6029147D01*
G01X-1794510Y6030824D01*
G01X-1794612Y6032500D01*
G01X-1797914D01*
G01X-1797812Y6030468D01*
G01X-1797558Y6028487D01*
G01X-1797050Y6026556D01*
G01X-1796390Y6024728D01*
G01X-1795526Y6023000D01*
G01X-1794510Y6021375D01*
G01X-1793392Y6019800D01*
G01X-1792122Y6018378D01*
G01X-1790700Y6017108D01*
G01X-1789125Y6015990D01*
G01X-1787500Y6014974D01*
G01X-1785772Y6014110D01*
G01X-1783944Y6013450D01*
G01X-1782013Y6012942D01*
G01X-1780032Y6012688D01*
G01X-1778000Y6012536D01*
G01X-1775968Y6012688D01*
G01X-1773987Y6012942D01*
G01X-1772056Y6013450D01*
G01X-1770228Y6014110D01*
G01X-1768500Y6014974D01*
G01X-1766875Y6015990D01*
G01X-1765300Y6017108D01*
G01X-1763878Y6018378D01*
G01X-1762608Y6019800D01*
G01X-1761490Y6021375D01*
G01X-1760474Y6023000D01*
G01X-1759610Y6024728D01*
G01X-1758950Y6026556D01*
G01X-1758442Y6028487D01*
G01X-1758188Y6030468D01*
G01X-1758036Y6032500D01*
G01X-1758188Y6034532D01*
G01X-1758442Y6036513D01*
G01X-1758950Y6038444D01*
G01X-1759610Y6040272D01*
G01X-1760474Y6042000D01*
G01X-1761490Y6043625D01*
G01X-1762608Y6045200D01*
G01X-1763878Y6046622D01*
G01X-1765300Y6047892D01*
G01X-1766875Y6049010D01*
G01X-1768500Y6050026D01*
G01X-1770228Y6050890D01*
G01X-1772056Y6051550D01*
G01X-1773987Y6052058D01*
G01X-1775968Y6052312D01*
G37*
G36*
G01X-2032000Y6052464D02*
G01X-2034032Y6052312D01*
G01X-2036013Y6052058D01*
G01X-2037944Y6051550D01*
G01X-2039772Y6050890D01*
G01X-2041500Y6050026D01*
G01X-2043125Y6049010D01*
G01X-2044700Y6047892D01*
G01X-2046122Y6046622D01*
G01X-2047392Y6045200D01*
G01X-2048510Y6043625D01*
G01X-2049526Y6042000D01*
G01X-2050390Y6040272D01*
G01X-2051050Y6038444D01*
G01X-2051558Y6036513D01*
G01X-2051812Y6034532D01*
G01X-2051914Y6032500D01*
G01X-2048612D01*
G01X-2048510Y6034176D01*
G01X-2048256Y6035853D01*
G01X-2047850Y6037428D01*
G01X-2047291Y6038952D01*
G01X-2046630Y6040425D01*
G01X-2045767Y6041796D01*
G01X-2044802Y6043066D01*
G01X-2043735Y6044235D01*
G01X-2042566Y6045302D01*
G01X-2041296Y6046267D01*
G01X-2039925Y6047130D01*
G01X-2038452Y6047791D01*
G01X-2036928Y6048350D01*
G01X-2035353Y6048756D01*
G01X-2033676Y6049010D01*
G01X-2032000Y6049112D01*
G01X-2030324Y6049010D01*
G01X-2028647Y6048756D01*
G01X-2027072Y6048350D01*
G01X-2025548Y6047791D01*
G01X-2024075Y6047130D01*
G01X-2022704Y6046267D01*
G01X-2021434Y6045302D01*
G01X-2020265Y6044235D01*
G01X-2019198Y6043066D01*
G01X-2018233Y6041796D01*
G01X-2017370Y6040425D01*
G01X-2016709Y6038952D01*
G01X-2016150Y6037428D01*
G01X-2015744Y6035853D01*
G01X-2015490Y6034176D01*
G01X-2015388Y6032500D01*
G01X-2015490Y6030824D01*
G01X-2015744Y6029147D01*
G01X-2016150Y6027572D01*
G01X-2016709Y6026048D01*
G01X-2017370Y6024575D01*
G01X-2018233Y6023204D01*
G01X-2019198Y6021934D01*
G01X-2020265Y6020765D01*
G01X-2021434Y6019698D01*
G01X-2022704Y6018733D01*
G01X-2024075Y6017870D01*
G01X-2025548Y6017209D01*
G01X-2027072Y6016650D01*
G01X-2028647Y6016244D01*
G01X-2030324Y6015990D01*
G01X-2032000Y6015888D01*
G01X-2033676Y6015990D01*
G01X-2035353Y6016244D01*
G01X-2036928Y6016650D01*
G01X-2038452Y6017209D01*
G01X-2039925Y6017870D01*
G01X-2041296Y6018733D01*
G01X-2042566Y6019698D01*
G01X-2043735Y6020765D01*
G01X-2044802Y6021934D01*
G01X-2045767Y6023204D01*
G01X-2046630Y6024575D01*
G01X-2047291Y6026048D01*
G01X-2047850Y6027572D01*
G01X-2048256Y6029147D01*
G01X-2048510Y6030824D01*
G01X-2048612Y6032500D01*
G01X-2051914D01*
G01X-2051812Y6030468D01*
G01X-2051558Y6028487D01*
G01X-2051050Y6026556D01*
G01X-2050390Y6024728D01*
G01X-2049526Y6023000D01*
G01X-2048510Y6021375D01*
G01X-2047392Y6019800D01*
G01X-2046122Y6018378D01*
G01X-2044700Y6017108D01*
G01X-2043125Y6015990D01*
G01X-2041500Y6014974D01*
G01X-2039772Y6014110D01*
G01X-2037944Y6013450D01*
G01X-2036013Y6012942D01*
G01X-2034032Y6012688D01*
G01X-2032000Y6012536D01*
G01X-2029968Y6012688D01*
G01X-2027987Y6012942D01*
G01X-2026056Y6013450D01*
G01X-2024228Y6014110D01*
G01X-2022500Y6014974D01*
G01X-2020875Y6015990D01*
G01X-2019300Y6017108D01*
G01X-2017878Y6018378D01*
G01X-2016608Y6019800D01*
G01X-2015490Y6021375D01*
G01X-2014474Y6023000D01*
G01X-2013610Y6024728D01*
G01X-2012950Y6026556D01*
G01X-2012442Y6028487D01*
G01X-2012188Y6030468D01*
G01X-2012036Y6032500D01*
G01X-2012188Y6034532D01*
G01X-2012442Y6036513D01*
G01X-2012950Y6038444D01*
G01X-2013610Y6040272D01*
G01X-2014474Y6042000D01*
G01X-2015490Y6043625D01*
G01X-2016608Y6045200D01*
G01X-2017878Y6046622D01*
G01X-2019300Y6047892D01*
G01X-2020875Y6049010D01*
G01X-2022500Y6050026D01*
G01X-2024228Y6050890D01*
G01X-2026056Y6051550D01*
G01X-2027987Y6052058D01*
G01X-2029968Y6052312D01*
G37*
G36*
G01X-5074514Y6443472D02*
G01X-5072583Y6440119D01*
G01X-5068773D01*
G01X-5040427D01*
G01X-5047488Y6427876D01*
G01X-5054600Y6415583D01*
G01X-5061712Y6427876D01*
G01X-5068773Y6440119D01*
G01X-5072583D01*
G01X-5054600Y6408928D01*
G01X-5044643Y6426200D01*
G01X-5034636Y6443472D01*
G37*
G36*
G01X-5074514Y6189472D02*
G01X-5072583Y6186119D01*
G01X-5068773D01*
G01X-5040427D01*
G01X-5047488Y6173876D01*
G01X-5054600Y6161583D01*
G01X-5061712Y6173876D01*
G01X-5068773Y6186119D01*
G01X-5072583D01*
G01X-5054600Y6154928D01*
G01X-5044643Y6172200D01*
G01X-5034636Y6189472D01*
G37*
G36*
G01X-5074514Y5935472D02*
G01X-5072583Y5932119D01*
G01X-5068773D01*
G01X-5040427D01*
G01X-5047488Y5919876D01*
G01X-5054600Y5907583D01*
G01X-5061712Y5919876D01*
G01X-5068773Y5932119D01*
G01X-5072583D01*
G01X-5054600Y5900928D01*
G01X-5044643Y5918200D01*
G01X-5034636Y5935472D01*
G37*
G36*
G01X-5074514Y5681472D02*
G01X-5072583Y5678119D01*
G01X-5068773D01*
G01X-5040427D01*
G01X-5047488Y5665876D01*
G01X-5054600Y5653583D01*
G01X-5061712Y5665876D01*
G01X-5068773Y5678119D01*
G01X-5072583D01*
G01X-5054600Y5646928D01*
G01X-5044643Y5664200D01*
G01X-5034636Y5681472D01*
G37*
G36*
G01X-5074514Y5427472D02*
G01X-5072583Y5424119D01*
G01X-5068773D01*
G01X-5040427D01*
G01X-5047488Y5411876D01*
G01X-5054600Y5399583D01*
G01X-5061712Y5411876D01*
G01X-5068773Y5424119D01*
G01X-5072583D01*
G01X-5054600Y5392928D01*
G01X-5044643Y5410200D01*
G01X-5034636Y5427472D01*
G37*
G36*
G01X-5074514Y5173472D02*
G01X-5072583Y5170119D01*
G01X-5068773D01*
G01X-5040427D01*
G01X-5047488Y5157876D01*
G01X-5054600Y5145583D01*
G01X-5061712Y5157876D01*
G01X-5068773Y5170119D01*
G01X-5072583D01*
G01X-5054600Y5138928D01*
G01X-5044643Y5156200D01*
G01X-5034636Y5173472D01*
G37*
G36*
G01X-5074514Y4919472D02*
G01X-5072583Y4916119D01*
G01X-5068773D01*
G01X-5040427D01*
G01X-5047488Y4903876D01*
G01X-5054600Y4891583D01*
G01X-5061712Y4903876D01*
G01X-5068773Y4916119D01*
G01X-5072583D01*
G01X-5054600Y4884928D01*
G01X-5044643Y4902200D01*
G01X-5034636Y4919472D01*
G37*
G36*
G01X-5074514Y4663288D02*
G01X-5072634Y4659986D01*
G01X-5068773D01*
G01X-5040427D01*
G01X-5047488Y4647692D01*
G01X-5054600Y4635398D01*
G01X-5061712Y4647692D01*
G01X-5068773Y4659986D01*
G01X-5072634D01*
G01X-5054600Y4628744D01*
G01X-5044643Y4646016D01*
G01X-5034636Y4663288D01*
G37*
G36*
G01X-5074514Y4411472D02*
G01X-5072583Y4408119D01*
G01X-5068773D01*
G01X-5040427D01*
G01X-5047488Y4395876D01*
G01X-5054600Y4383583D01*
G01X-5061712Y4395876D01*
G01X-5068773Y4408119D01*
G01X-5072583D01*
G01X-5054600Y4376928D01*
G01X-5044643Y4394200D01*
G01X-5034636Y4411472D01*
G37*
G36*
G01X-5074514Y4157472D02*
G01X-5072583Y4154119D01*
G01X-5068773D01*
G01X-5040427D01*
G01X-5047488Y4141876D01*
G01X-5054600Y4129583D01*
G01X-5061712Y4141876D01*
G01X-5068773Y4154119D01*
G01X-5072583D01*
G01X-5054600Y4122928D01*
G01X-5044643Y4140200D01*
G01X-5034636Y4157472D01*
G37*
G36*
G01X-5074514Y3903472D02*
G01X-5072583Y3900119D01*
G01X-5068773D01*
G01X-5040427D01*
G01X-5047488Y3887876D01*
G01X-5054600Y3875583D01*
G01X-5061712Y3887876D01*
G01X-5068773Y3900119D01*
G01X-5072583D01*
G01X-5054600Y3868928D01*
G01X-5044643Y3886200D01*
G01X-5034636Y3903472D01*
G37*
G36*
G01X-5074514Y3649472D02*
G01X-5072583Y3646119D01*
G01X-5068773D01*
G01X-5040427D01*
G01X-5047488Y3633876D01*
G01X-5054600Y3621583D01*
G01X-5061712Y3633876D01*
G01X-5068773Y3646119D01*
G01X-5072583D01*
G01X-5054600Y3614928D01*
G01X-5044643Y3632200D01*
G01X-5034636Y3649472D01*
G37*
G36*
G01X-5074514Y3395472D02*
G01X-5072583Y3392119D01*
G01X-5068773D01*
G01X-5040427D01*
G01X-5047488Y3379876D01*
G01X-5054600Y3367583D01*
G01X-5061712Y3379876D01*
G01X-5068773Y3392119D01*
G01X-5072583D01*
G01X-5054600Y3360928D01*
G01X-5044643Y3378200D01*
G01X-5034636Y3395472D01*
G37*
G36*
G01X-5074514Y2887472D02*
G01X-5072583Y2884119D01*
G01X-5068773D01*
G01X-5040427D01*
G01X-5047488Y2871876D01*
G01X-5054600Y2859583D01*
G01X-5061712Y2871876D01*
G01X-5068773Y2884119D01*
G01X-5072583D01*
G01X-5054600Y2852928D01*
G01X-5044643Y2870200D01*
G01X-5034636Y2887472D01*
G37*
G36*
G01X-5074514Y2633472D02*
G01X-5072583Y2630119D01*
G01X-5068773D01*
G01X-5040427D01*
G01X-5047488Y2617876D01*
G01X-5054600Y2605583D01*
G01X-5061712Y2617876D01*
G01X-5068773Y2630119D01*
G01X-5072583D01*
G01X-5054600Y2598928D01*
G01X-5044643Y2616200D01*
G01X-5034636Y2633472D01*
G37*
G36*
G01X-5074514Y3141472D02*
G01X-5072583Y3138119D01*
G01X-5068773D01*
G01X-5040427D01*
G01X-5047488Y3125876D01*
G01X-5054600Y3113583D01*
G01X-5061712Y3125876D01*
G01X-5068773Y3138119D01*
G01X-5072583D01*
G01X-5054600Y3106928D01*
G01X-5044643Y3124200D01*
G01X-5034636Y3141472D01*
G37*
G36*
G01X-3296514Y2633472D02*
G01X-3294583Y2630119D01*
G01X-3290773D01*
G01X-3262427D01*
G01X-3269488Y2617876D01*
G01X-3276600Y2605583D01*
G01X-3283712Y2617876D01*
G01X-3290773Y2630119D01*
G01X-3294583D01*
G01X-3276600Y2598928D01*
G01X-3266643Y2616200D01*
G01X-3256636Y2633472D01*
G37*
G36*
G01X-3296514Y6176924D02*
G01X-3294634Y6173622D01*
G01X-3290773D01*
G01X-3262427D01*
G01X-3269488Y6161329D01*
G01X-3276600Y6149035D01*
G01X-3283712Y6161329D01*
G01X-3290773Y6173622D01*
G01X-3294634D01*
G01X-3276600Y6142380D01*
G01X-3266643Y6159652D01*
G01X-3256636Y6176924D01*
G37*
G36*
G01X-3296514Y5922924D02*
G01X-3294634Y5919622D01*
G01X-3290773D01*
G01X-3262427D01*
G01X-3269488Y5907329D01*
G01X-3276600Y5895035D01*
G01X-3283712Y5907329D01*
G01X-3290773Y5919622D01*
G01X-3294634D01*
G01X-3276600Y5888380D01*
G01X-3266643Y5905652D01*
G01X-3256636Y5922924D01*
G37*
G36*
G01X-3296514Y5668924D02*
G01X-3294634Y5665622D01*
G01X-3290773D01*
G01X-3262427D01*
G01X-3269488Y5653329D01*
G01X-3276600Y5641035D01*
G01X-3283712Y5653329D01*
G01X-3290773Y5665622D01*
G01X-3294634D01*
G01X-3276600Y5634380D01*
G01X-3266643Y5651652D01*
G01X-3256636Y5668924D01*
G37*
G36*
G01X-3296514Y5410708D02*
G01X-3294634Y5407406D01*
G01X-3290773D01*
G01X-3262427D01*
G01X-3269488Y5395112D01*
G01X-3276600Y5382819D01*
G01X-3283712Y5395112D01*
G01X-3290773Y5407406D01*
G01X-3294634D01*
G01X-3276600Y5376164D01*
G01X-3266643Y5393436D01*
G01X-3256636Y5410708D01*
G37*
G36*
G01X-3296514Y5160924D02*
G01X-3294634Y5157622D01*
G01X-3290773D01*
G01X-3262427D01*
G01X-3269488Y5145329D01*
G01X-3276600Y5133035D01*
G01X-3283712Y5145329D01*
G01X-3290773Y5157622D01*
G01X-3294634D01*
G01X-3276600Y5126380D01*
G01X-3266643Y5143652D01*
G01X-3256636Y5160924D01*
G37*
G36*
G01X-3296514Y4906924D02*
G01X-3294634Y4903622D01*
G01X-3290773D01*
G01X-3262427D01*
G01X-3269488Y4891329D01*
G01X-3276600Y4879035D01*
G01X-3283712Y4891329D01*
G01X-3290773Y4903622D01*
G01X-3294634D01*
G01X-3276600Y4872380D01*
G01X-3266643Y4889652D01*
G01X-3256636Y4906924D01*
G37*
G36*
G01X-3296514Y4652924D02*
G01X-3294634Y4649622D01*
G01X-3290773D01*
G01X-3262427D01*
G01X-3269488Y4637329D01*
G01X-3276600Y4625035D01*
G01X-3283712Y4637329D01*
G01X-3290773Y4649622D01*
G01X-3294634D01*
G01X-3276600Y4618380D01*
G01X-3266643Y4635652D01*
G01X-3256636Y4652924D01*
G37*
G36*
G01X-3296514Y4398924D02*
G01X-3294634Y4395622D01*
G01X-3290773D01*
G01X-3262427D01*
G01X-3269488Y4383329D01*
G01X-3276600Y4371035D01*
G01X-3283712Y4383329D01*
G01X-3290773Y4395622D01*
G01X-3294634D01*
G01X-3276600Y4364380D01*
G01X-3266643Y4381652D01*
G01X-3256636Y4398924D01*
G37*
G36*
G01X-3296514Y4144924D02*
G01X-3294634Y4141622D01*
G01X-3290773D01*
G01X-3262427D01*
G01X-3269488Y4129329D01*
G01X-3276600Y4117035D01*
G01X-3283712Y4129329D01*
G01X-3290773Y4141622D01*
G01X-3294634D01*
G01X-3276600Y4110380D01*
G01X-3266643Y4127652D01*
G01X-3256636Y4144924D01*
G37*
G36*
G01X-3296514Y3890924D02*
G01X-3294634Y3887622D01*
G01X-3290773D01*
G01X-3262427D01*
G01X-3269488Y3875329D01*
G01X-3276600Y3863035D01*
G01X-3283712Y3875329D01*
G01X-3290773Y3887622D01*
G01X-3294634D01*
G01X-3276600Y3856380D01*
G01X-3266643Y3873652D01*
G01X-3256636Y3890924D01*
G37*
G36*
G01X-3296514Y3636924D02*
G01X-3294634Y3633622D01*
G01X-3290773D01*
G01X-3262427D01*
G01X-3269488Y3621329D01*
G01X-3276600Y3609035D01*
G01X-3283712Y3621329D01*
G01X-3290773Y3633622D01*
G01X-3294634D01*
G01X-3276600Y3602380D01*
G01X-3266643Y3619652D01*
G01X-3256636Y3636924D01*
G37*
G36*
G01X-3296514Y3382924D02*
G01X-3294634Y3379622D01*
G01X-3290773D01*
G01X-3262427D01*
G01X-3269488Y3367329D01*
G01X-3276600Y3355035D01*
G01X-3283712Y3367329D01*
G01X-3290773Y3379622D01*
G01X-3294634D01*
G01X-3276600Y3348380D01*
G01X-3266643Y3365652D01*
G01X-3256636Y3382924D01*
G37*
G36*
G01X-3296514Y3128924D02*
G01X-3294634Y3125622D01*
G01X-3290773D01*
G01X-3262427D01*
G01X-3269488Y3113329D01*
G01X-3276600Y3101035D01*
G01X-3283712Y3113329D01*
G01X-3290773Y3125622D01*
G01X-3294634D01*
G01X-3276600Y3094380D01*
G01X-3266643Y3111652D01*
G01X-3256636Y3128924D01*
G37*
G36*
G01X-3296514Y2874924D02*
G01X-3294634Y2871622D01*
G01X-3290773D01*
G01X-3262427D01*
G01X-3269488Y2859329D01*
G01X-3276600Y2847035D01*
G01X-3283712Y2859329D01*
G01X-3290773Y2871622D01*
G01X-3294634D01*
G01X-3276600Y2840380D01*
G01X-3266643Y2857652D01*
G01X-3256636Y2874924D01*
G37*
G36*
G01X-3296514Y6443472D02*
G01X-3294583Y6440119D01*
G01X-3290773D01*
G01X-3262427D01*
G01X-3269488Y6427876D01*
G01X-3276600Y6415583D01*
G01X-3283712Y6427876D01*
G01X-3290773Y6440119D01*
G01X-3294583D01*
G01X-3276600Y6408928D01*
G01X-3266643Y6426200D01*
G01X-3256636Y6443472D01*
G37*
G04 Image End*
G54D10*

M02*
