G04 Layer: TopSolderMaskLayer*
G04 EasyEDA Pro v2.1.59.0ce47373.225d47, 2024-05-28 20:03:57*
G04 Gerber Generator version 0.3*
G04 Scale: 100 percent, Rotated: No, Reflected: No*
G04 Dimensions in millimeters*
G04 Leading zeros omitted, absolute positions, 3 integers and 5 decimals*
%FSLAX35Y35*%
%MOMM*%
%AMRoundRect*1,1,$1,$2,$3*1,1,$1,$4,$5*1,1,$1,0-$2,0-$3*1,1,$1,0-$4,0-$5*20,1,$1,$2,$3,$4,$5,0*20,1,$1,$4,$5,0-$2,0-$3,0*20,1,$1,0-$2,0-$3,0-$4,0-$5,0*20,1,$1,0-$4,0-$5,$2,$3,0*4,1,4,$2,$3,$4,$5,0-$2,0-$3,0-$4,0-$5,$2,$3,0*%
%ADD10O,1.0016X1.7016*%
%ADD11RoundRect,0.09224X-0.45468X0.80468X0.45468X0.80468*%
%ADD12RoundRect,0.09138X-0.40835X0.43712X0.40835X0.43712*%
%ADD13RoundRect,0.09562X-0.76499X0.76499X0.76499X0.76499*%
%ADD14C,1.6256*%
%ADD15C,1.397*%
%ADD16RoundRect,0.09471X0.65114X-0.65114X-0.65114X-0.65114*%
%ADD17RoundRect,0.09131X0.40519X0.40519X0.40519X-0.40519*%
G75*


G04 Pad Start*
G54D10*
G01X-5435600Y8013700D03*
G01X-5562600Y8013700D03*
G54D11*
G01X-5689600Y8013700D03*
G54D12*
G01X-4598264Y7137400D03*
G01X-4748936Y7137400D03*
G54D13*
G01X-5054600Y6426200D03*
G54D14*
G01X-5054600Y6172200D03*
G01X-5054600Y5918200D03*
G01X-5054600Y5664200D03*
G01X-5054600Y5410200D03*
G01X-5054600Y5156200D03*
G01X-5054600Y4902200D03*
G01X-5054600Y4646026D03*
G01X-5054600Y4394200D03*
G01X-5054600Y4140200D03*
G01X-5054600Y3886200D03*
G01X-5054600Y3632200D03*
G01X-5054600Y3378200D03*
G01X-5054600Y2870200D03*
G01X-5054600Y2616200D03*
G01X-5054600Y3124200D03*
G01X-3276600Y2616200D03*
G01X-3276600Y6159657D03*
G01X-3276600Y5905657D03*
G01X-3276600Y5651657D03*
G01X-3276600Y5393450D03*
G01X-3276600Y5143657D03*
G01X-3276600Y4889657D03*
G01X-3276600Y4635657D03*
G01X-3276600Y4381657D03*
G01X-3276600Y4127657D03*
G01X-3276600Y3873657D03*
G01X-3276600Y3619657D03*
G01X-3276600Y3365657D03*
G01X-3276600Y3111657D03*
G01X-3276600Y2857657D03*
G01X-3276600Y6426200D03*
G54D15*
G01X-1079500Y8013700D03*
G01X-1333500Y8013700D03*
G01X-1587500Y8013700D03*
G54D16*
G01X-1841500Y8013700D03*
G54D15*
G01X-1270000Y6032500D03*
G01X-1524000Y6032500D03*
G01X-1778000Y6032500D03*
G54D16*
G01X-2032000Y6032500D03*
G54D17*
G01X-2086610Y4649216D03*
G01X-2246630Y4648708D03*
G54D12*
G01X-1207364Y4648200D03*
G01X-1358036Y4648200D03*
G04 Pad End*

M02*
