G04 Layer: TopPasteMaskLayer*
G04 EasyEDA Pro v2.1.59.0ce47373.225d47, 2024-05-28 20:03:57*
G04 Gerber Generator version 0.3*
G04 Scale: 100 percent, Rotated: No, Reflected: No*
G04 Dimensions in millimeters*
G04 Leading zeros omitted, absolute positions, 3 integers and 5 decimals*
%FSLAX35Y35*%
%MOMM*%
%ADD10R,0.8001X0.8001*%
G75*


G04 PolygonModel Start*
G36*
G01X-4554098Y7182399D02*
G01X-4634098Y7182399D01*
G01X-4639099Y7177397D01*
G01Y7154601D01*
G01X-4602099D01*
G01Y7121601D01*
G01X-4639099D01*
G01Y7097398D01*
G01X-4634098Y7092399D01*
G01X-4554098D01*
G01X-4549099Y7097398D01*
G01Y7177397D01*
G01X-4554098Y7182399D01*
G37*
G36*
G01X-4709099Y7177397D02*
G01X-4709099Y7154601D01*
G01X-4747097D01*
G01Y7121601D01*
G01X-4709099D01*
G01Y7097398D01*
G01X-4714098Y7092399D01*
G01X-4793097D01*
G01X-4798098Y7097398D01*
G01Y7177397D01*
G01X-4793097Y7182399D01*
G01X-4714098D01*
G01X-4709099Y7177397D01*
G37*
G36*
G01X-1163198Y4693199D02*
G01X-1243198Y4693199D01*
G01X-1248199Y4688197D01*
G01Y4665401D01*
G01X-1211199D01*
G01Y4632401D01*
G01X-1248199D01*
G01Y4608198D01*
G01X-1243198Y4603199D01*
G01X-1163198D01*
G01X-1158199Y4608198D01*
G01Y4688197D01*
G01X-1163198Y4693199D01*
G37*
G36*
G01X-1318199Y4688197D02*
G01X-1318199Y4665401D01*
G01X-1356197D01*
G01Y4632401D01*
G01X-1318199D01*
G01Y4608198D01*
G01X-1323198Y4603199D01*
G01X-1402197D01*
G01X-1407198Y4608198D01*
G01Y4688197D01*
G01X-1402197Y4693199D01*
G01X-1323198D01*
G01X-1318199Y4688197D01*
G37*
G04 PolygonModel End*

G04 Pad Start*
G54D10*
G01X-2086610Y4649216D03*
G01X-2246630Y4648708D03*
G04 Pad End*

M02*
