G04 Layer: TopLayer*
G04 EasyEDA Pro v2.1.59.0ce47373.225d47, 2024-05-28 20:03:57*
G04 Gerber Generator version 0.3*
G04 Scale: 100 percent, Rotated: No, Reflected: No*
G04 Dimensions in millimeters*
G04 Leading zeros omitted, absolute positions, 3 integers and 5 decimals*
%FSLAX35Y35*%
%MOMM*%
%ADD8191C,0.2032*%
%ADD10C,0.254*%
%ADD11O,0.9X1.6*%
%ADD12R,0.9X1.6*%
%ADD13R,0.80648X0.86401*%
%ADD14R,1.524X1.524*%
%ADD15C,1.524*%
%ADD16C,1.2954*%
%ADD17R,1.2954X1.2954*%
%ADD18R,0.8041X0.8001*%
%ADD19R,0.8001X0.8001*%
G75*


G04 Copper Start*
G36*
G01X-35814Y9964186D02*
G01X-35814Y35814D01*
G01X-6964186D01*
G01Y9964186D01*
G01X-35814D01*
G37*
%LPC*%
G36*
G01X-3388614Y4127657D02*
G03X-3276600Y4015643I112014J0D01*
G03X-3182894Y4066286I0J112014D01*
G01X-558800D01*
G03X-524495Y4080495I0J48514D01*
G01X-410195Y4194795D01*
G03X-395986Y4229100I-34305J34305D01*
G01Y6934200D01*
G03X-410195Y6968505I-48514J0D01*
G01X-765795Y7324105D01*
G03X-800100Y7338314I-34305J-34305D01*
G01X-2010266D01*
G01X-2637138Y7965186D01*
G01X-1942084D01*
G01Y7948930D01*
G03X-1906270Y7913116I35814J0D01*
G01X-1776730D01*
G03X-1740916Y7948930I0J35814D01*
G01Y8078470D01*
G03X-1776730Y8114284I-35814J0D01*
G01X-1906270D01*
G03X-1942084Y8078470I0J-35814D01*
G01Y8062214D01*
G01X-2754261D01*
G01X-5355924D01*
G03X-5435600Y8129514I-79676J-13514D01*
G03X-5499100Y8098686I0J-80814D01*
G03X-5562600Y8129514I-63500J-49986D01*
G03X-5613504Y8111467I0J-80814D01*
G03X-5644600Y8129514I-31096J-17767D01*
G01X-5734600D01*
G03X-5770414Y8093700I0J-35814D01*
G01Y7933700D01*
G03X-5734600Y7897886I35814J0D01*
G01X-5644600D01*
G03X-5613504Y7915933I0J35814D01*
G03X-5611114Y7914068I50904J62767D01*
G01Y7168376D01*
G01Y6350000D01*
G03X-5596905Y6315695I48514J0D01*
G01X-5419105Y6137895D01*
G03X-5384800Y6123686I34305J34305D01*
G01X-5155563D01*
G03X-5054600Y6060186I100963J48514D01*
G03X-4942586Y6172200I0J112014D01*
G03X-5054600Y6284214I-112014J0D01*
G03X-5155563Y6220714I0J-112014D01*
G01X-5364705D01*
G01X-5514086Y6370095D01*
G01Y7119862D01*
G01X-4825074D01*
G01Y7094200D01*
G03X-4789260Y7058386I35814J0D01*
G01X-4708613D01*
G03X-4673600Y7086666I0J35814D01*
G03X-4638587Y7058386I35013J7534D01*
G01X-4557940D01*
G03X-4522522Y7088886I0J35814D01*
G01X-3195095D01*
G01X-2918714Y6812505D01*
G01Y6293895D01*
G01X-3017295Y6195314D01*
G01X-3170413D01*
G03X-3276600Y6271671I-106187J-35657D01*
G03X-3388614Y6159657I0J-112014D01*
G03X-3276600Y6047643I112014J0D01*
G03X-3182894Y6098286I0J112014D01*
G01X-2997200D01*
G03X-2962895Y6112495I0J48514D01*
G01X-2835895Y6239495D01*
G03X-2821686Y6273800I-34305J34305D01*
G01Y6832600D01*
G03X-2835895Y6866905I-48514J0D01*
G01X-3140695Y7171705D01*
G03X-3175000Y7185914I-34305J-34305D01*
G01X-4522522D01*
G03X-4557940Y7216414I-35418J-5314D01*
G01X-4638587D01*
G03X-4673600Y7188134I0J-35814D01*
G03X-4708613Y7216414I-35013J-7534D01*
G01X-4773138D01*
G03X-4779912Y7216890I-6774J-48039D01*
G01X-5514086D01*
G01Y7914068D01*
G03X-5499100Y7928714I-48514J64632D01*
G03X-5435600Y7897886I63500J49986D01*
G03X-5355924Y7965186I0J80814D01*
G01X-2774356D01*
G01X-2080514Y7271344D01*
G01Y6133084D01*
G01X-2096770D01*
G03X-2132584Y6097270I0J-35814D01*
G01Y5967730D01*
G03X-2096770Y5931916I35814J0D01*
G01X-1967230D01*
G03X-1931416Y5967730I0J35814D01*
G01Y6097270D01*
G03X-1967230Y6133084I-35814J0D01*
G01X-1983486D01*
G01Y7241286D01*
G01X-820195D01*
G01X-493014Y6914105D01*
G01Y4249195D01*
G01X-578895Y4163314D01*
G01X-3170413D01*
G03X-3276600Y4239671I-106187J-35657D01*
G03X-3388614Y4127657I0J-112014D01*
G37*
G36*
G01X-5160734Y5882386D02*
G03X-5054600Y5806186I106134J35814D01*
G03X-4942586Y5918200I0J112014D01*
G03X-5054600Y6030214I-112014J0D01*
G03X-5148408Y5979414I0J-112014D01*
G01X-5885405D01*
G01X-6212586Y6306595D01*
G01Y8285705D01*
G01X-5733005Y8765286D01*
G01X-1391695D01*
G01X-1128014Y8501605D01*
G01Y8101811D01*
G03X-1180084Y8013700I48514J-88111D01*
G03X-1079500Y7913116I100584J0D01*
G03X-978916Y8013700I0J100584D01*
G03X-1030986Y8101811I-100584J0D01*
G01Y8521700D01*
G03X-1045195Y8556005I-48514J0D01*
G01X-1337295Y8848105D01*
G03X-1371600Y8862314I-34305J-34305D01*
G01X-5753100D01*
G03X-5787405Y8848105I0J-48514D01*
G01X-6295405Y8340105D01*
G03X-6309614Y8305800I34305J-34305D01*
G01Y6286500D01*
G03X-6295405Y6252195I48514J0D01*
G01X-5939805Y5896595D01*
G03X-5905500Y5882386I34305J34305D01*
G01X-5160734D01*
G37*
G36*
G01X-2322449Y4608703D02*
G03X-2286635Y4572889I35814J0D01*
G01X-2206625D01*
G03X-2170811Y4608703I0J35814D01*
G01Y4688713D01*
G03X-2206625Y4724527I-35814J0D01*
G01X-2280861D01*
G01X-3170904Y5614570D01*
G03X-3164586Y5651657I-105696J37087D01*
G03X-3276600Y5763671I-112014J0D01*
G03X-3388614Y5651657I0J-112014D01*
G03X-3276600Y5539643I112014J0D01*
G03X-3239513Y5545961I0J112014D01*
G01X-2322449Y4628897D01*
G01Y4608703D01*
G37*
G36*
G01X-2460005Y5452095D02*
G03X-2425700Y5437886I34305J34305D01*
G01X-1816100D01*
G03X-1781795Y5452095I0J48514D01*
G01X-1743695Y5490195D01*
G03X-1729486Y5524500I-34305J34305D01*
G01Y5944389D01*
G03X-1677416Y6032500I-48514J88111D01*
G03X-1778000Y6133084I-100584J0D01*
G03X-1878584Y6032500I0J-100584D01*
G03X-1826514Y5944389I100584J0D01*
G01Y5544595D01*
G01X-1836195Y5534914D01*
G01X-2405605D01*
G01X-2810495Y5939805D01*
G03X-2844800Y5954014I-34305J-34305D01*
G01X-3175562D01*
G03X-3276600Y6017671I-101038J-48357D01*
G03X-3388614Y5905657I0J-112014D01*
G03X-3276600Y5793643I112014J0D01*
G03X-3175712Y5856986I0J112014D01*
G01X-2864895D01*
G01X-2460005Y5452095D01*
G37*
G36*
G01X-1433915Y4600702D02*
G03X-1398360Y4569186I35555J4298D01*
G01X-1317713D01*
G03X-1282700Y4597466I0J35814D01*
G03X-1247687Y4569186I35013J7534D01*
G01X-1167040D01*
G03X-1131226Y4605000I0J35814D01*
G01Y4691400D01*
G03X-1167040Y4727214I-35814J0D01*
G01X-1247687D01*
G03X-1282700Y4698934I0J-35814D01*
G03X-1317713Y4727214I-35013J-7534D01*
G01X-1398360D01*
G03X-1433610Y4697730I0J-35814D01*
G01X-2011817D01*
G03X-2046605Y4725035I-34788J-8509D01*
G01X-2126615D01*
G03X-2162429Y4689221I0J-35814D01*
G01Y4609211D01*
G03X-2126615Y4573397I35814J0D01*
G01X-2046605D01*
G03X-2011817Y4600702I0J35814D01*
G01X-1433915D01*
G37*
G36*
G01X-3276600Y6314186D02*
G03X-3164586Y6426200I0J112014D01*
G03X-3276600Y6538214I-112014J0D01*
G03X-3388614Y6426200I0J-112014D01*
G03X-3276600Y6314186I112014J0D01*
G37*
G36*
G01X-5166614Y6350000D02*
G03X-5130800Y6314186I35814J0D01*
G01X-4978400D01*
G03X-4942586Y6350000I0J35814D01*
G01Y6502400D01*
G03X-4978400Y6538214I-35814J0D01*
G01X-5130800D01*
G03X-5166614Y6502400I0J-35814D01*
G01Y6350000D01*
G37*
G36*
G01X-5054600Y3266186D02*
G03X-4942586Y3378200I0J112014D01*
G03X-5054600Y3490214I-112014J0D01*
G03X-5166614Y3378200I0J-112014D01*
G03X-5054600Y3266186I112014J0D01*
G37*
G36*
G01X-3276600Y3507643D02*
G03X-3164586Y3619657I0J112014D01*
G03X-3276600Y3731671I-112014J0D01*
G03X-3388614Y3619657I0J-112014D01*
G03X-3276600Y3507643I112014J0D01*
G37*
G36*
G01X-5166614Y3632200D02*
G03X-5054600Y3520186I112014J0D01*
G03X-4942586Y3632200I0J112014D01*
G03X-5054600Y3744214I-112014J0D01*
G03X-5166614Y3632200I0J-112014D01*
G37*
G36*
G01X-3388614Y3873657D02*
G03X-3276600Y3761643I112014J0D01*
G03X-3164586Y3873657I0J112014D01*
G03X-3276600Y3985671I-112014J0D01*
G03X-3388614Y3873657I0J-112014D01*
G37*
G36*
G01X-5166614Y3886200D02*
G03X-5054600Y3774186I112014J0D01*
G03X-4942586Y3886200I0J112014D01*
G03X-5054600Y3998214I-112014J0D01*
G03X-5166614Y3886200I0J-112014D01*
G37*
G36*
G01X-5166614Y3124200D02*
G03X-5054600Y3012186I112014J0D01*
G03X-4942586Y3124200I0J112014D01*
G03X-5054600Y3236214I-112014J0D01*
G03X-5166614Y3124200I0J-112014D01*
G37*
G36*
G01X-5166614Y4140200D02*
G03X-5054600Y4028186I112014J0D01*
G03X-4942586Y4140200I0J112014D01*
G03X-5054600Y4252214I-112014J0D01*
G03X-5166614Y4140200I0J-112014D01*
G37*
G36*
G01X-3388614Y4381657D02*
G03X-3276600Y4269643I112014J0D01*
G03X-3164586Y4381657I0J112014D01*
G03X-3276600Y4493671I-112014J0D01*
G03X-3388614Y4381657I0J-112014D01*
G37*
G36*
G01X-5166614Y4394200D02*
G03X-5054600Y4282186I112014J0D01*
G03X-4942586Y4394200I0J112014D01*
G03X-5054600Y4506214I-112014J0D01*
G03X-5166614Y4394200I0J-112014D01*
G37*
G36*
G01X-3276600Y4523643D02*
G03X-3164586Y4635657I0J112014D01*
G03X-3276600Y4747671I-112014J0D01*
G03X-3388614Y4635657I0J-112014D01*
G03X-3276600Y4523643I112014J0D01*
G37*
G36*
G01X-5054600Y4534012D02*
G03X-4942586Y4646026I0J112014D01*
G03X-5054600Y4758040I-112014J0D01*
G03X-5166614Y4646026I0J-112014D01*
G03X-5054600Y4534012I112014J0D01*
G37*
G36*
G01X-3388614Y3111657D02*
G03X-3276600Y2999643I112014J0D01*
G03X-3164586Y3111657I0J112014D01*
G03X-3276600Y3223671I-112014J0D01*
G03X-3388614Y3111657I0J-112014D01*
G37*
G36*
G01X-3276600Y4777643D02*
G03X-3164586Y4889657I0J112014D01*
G03X-3276600Y5001671I-112014J0D01*
G03X-3388614Y4889657I0J-112014D01*
G03X-3276600Y4777643I112014J0D01*
G37*
G36*
G01X-5166614Y4902200D02*
G03X-5054600Y4790186I112014J0D01*
G03X-4942586Y4902200I0J112014D01*
G03X-5054600Y5014214I-112014J0D01*
G03X-5166614Y4902200I0J-112014D01*
G37*
G36*
G01X-3388614Y5143657D02*
G03X-3276600Y5031643I112014J0D01*
G03X-3164586Y5143657I0J112014D01*
G03X-3276600Y5255671I-112014J0D01*
G03X-3388614Y5143657I0J-112014D01*
G37*
G36*
G01X-5054600Y5044186D02*
G03X-4942586Y5156200I0J112014D01*
G03X-5054600Y5268214I-112014J0D01*
G03X-5166614Y5156200I0J-112014D01*
G03X-5054600Y5044186I112014J0D01*
G37*
G36*
G01X-3388614Y5393450D02*
G03X-3276600Y5281436I112014J0D01*
G03X-3164586Y5393450I0J112014D01*
G03X-3276600Y5505464I-112014J0D01*
G03X-3388614Y5393450I0J-112014D01*
G37*
G36*
G01X-5054600Y5298186D02*
G03X-4942586Y5410200I0J112014D01*
G03X-5054600Y5522214I-112014J0D01*
G03X-5166614Y5410200I0J-112014D01*
G03X-5054600Y5298186I112014J0D01*
G37*
G36*
G01X-5166614Y2870200D02*
G03X-5054600Y2758186I112014J0D01*
G03X-4942586Y2870200I0J112014D01*
G03X-5054600Y2982214I-112014J0D01*
G03X-5166614Y2870200I0J-112014D01*
G37*
G36*
G01X-5054600Y5552186D02*
G03X-4942586Y5664200I0J112014D01*
G03X-5054600Y5776214I-112014J0D01*
G03X-5166614Y5664200I0J-112014D01*
G03X-5054600Y5552186I112014J0D01*
G37*
G36*
G01X-3388614Y2857657D02*
G03X-3276600Y2745643I112014J0D01*
G03X-3164586Y2857657I0J112014D01*
G03X-3276600Y2969671I-112014J0D01*
G03X-3388614Y2857657I0J-112014D01*
G37*
G36*
G01X-5054600Y2504186D02*
G03X-4942586Y2616200I0J112014D01*
G03X-5054600Y2728214I-112014J0D01*
G03X-5166614Y2616200I0J-112014D01*
G03X-5054600Y2504186I112014J0D01*
G37*
G36*
G01X-3388614Y3365657D02*
G03X-3276600Y3253643I112014J0D01*
G03X-3164586Y3365657I0J112014D01*
G03X-3276600Y3477671I-112014J0D01*
G03X-3388614Y3365657I0J-112014D01*
G37*
G36*
G01X-3276600Y2504186D02*
G03X-3164586Y2616200I0J112014D01*
G03X-3276600Y2728214I-112014J0D01*
G03X-3388614Y2616200I0J-112014D01*
G03X-3276600Y2504186I112014J0D01*
G37*
G36*
G01X-1270000Y5931916D02*
G03X-1169416Y6032500I0J100584D01*
G03X-1270000Y6133084I-100584J0D01*
G03X-1370584Y6032500I0J-100584D01*
G03X-1270000Y5931916I100584J0D01*
G37*
G36*
G01X-1524000Y5931916D02*
G03X-1423416Y6032500I0J100584D01*
G03X-1524000Y6133084I-100584J0D01*
G03X-1624584Y6032500I0J-100584D01*
G03X-1524000Y5931916I100584J0D01*
G37*
G36*
G01X-1688084Y8013700D02*
G03X-1587500Y7913116I100584J0D01*
G03X-1486916Y8013700I0J100584D01*
G03X-1587500Y8114284I-100584J0D01*
G03X-1688084Y8013700I0J-100584D01*
G37*
G36*
G01X-1333500Y7913116D02*
G03X-1232916Y8013700I0J100584D01*
G03X-1333500Y8114284I-100584J0D01*
G03X-1434084Y8013700I0J-100584D01*
G03X-1333500Y7913116I100584J0D01*
G37*
%LPD*%
G54D8191*
G01X-35814Y9964186D02*
G01X-35814Y35814D01*
G01X-6964186D01*
G01Y9964186D01*
G01X-35814D01*
G01X-3388614Y4127657D02*
G03X-3276600Y4015643I112014J0D01*
G03X-3182894Y4066286I0J112014D01*
G01X-558800D01*
G03X-524495Y4080495I0J48514D01*
G01X-410195Y4194795D01*
G03X-395986Y4229100I-34305J34305D01*
G01Y6934200D01*
G03X-410195Y6968505I-48514J0D01*
G01X-765795Y7324105D01*
G03X-800100Y7338314I-34305J-34305D01*
G01X-2010266D01*
G01X-2637138Y7965186D01*
G01X-1942084D01*
G01Y7948930D01*
G03X-1906270Y7913116I35814J0D01*
G01X-1776730D01*
G03X-1740916Y7948930I0J35814D01*
G01Y8078470D01*
G03X-1776730Y8114284I-35814J0D01*
G01X-1906270D01*
G03X-1942084Y8078470I0J-35814D01*
G01Y8062214D01*
G01X-2754261D01*
G01X-5355924D01*
G03X-5435600Y8129514I-79676J-13514D01*
G03X-5499100Y8098686I0J-80814D01*
G03X-5562600Y8129514I-63500J-49986D01*
G03X-5613504Y8111467I0J-80814D01*
G03X-5644600Y8129514I-31096J-17767D01*
G01X-5734600D01*
G03X-5770414Y8093700I0J-35814D01*
G01Y7933700D01*
G03X-5734600Y7897886I35814J0D01*
G01X-5644600D01*
G03X-5613504Y7915933I0J35814D01*
G03X-5611114Y7914068I50904J62767D01*
G01Y7168376D01*
G01Y6350000D01*
G03X-5596905Y6315695I48514J0D01*
G01X-5419105Y6137895D01*
G03X-5384800Y6123686I34305J34305D01*
G01X-5155563D01*
G03X-5054600Y6060186I100963J48514D01*
G03X-4942586Y6172200I0J112014D01*
G03X-5054600Y6284214I-112014J0D01*
G03X-5155563Y6220714I0J-112014D01*
G01X-5364705D01*
G01X-5514086Y6370095D01*
G01Y7119862D01*
G01X-4825074D01*
G01Y7094200D01*
G03X-4789260Y7058386I35814J0D01*
G01X-4708613D01*
G03X-4673600Y7086666I0J35814D01*
G03X-4638587Y7058386I35013J7534D01*
G01X-4557940D01*
G03X-4522522Y7088886I0J35814D01*
G01X-3195095D01*
G01X-2918714Y6812505D01*
G01Y6293895D01*
G01X-3017295Y6195314D01*
G01X-3170413D01*
G03X-3276600Y6271671I-106187J-35657D01*
G03X-3388614Y6159657I0J-112014D01*
G03X-3276600Y6047643I112014J0D01*
G03X-3182894Y6098286I0J112014D01*
G01X-2997200D01*
G03X-2962895Y6112495I0J48514D01*
G01X-2835895Y6239495D01*
G03X-2821686Y6273800I-34305J34305D01*
G01Y6832600D01*
G03X-2835895Y6866905I-48514J0D01*
G01X-3140695Y7171705D01*
G03X-3175000Y7185914I-34305J-34305D01*
G01X-4522522D01*
G03X-4557940Y7216414I-35418J-5314D01*
G01X-4638587D01*
G03X-4673600Y7188134I0J-35814D01*
G03X-4708613Y7216414I-35013J-7534D01*
G01X-4773138D01*
G03X-4779912Y7216890I-6774J-48039D01*
G01X-5514086D01*
G01Y7914068D01*
G03X-5499100Y7928714I-48514J64632D01*
G03X-5435600Y7897886I63500J49986D01*
G03X-5355924Y7965186I0J80814D01*
G01X-2774356D01*
G01X-2080514Y7271344D01*
G01Y6133084D01*
G01X-2096770D01*
G03X-2132584Y6097270I0J-35814D01*
G01Y5967730D01*
G03X-2096770Y5931916I35814J0D01*
G01X-1967230D01*
G03X-1931416Y5967730I0J35814D01*
G01Y6097270D01*
G03X-1967230Y6133084I-35814J0D01*
G01X-1983486D01*
G01Y7241286D01*
G01X-820195D01*
G01X-493014Y6914105D01*
G01Y4249195D01*
G01X-578895Y4163314D01*
G01X-3170413D01*
G03X-3276600Y4239671I-106187J-35657D01*
G03X-3388614Y4127657I0J-112014D01*
G01X-5160734Y5882386D02*
G03X-5054600Y5806186I106134J35814D01*
G03X-4942586Y5918200I0J112014D01*
G03X-5054600Y6030214I-112014J0D01*
G03X-5148408Y5979414I0J-112014D01*
G01X-5885405D01*
G01X-6212586Y6306595D01*
G01Y8285705D01*
G01X-5733005Y8765286D01*
G01X-1391695D01*
G01X-1128014Y8501605D01*
G01Y8101811D01*
G03X-1180084Y8013700I48514J-88111D01*
G03X-1079500Y7913116I100584J0D01*
G03X-978916Y8013700I0J100584D01*
G03X-1030986Y8101811I-100584J0D01*
G01Y8521700D01*
G03X-1045195Y8556005I-48514J0D01*
G01X-1337295Y8848105D01*
G03X-1371600Y8862314I-34305J-34305D01*
G01X-5753100D01*
G03X-5787405Y8848105I0J-48514D01*
G01X-6295405Y8340105D01*
G03X-6309614Y8305800I34305J-34305D01*
G01Y6286500D01*
G03X-6295405Y6252195I48514J0D01*
G01X-5939805Y5896595D01*
G03X-5905500Y5882386I34305J34305D01*
G01X-5160734D01*
G01X-2322449Y4608703D02*
G03X-2286635Y4572889I35814J0D01*
G01X-2206625D01*
G03X-2170811Y4608703I0J35814D01*
G01Y4688713D01*
G03X-2206625Y4724527I-35814J0D01*
G01X-2280861D01*
G01X-3170904Y5614570D01*
G03X-3164586Y5651657I-105696J37087D01*
G03X-3276600Y5763671I-112014J0D01*
G03X-3388614Y5651657I0J-112014D01*
G03X-3276600Y5539643I112014J0D01*
G03X-3239513Y5545961I0J112014D01*
G01X-2322449Y4628897D01*
G01Y4608703D01*
G01X-2460005Y5452095D02*
G03X-2425700Y5437886I34305J34305D01*
G01X-1816100D01*
G03X-1781795Y5452095I0J48514D01*
G01X-1743695Y5490195D01*
G03X-1729486Y5524500I-34305J34305D01*
G01Y5944389D01*
G03X-1677416Y6032500I-48514J88111D01*
G03X-1778000Y6133084I-100584J0D01*
G03X-1878584Y6032500I0J-100584D01*
G03X-1826514Y5944389I100584J0D01*
G01Y5544595D01*
G01X-1836195Y5534914D01*
G01X-2405605D01*
G01X-2810495Y5939805D01*
G03X-2844800Y5954014I-34305J-34305D01*
G01X-3175562D01*
G03X-3276600Y6017671I-101038J-48357D01*
G03X-3388614Y5905657I0J-112014D01*
G03X-3276600Y5793643I112014J0D01*
G03X-3175712Y5856986I0J112014D01*
G01X-2864895D01*
G01X-2460005Y5452095D01*
G01X-1433915Y4600702D02*
G03X-1398360Y4569186I35555J4298D01*
G01X-1317713D01*
G03X-1282700Y4597466I0J35814D01*
G03X-1247687Y4569186I35013J7534D01*
G01X-1167040D01*
G03X-1131226Y4605000I0J35814D01*
G01Y4691400D01*
G03X-1167040Y4727214I-35814J0D01*
G01X-1247687D01*
G03X-1282700Y4698934I0J-35814D01*
G03X-1317713Y4727214I-35013J-7534D01*
G01X-1398360D01*
G03X-1433610Y4697730I0J-35814D01*
G01X-2011817D01*
G03X-2046605Y4725035I-34788J-8509D01*
G01X-2126615D01*
G03X-2162429Y4689221I0J-35814D01*
G01Y4609211D01*
G03X-2126615Y4573397I35814J0D01*
G01X-2046605D01*
G03X-2011817Y4600702I0J35814D01*
G01X-1433915D01*
G01X-3276600Y6314186D02*
G03X-3164586Y6426200I0J112014D01*
G03X-3276600Y6538214I-112014J0D01*
G03X-3388614Y6426200I0J-112014D01*
G03X-3276600Y6314186I112014J0D01*
G01X-5166614Y6350000D02*
G03X-5130800Y6314186I35814J0D01*
G01X-4978400D01*
G03X-4942586Y6350000I0J35814D01*
G01Y6502400D01*
G03X-4978400Y6538214I-35814J0D01*
G01X-5130800D01*
G03X-5166614Y6502400I0J-35814D01*
G01Y6350000D01*
G01X-5054600Y3266186D02*
G03X-4942586Y3378200I0J112014D01*
G03X-5054600Y3490214I-112014J0D01*
G03X-5166614Y3378200I0J-112014D01*
G03X-5054600Y3266186I112014J0D01*
G01X-3276600Y3507643D02*
G03X-3164586Y3619657I0J112014D01*
G03X-3276600Y3731671I-112014J0D01*
G03X-3388614Y3619657I0J-112014D01*
G03X-3276600Y3507643I112014J0D01*
G01X-5166614Y3632200D02*
G03X-5054600Y3520186I112014J0D01*
G03X-4942586Y3632200I0J112014D01*
G03X-5054600Y3744214I-112014J0D01*
G03X-5166614Y3632200I0J-112014D01*
G01X-3388614Y3873657D02*
G03X-3276600Y3761643I112014J0D01*
G03X-3164586Y3873657I0J112014D01*
G03X-3276600Y3985671I-112014J0D01*
G03X-3388614Y3873657I0J-112014D01*
G01X-5166614Y3886200D02*
G03X-5054600Y3774186I112014J0D01*
G03X-4942586Y3886200I0J112014D01*
G03X-5054600Y3998214I-112014J0D01*
G03X-5166614Y3886200I0J-112014D01*
G01X-5166614Y3124200D02*
G03X-5054600Y3012186I112014J0D01*
G03X-4942586Y3124200I0J112014D01*
G03X-5054600Y3236214I-112014J0D01*
G03X-5166614Y3124200I0J-112014D01*
G01X-5166614Y4140200D02*
G03X-5054600Y4028186I112014J0D01*
G03X-4942586Y4140200I0J112014D01*
G03X-5054600Y4252214I-112014J0D01*
G03X-5166614Y4140200I0J-112014D01*
G01X-3388614Y4381657D02*
G03X-3276600Y4269643I112014J0D01*
G03X-3164586Y4381657I0J112014D01*
G03X-3276600Y4493671I-112014J0D01*
G03X-3388614Y4381657I0J-112014D01*
G01X-5166614Y4394200D02*
G03X-5054600Y4282186I112014J0D01*
G03X-4942586Y4394200I0J112014D01*
G03X-5054600Y4506214I-112014J0D01*
G03X-5166614Y4394200I0J-112014D01*
G01X-3276600Y4523643D02*
G03X-3164586Y4635657I0J112014D01*
G03X-3276600Y4747671I-112014J0D01*
G03X-3388614Y4635657I0J-112014D01*
G03X-3276600Y4523643I112014J0D01*
G01X-5054600Y4534012D02*
G03X-4942586Y4646026I0J112014D01*
G03X-5054600Y4758040I-112014J0D01*
G03X-5166614Y4646026I0J-112014D01*
G03X-5054600Y4534012I112014J0D01*
G01X-3388614Y3111657D02*
G03X-3276600Y2999643I112014J0D01*
G03X-3164586Y3111657I0J112014D01*
G03X-3276600Y3223671I-112014J0D01*
G03X-3388614Y3111657I0J-112014D01*
G01X-3276600Y4777643D02*
G03X-3164586Y4889657I0J112014D01*
G03X-3276600Y5001671I-112014J0D01*
G03X-3388614Y4889657I0J-112014D01*
G03X-3276600Y4777643I112014J0D01*
G01X-5166614Y4902200D02*
G03X-5054600Y4790186I112014J0D01*
G03X-4942586Y4902200I0J112014D01*
G03X-5054600Y5014214I-112014J0D01*
G03X-5166614Y4902200I0J-112014D01*
G01X-3388614Y5143657D02*
G03X-3276600Y5031643I112014J0D01*
G03X-3164586Y5143657I0J112014D01*
G03X-3276600Y5255671I-112014J0D01*
G03X-3388614Y5143657I0J-112014D01*
G01X-5054600Y5044186D02*
G03X-4942586Y5156200I0J112014D01*
G03X-5054600Y5268214I-112014J0D01*
G03X-5166614Y5156200I0J-112014D01*
G03X-5054600Y5044186I112014J0D01*
G01X-3388614Y5393450D02*
G03X-3276600Y5281436I112014J0D01*
G03X-3164586Y5393450I0J112014D01*
G03X-3276600Y5505464I-112014J0D01*
G03X-3388614Y5393450I0J-112014D01*
G01X-5054600Y5298186D02*
G03X-4942586Y5410200I0J112014D01*
G03X-5054600Y5522214I-112014J0D01*
G03X-5166614Y5410200I0J-112014D01*
G03X-5054600Y5298186I112014J0D01*
G01X-5166614Y2870200D02*
G03X-5054600Y2758186I112014J0D01*
G03X-4942586Y2870200I0J112014D01*
G03X-5054600Y2982214I-112014J0D01*
G03X-5166614Y2870200I0J-112014D01*
G01X-5054600Y5552186D02*
G03X-4942586Y5664200I0J112014D01*
G03X-5054600Y5776214I-112014J0D01*
G03X-5166614Y5664200I0J-112014D01*
G03X-5054600Y5552186I112014J0D01*
G01X-3388614Y2857657D02*
G03X-3276600Y2745643I112014J0D01*
G03X-3164586Y2857657I0J112014D01*
G03X-3276600Y2969671I-112014J0D01*
G03X-3388614Y2857657I0J-112014D01*
G01X-5054600Y2504186D02*
G03X-4942586Y2616200I0J112014D01*
G03X-5054600Y2728214I-112014J0D01*
G03X-5166614Y2616200I0J-112014D01*
G03X-5054600Y2504186I112014J0D01*
G01X-3388614Y3365657D02*
G03X-3276600Y3253643I112014J0D01*
G03X-3164586Y3365657I0J112014D01*
G03X-3276600Y3477671I-112014J0D01*
G03X-3388614Y3365657I0J-112014D01*
G01X-3276600Y2504186D02*
G03X-3164586Y2616200I0J112014D01*
G03X-3276600Y2728214I-112014J0D01*
G03X-3388614Y2616200I0J-112014D01*
G03X-3276600Y2504186I112014J0D01*
G01X-1270000Y5931916D02*
G03X-1169416Y6032500I0J100584D01*
G03X-1270000Y6133084I-100584J0D01*
G03X-1370584Y6032500I0J-100584D01*
G03X-1270000Y5931916I100584J0D01*
G01X-1524000Y5931916D02*
G03X-1423416Y6032500I0J100584D01*
G03X-1524000Y6133084I-100584J0D01*
G03X-1624584Y6032500I0J-100584D01*
G03X-1524000Y5931916I100584J0D01*
G01X-1688084Y8013700D02*
G03X-1587500Y7913116I100584J0D01*
G03X-1486916Y8013700I0J100584D01*
G03X-1587500Y8114284I-100584J0D01*
G03X-1688084Y8013700I0J-100584D01*
G01X-1333500Y7913116D02*
G03X-1232916Y8013700I0J100584D01*
G03X-1333500Y8114284I-100584J0D01*
G03X-1434084Y8013700I0J-100584D01*
G03X-1333500Y7913116I100584J0D01*
G54D10*
G01X-1207364Y4648200D02*
G01X-1141132Y4648200D01*
G01X-1207364Y4648200D02*
G01X-1207364Y4717308D01*
G01X-1207364Y4648200D02*
G01X-1207364Y4579092D01*
G01X-5689600Y8013700D02*
G01X-5760508Y8013700D01*
G01X-5689600Y8013700D02*
G01X-5689600Y8119608D01*
G01X-5689600Y8013700D02*
G01X-5689600Y7907792D01*
G01X-5054600Y4902200D02*
G01X-5156708Y4902200D01*
G01X-5054600Y4902200D02*
G01X-4952492Y4902200D01*
G01X-5054600Y4902200D02*
G01X-5054600Y5004308D01*
G01X-5054600Y4902200D02*
G01X-5054600Y4800092D01*
G01X-3276600Y2616200D02*
G01X-3378708Y2616200D01*
G01X-3276600Y2616200D02*
G01X-3174492Y2616200D01*
G01X-3276600Y2616200D02*
G01X-3276600Y2718308D01*
G01X-3276600Y2616200D02*
G01X-3276600Y2514092D01*
G01X-1587500Y8013700D02*
G01X-1496822Y8013700D01*
G01X-1587500Y8013700D02*
G01X-1678178Y8013700D01*
G01X-1587500Y8013700D02*
G01X-1587500Y7923022D01*
G01X-1587500Y8013700D02*
G01X-1587500Y8104378D01*
G01X-1524000Y6032500D02*
G01X-1433322Y6032500D01*
G01X-1524000Y6032500D02*
G01X-1614678Y6032500D01*
G01X-1524000Y6032500D02*
G01X-1524000Y5941822D01*
G01X-1524000Y6032500D02*
G01X-1524000Y6123178D01*
G04 Copper End*

G04 Pad Start*
G54D11*
G01X-5435600Y8013700D03*
G01X-5562600Y8013700D03*
G54D12*
G01X-5689600Y8013700D03*
G54D13*
G01X-4598264Y7137400D03*
G01X-4748936Y7137400D03*
G54D14*
G01X-5054600Y6426200D03*
G54D15*
G01X-5054600Y6172200D03*
G01X-5054600Y5918200D03*
G01X-5054600Y5664200D03*
G01X-5054600Y5410200D03*
G01X-5054600Y5156200D03*
G01X-5054600Y4902200D03*
G01X-5054600Y4646026D03*
G01X-5054600Y4394200D03*
G01X-5054600Y4140200D03*
G01X-5054600Y3886200D03*
G01X-5054600Y3632200D03*
G01X-5054600Y3378200D03*
G01X-5054600Y2870200D03*
G01X-5054600Y2616200D03*
G01X-5054600Y3124200D03*
G01X-3276600Y2616200D03*
G01X-3276600Y6159657D03*
G01X-3276600Y5905657D03*
G01X-3276600Y5651657D03*
G01X-3276600Y5393450D03*
G01X-3276600Y5143657D03*
G01X-3276600Y4889657D03*
G01X-3276600Y4635657D03*
G01X-3276600Y4381657D03*
G01X-3276600Y4127657D03*
G01X-3276600Y3873657D03*
G01X-3276600Y3619657D03*
G01X-3276600Y3365657D03*
G01X-3276600Y3111657D03*
G01X-3276600Y2857657D03*
G01X-3276600Y6426200D03*
G54D16*
G01X-1079500Y8013700D03*
G01X-1333500Y8013700D03*
G01X-1587500Y8013700D03*
G54D17*
G01X-1841500Y8013700D03*
G54D16*
G01X-1270000Y6032500D03*
G01X-1524000Y6032500D03*
G01X-1778000Y6032500D03*
G54D17*
G01X-2032000Y6032500D03*
G54D19*
G01X-2086610Y4649216D03*
G01X-2246630Y4648708D03*
G54D13*
G01X-1207364Y4648200D03*
G01X-1358036Y4648200D03*
G04 Pad End*

G04 Track Start*
G54D10*
G01X-5562600Y6350000D02*
G01X-5384800Y6172200D01*
G01X-5054600D01*
G01X-4748936Y7137400D02*
G01X-4779912Y7168376D01*
G01X-5562600D01*
G01X-5562600Y8013700D02*
G01X-5562600Y7168376D01*
G01Y6350000D01*
G01X-4598264Y7137400D02*
G01X-3175000Y7137400D01*
G01X-2870200Y6832600D01*
G01Y6273800D01*
G01X-2997200Y6146800D01*
G01X-3263743D01*
G01X-3276600Y6159657D01*
G01X-1079500Y8013700D02*
G01X-1079500Y8521700D01*
G01X-1371600Y8813800D01*
G01X-5753100D01*
G01X-6261100Y8305800D01*
G01Y6286500D01*
G01X-5905500Y5930900D01*
G01X-5067300D01*
G01X-5054600Y5918200D01*
G01X-444500Y6934200D02*
G01X-444500Y4229100D01*
G01X-558800Y4114800D01*
G01X-3263743D01*
G01X-3276600Y4127657D01*
G01X-800100Y7289800D02*
G01X-444500Y6934200D01*
G01X-2032000Y6032500D02*
G01X-2032000Y7288161D01*
G01X-2030361Y7289800D01*
G01X-800100D01*
G01X-2754261Y8013700D02*
G01X-2030361Y7289800D01*
G01X-2754261Y8013700D02*
G01X-1841500Y8013700D01*
G01X-2754261Y8013700D02*
G01X-5435600Y8013700D01*
G01X-1778000Y6032500D02*
G01X-1778000Y5524500D01*
G01X-1816100Y5486400D01*
G01X-2425700D01*
G01X-2844800Y5905500D01*
G01X-3276443D01*
G01X-3276600Y5651657D02*
G01X-2273651Y4648708D01*
G01X-2246630D01*
G01X-2086610Y4649216D02*
G01X-1359052Y4649216D01*
G01X-1358036Y4648200D01*
G01X-5054600Y4902200D02*
G01X-5397500Y4902200D01*
G01X-5562600Y4737100D01*
G01Y2654300D01*
G01X-5067300Y2159000D01*
G01X-3200400D01*
G01X-2933700Y2616200D02*
G01X-3276600Y2616200D01*
G01X-3200400Y2159000D02*
G01X-2933700Y2425700D01*
G01Y2616200D01*
G04 Track End*

M02*
