;TYPE=PLATED
;Layer: PTH_Through
;EasyEDA Pro Client v2.1.59.0ce47373.225d47, 2024-05-24 15:24:35
;Gerber Generator version 0.3
M48
METRIC,LZ,000.00000
;Hole size 1 = 0.70002 METRIC
T01C0.70002
;Hole size 2 = 0.91440 METRIC
T02C0.91440
%
G05
G90
T01
X-03733800Y05956300
X-03860800Y05956300
X-03987800Y05956300
T02
X-02755900Y04737100
X-02755900Y04483100
X-02755900Y04229100
X-02755900Y03975100
X-02755900Y03721100
X-02755900Y03467100
X-02755900Y03213100
X-02755900Y02956926
X-02755900Y02705100
X-02755900Y02451100
X-02755900Y02197100
X-02755900Y01943100
X-02755900Y01689100
X-02755900Y01181100
X-02755900Y00927100
X-02755900Y01435100
X-00977900Y00927100
X-00977900Y04470557
X-00977900Y04216557
X-00977900Y03962557
X-00977900Y03704350
X-00977900Y03454557
X-00977900Y03200557
X-00977900Y02946557
X-00977900Y02692557
X-00977900Y02438557
X-00977900Y02184557
X-00977900Y01930557
X-00977900Y01676557
X-00977900Y01422557
X-00977900Y01168557
X-00977900Y04737100
M30