G04 Layer: TopLayer*
G04 EasyEDA Pro v2.1.59.0ce47373.225d47, 2024-05-24 15:24:34*
G04 Gerber Generator version 0.3*
G04 Scale: 100 percent, Rotated: No, Reflected: No*
G04 Dimensions in millimeters*
G04 Leading zeros omitted, absolute positions, 3 integers and 5 decimals*
%FSLAX35Y35*%
%MOMM*%
%ADD8191C,0.2032*%
%ADD10C,0.254*%
%ADD11O,0.9X1.6*%
%ADD12R,0.9X1.6*%
%ADD13R,0.80648X0.86401*%
%ADD14R,1.524X1.524*%
%ADD15C,1.5273*%
%ADD16C,1.524*%
G75*


G04 Copper Start*
G36*
G01X-4503800Y25514D02*
G02X-4967986Y489700I0J464186D01*
G01Y5989700D01*
G02X-4503800Y6453886I464186J0D01*
G01X-503800D01*
G02X-39614Y5989700I0J-464186D01*
G01Y489700D01*
G02X-503800Y25514I-464186J0D01*
G01X-4503800D01*
G37*
%LPC*%
G36*
G01X-1089914Y2438557D02*
G03X-977900Y2326543I112014J0D01*
G03X-871819Y2402586I0J112014D01*
G01X-469900D01*
G03X-435595Y2416795I0J48514D01*
G01X-168895Y2683495D01*
G03X-154686Y2717800I-34305J34305D01*
G01Y5410200D01*
G03X-168895Y5444505I-48514J0D01*
G01X-714995Y5990605D01*
G03X-749300Y6004814I-34305J-34305D01*
G01X-3654124D01*
G03X-3733800Y6072114I-79676J-13514D01*
G03X-3797300Y6041286I0J-80814D01*
G03X-3860800Y6072114I-63500J-49986D01*
G03X-3911704Y6054067I0J-80814D01*
G03X-3942800Y6072114I-31096J-17767D01*
G01X-4032800D01*
G03X-4068614Y6036300I0J-35814D01*
G01Y5876300D01*
G03X-4032800Y5840486I35814J0D01*
G01X-3942800D01*
G03X-3911704Y5858533I0J35814D01*
G03X-3909314Y5856668I50904J62767D01*
G01Y5506925D01*
G01Y4660900D01*
G03X-3895105Y4626595I48514J0D01*
G01X-3717305Y4448795D01*
G03X-3683000Y4434586I34305J34305D01*
G01X-2856863D01*
G03X-2755900Y4371086I100963J48514D01*
G03X-2643886Y4483100I0J112014D01*
G03X-2755900Y4595114I-112014J0D01*
G03X-2856863Y4531614I0J-112014D01*
G01X-3662905D01*
G01X-3812286Y4680995D01*
G01Y5463286D01*
G01X-2741878D01*
G03X-2706460Y5432786I35418J5314D01*
G01X-2625813D01*
G03X-2590800Y5461066I0J35814D01*
G03X-2555787Y5432786I35013J7534D01*
G01X-2475140D01*
G03X-2439722Y5463286I0J35814D01*
G01X-794795D01*
G01X-594614Y5263105D01*
G01Y4579395D01*
G01X-667795Y4506214D01*
G01X-871713D01*
G03X-977900Y4582571I-106187J-35657D01*
G03X-1089914Y4470557I0J-112014D01*
G03X-977900Y4358543I112014J0D01*
G03X-884194Y4409186I0J112014D01*
G01X-647700D01*
G03X-613395Y4423395I0J48514D01*
G01X-511795Y4524995D01*
G03X-497586Y4559300I-34305J34305D01*
G01Y5283200D01*
G03X-511795Y5317505I-48514J0D01*
G01X-740395Y5546105D01*
G03X-774700Y5560314I-34305J-34305D01*
G01X-2439722D01*
G03X-2475140Y5590814I-35418J-5314D01*
G01X-2555787D01*
G03X-2590800Y5562534I0J-35814D01*
G03X-2625813Y5590814I-35013J-7534D01*
G01X-2706460D01*
G03X-2741878Y5560314I0J-35814D01*
G01X-3812286D01*
G01Y5856668D01*
G03X-3797300Y5871314I-48514J64632D01*
G03X-3733800Y5840486I63500J49986D01*
G03X-3654124Y5907786I0J80814D01*
G01X-769395D01*
G01X-251714Y5390105D01*
G01Y2737895D01*
G01X-489995Y2499614D01*
G01X-883990D01*
G03X-977900Y2550571I-93910J-61057D01*
G03X-1089914Y2438557I0J-112014D01*
G37*
G36*
G01X-3174900Y1564386D02*
G03X-3139086Y1600200I0J35814D01*
G01Y2624200D01*
G03X-3174900Y2660014I-35814J0D01*
G01X-4813300D01*
G03X-4849114Y2624200I0J-35814D01*
G01Y1600200D01*
G03X-4813300Y1564386I35814J0D01*
G01X-3174900D01*
G37*
G36*
G01X-977900Y1056543D02*
G03X-865886Y1168557I0J112014D01*
G03X-977900Y1280571I-112014J0D01*
G03X-1089914Y1168557I0J-112014D01*
G03X-977900Y1056543I112014J0D01*
G37*
G36*
G01X-2755900Y1069086D02*
G03X-2643886Y1181100I0J112014D01*
G03X-2755900Y1293114I-112014J0D01*
G03X-2867914Y1181100I0J-112014D01*
G03X-2755900Y1069086I112014J0D01*
G37*
G36*
G01X-1089914Y1422557D02*
G03X-977900Y1310543I112014J0D01*
G03X-865886Y1422557I0J112014D01*
G03X-977900Y1534571I-112014J0D01*
G03X-1089914Y1422557I0J-112014D01*
G37*
G36*
G01X-2755900Y1323086D02*
G03X-2643886Y1435100I0J112014D01*
G03X-2755900Y1547114I-112014J0D01*
G03X-2867914Y1435100I0J-112014D01*
G03X-2755900Y1323086I112014J0D01*
G37*
G36*
G01X-977900Y815086D02*
G03X-865886Y927100I0J112014D01*
G03X-977900Y1039114I-112014J0D01*
G03X-1089914Y927100I0J-112014D01*
G03X-977900Y815086I112014J0D01*
G37*
G36*
G01X-977900Y1564543D02*
G03X-865886Y1676557I0J112014D01*
G03X-977900Y1788571I-112014J0D01*
G03X-1089914Y1676557I0J-112014D01*
G03X-977900Y1564543I112014J0D01*
G37*
G36*
G01X-1089914Y1930557D02*
G03X-977900Y1818543I112014J0D01*
G03X-865886Y1930557I0J112014D01*
G03X-977900Y2042571I-112014J0D01*
G03X-1089914Y1930557I0J-112014D01*
G37*
G36*
G01X-977900Y2072543D02*
G03X-865886Y2184557I0J112014D01*
G03X-977900Y2296571I-112014J0D01*
G03X-1089914Y2184557I0J-112014D01*
G03X-977900Y2072543I112014J0D01*
G37*
G36*
G01X-2755900Y815086D02*
G03X-2643886Y927100I0J112014D01*
G03X-2755900Y1039114I-112014J0D01*
G03X-2867914Y927100I0J-112014D01*
G03X-2755900Y815086I112014J0D01*
G37*
G36*
G01X-2755900Y2593086D02*
G03X-2643886Y2705100I0J112014D01*
G03X-2755900Y2817114I-112014J0D01*
G03X-2867914Y2705100I0J-112014D01*
G03X-2755900Y2593086I112014J0D01*
G37*
G36*
G01X-1089914Y2946557D02*
G03X-977900Y2834543I112014J0D01*
G03X-865886Y2946557I0J112014D01*
G03X-977900Y3058571I-112014J0D01*
G03X-1089914Y2946557I0J-112014D01*
G37*
G36*
G01X-2867914Y2956926D02*
G03X-2755900Y2844912I112014J0D01*
G03X-2643886Y2956926I0J112014D01*
G03X-2755900Y3068940I-112014J0D01*
G03X-2867914Y2956926I0J-112014D01*
G37*
G36*
G01X-1089914Y3200557D02*
G03X-977900Y3088543I112014J0D01*
G03X-865886Y3200557I0J112014D01*
G03X-977900Y3312571I-112014J0D01*
G03X-1089914Y3200557I0J-112014D01*
G37*
G36*
G01X-2755900Y3101086D02*
G03X-2643886Y3213100I0J112014D01*
G03X-2755900Y3325114I-112014J0D01*
G03X-2867914Y3213100I0J-112014D01*
G03X-2755900Y3101086I112014J0D01*
G37*
G36*
G01X-1089914Y3454557D02*
G03X-977900Y3342543I112014J0D01*
G03X-865886Y3454557I0J112014D01*
G03X-977900Y3566571I-112014J0D01*
G03X-1089914Y3454557I0J-112014D01*
G37*
G36*
G01X-2755900Y3355086D02*
G03X-2643886Y3467100I0J112014D01*
G03X-2755900Y3579114I-112014J0D01*
G03X-2867914Y3467100I0J-112014D01*
G03X-2755900Y3355086I112014J0D01*
G37*
G36*
G01X-1089914Y3704350D02*
G03X-977900Y3592336I112014J0D01*
G03X-865886Y3704350I0J112014D01*
G03X-977900Y3816364I-112014J0D01*
G03X-1089914Y3704350I0J-112014D01*
G37*
G36*
G01X-2867914Y3721100D02*
G03X-2755900Y3609086I112014J0D01*
G03X-2643886Y3721100I0J112014D01*
G03X-2755900Y3833114I-112014J0D01*
G03X-2867914Y3721100I0J-112014D01*
G37*
G36*
G01X-1089914Y3962557D02*
G03X-977900Y3850543I112014J0D01*
G03X-865886Y3962557I0J112014D01*
G03X-977900Y4074571I-112014J0D01*
G03X-1089914Y3962557I0J-112014D01*
G37*
G36*
G01X-2755900Y3863086D02*
G03X-2643886Y3975100I0J112014D01*
G03X-2755900Y4087114I-112014J0D01*
G03X-2867914Y3975100I0J-112014D01*
G03X-2755900Y3863086I112014J0D01*
G37*
G36*
G01X-1089914Y4216557D02*
G03X-977900Y4104543I112014J0D01*
G03X-865886Y4216557I0J112014D01*
G03X-977900Y4328571I-112014J0D01*
G03X-1089914Y4216557I0J-112014D01*
G37*
G36*
G01X-2867914Y4229100D02*
G03X-2755900Y4117086I112014J0D01*
G03X-2643886Y4229100I0J112014D01*
G03X-2755900Y4341114I-112014J0D01*
G03X-2867914Y4229100I0J-112014D01*
G37*
G36*
G01X-2755900Y1577086D02*
G03X-2643886Y1689100I0J112014D01*
G03X-2755900Y1801114I-112014J0D01*
G03X-2867914Y1689100I0J-112014D01*
G03X-2755900Y1577086I112014J0D01*
G37*
G36*
G01X-2755900Y1831086D02*
G03X-2643886Y1943100I0J112014D01*
G03X-2755900Y2055114I-112014J0D01*
G03X-2867914Y1943100I0J-112014D01*
G03X-2755900Y1831086I112014J0D01*
G37*
G36*
G01X-2867914Y2197100D02*
G03X-2755900Y2085086I112014J0D01*
G03X-2643886Y2197100I0J112014D01*
G03X-2755900Y2309114I-112014J0D01*
G03X-2867914Y2197100I0J-112014D01*
G37*
G36*
G01X-2755900Y2339086D02*
G03X-2643886Y2451100I0J112014D01*
G03X-2755900Y2563114I-112014J0D01*
G03X-2867914Y2451100I0J-112014D01*
G03X-2755900Y2339086I112014J0D01*
G37*
G36*
G01X-977900Y2580543D02*
G03X-865886Y2692557I0J112014D01*
G03X-977900Y2804571I-112014J0D01*
G03X-1089914Y2692557I0J-112014D01*
G03X-977900Y2580543I112014J0D01*
G37*
G36*
G01X-2867914Y4660900D02*
G03X-2832100Y4625086I35814J0D01*
G01X-2679700D01*
G03X-2643886Y4660900I0J35814D01*
G01Y4813300D01*
G03X-2679700Y4849114I-35814J0D01*
G01X-2832100D01*
G03X-2867914Y4813300I0J-35814D01*
G01Y4660900D01*
G37*
G36*
G01X-1089914Y4737100D02*
G03X-977900Y4625086I112014J0D01*
G03X-865886Y4737100I0J112014D01*
G03X-977900Y4849114I-112014J0D01*
G03X-1089914Y4737100I0J-112014D01*
G37*
%LPD*%
G54D8191*
G01X-4503800Y25514D02*
G02X-4967986Y489700I0J464186D01*
G01Y5989700D01*
G02X-4503800Y6453886I464186J0D01*
G01X-503800D01*
G02X-39614Y5989700I0J-464186D01*
G01Y489700D01*
G02X-503800Y25514I-464186J0D01*
G01X-4503800D01*
G01X-1089914Y2438557D02*
G03X-977900Y2326543I112014J0D01*
G03X-871819Y2402586I0J112014D01*
G01X-469900D01*
G03X-435595Y2416795I0J48514D01*
G01X-168895Y2683495D01*
G03X-154686Y2717800I-34305J34305D01*
G01Y5410200D01*
G03X-168895Y5444505I-48514J0D01*
G01X-714995Y5990605D01*
G03X-749300Y6004814I-34305J-34305D01*
G01X-3654124D01*
G03X-3733800Y6072114I-79676J-13514D01*
G03X-3797300Y6041286I0J-80814D01*
G03X-3860800Y6072114I-63500J-49986D01*
G03X-3911704Y6054067I0J-80814D01*
G03X-3942800Y6072114I-31096J-17767D01*
G01X-4032800D01*
G03X-4068614Y6036300I0J-35814D01*
G01Y5876300D01*
G03X-4032800Y5840486I35814J0D01*
G01X-3942800D01*
G03X-3911704Y5858533I0J35814D01*
G03X-3909314Y5856668I50904J62767D01*
G01Y5506925D01*
G01Y4660900D01*
G03X-3895105Y4626595I48514J0D01*
G01X-3717305Y4448795D01*
G03X-3683000Y4434586I34305J34305D01*
G01X-2856863D01*
G03X-2755900Y4371086I100963J48514D01*
G03X-2643886Y4483100I0J112014D01*
G03X-2755900Y4595114I-112014J0D01*
G03X-2856863Y4531614I0J-112014D01*
G01X-3662905D01*
G01X-3812286Y4680995D01*
G01Y5463286D01*
G01X-2741878D01*
G03X-2706460Y5432786I35418J5314D01*
G01X-2625813D01*
G03X-2590800Y5461066I0J35814D01*
G03X-2555787Y5432786I35013J7534D01*
G01X-2475140D01*
G03X-2439722Y5463286I0J35814D01*
G01X-794795D01*
G01X-594614Y5263105D01*
G01Y4579395D01*
G01X-667795Y4506214D01*
G01X-871713D01*
G03X-977900Y4582571I-106187J-35657D01*
G03X-1089914Y4470557I0J-112014D01*
G03X-977900Y4358543I112014J0D01*
G03X-884194Y4409186I0J112014D01*
G01X-647700D01*
G03X-613395Y4423395I0J48514D01*
G01X-511795Y4524995D01*
G03X-497586Y4559300I-34305J34305D01*
G01Y5283200D01*
G03X-511795Y5317505I-48514J0D01*
G01X-740395Y5546105D01*
G03X-774700Y5560314I-34305J-34305D01*
G01X-2439722D01*
G03X-2475140Y5590814I-35418J-5314D01*
G01X-2555787D01*
G03X-2590800Y5562534I0J-35814D01*
G03X-2625813Y5590814I-35013J-7534D01*
G01X-2706460D01*
G03X-2741878Y5560314I0J-35814D01*
G01X-3812286D01*
G01Y5856668D01*
G03X-3797300Y5871314I-48514J64632D01*
G03X-3733800Y5840486I63500J49986D01*
G03X-3654124Y5907786I0J80814D01*
G01X-769395D01*
G01X-251714Y5390105D01*
G01Y2737895D01*
G01X-489995Y2499614D01*
G01X-883990D01*
G03X-977900Y2550571I-93910J-61057D01*
G03X-1089914Y2438557I0J-112014D01*
G01X-3174900Y1564386D02*
G03X-3139086Y1600200I0J35814D01*
G01Y2624200D01*
G03X-3174900Y2660014I-35814J0D01*
G01X-4813300D01*
G03X-4849114Y2624200I0J-35814D01*
G01Y1600200D01*
G03X-4813300Y1564386I35814J0D01*
G01X-3174900D01*
G01X-977900Y1056543D02*
G03X-865886Y1168557I0J112014D01*
G03X-977900Y1280571I-112014J0D01*
G03X-1089914Y1168557I0J-112014D01*
G03X-977900Y1056543I112014J0D01*
G01X-2755900Y1069086D02*
G03X-2643886Y1181100I0J112014D01*
G03X-2755900Y1293114I-112014J0D01*
G03X-2867914Y1181100I0J-112014D01*
G03X-2755900Y1069086I112014J0D01*
G01X-1089914Y1422557D02*
G03X-977900Y1310543I112014J0D01*
G03X-865886Y1422557I0J112014D01*
G03X-977900Y1534571I-112014J0D01*
G03X-1089914Y1422557I0J-112014D01*
G01X-2755900Y1323086D02*
G03X-2643886Y1435100I0J112014D01*
G03X-2755900Y1547114I-112014J0D01*
G03X-2867914Y1435100I0J-112014D01*
G03X-2755900Y1323086I112014J0D01*
G01X-977900Y815086D02*
G03X-865886Y927100I0J112014D01*
G03X-977900Y1039114I-112014J0D01*
G03X-1089914Y927100I0J-112014D01*
G03X-977900Y815086I112014J0D01*
G01X-977900Y1564543D02*
G03X-865886Y1676557I0J112014D01*
G03X-977900Y1788571I-112014J0D01*
G03X-1089914Y1676557I0J-112014D01*
G03X-977900Y1564543I112014J0D01*
G01X-1089914Y1930557D02*
G03X-977900Y1818543I112014J0D01*
G03X-865886Y1930557I0J112014D01*
G03X-977900Y2042571I-112014J0D01*
G03X-1089914Y1930557I0J-112014D01*
G01X-977900Y2072543D02*
G03X-865886Y2184557I0J112014D01*
G03X-977900Y2296571I-112014J0D01*
G03X-1089914Y2184557I0J-112014D01*
G03X-977900Y2072543I112014J0D01*
G01X-2755900Y815086D02*
G03X-2643886Y927100I0J112014D01*
G03X-2755900Y1039114I-112014J0D01*
G03X-2867914Y927100I0J-112014D01*
G03X-2755900Y815086I112014J0D01*
G01X-2755900Y2593086D02*
G03X-2643886Y2705100I0J112014D01*
G03X-2755900Y2817114I-112014J0D01*
G03X-2867914Y2705100I0J-112014D01*
G03X-2755900Y2593086I112014J0D01*
G01X-1089914Y2946557D02*
G03X-977900Y2834543I112014J0D01*
G03X-865886Y2946557I0J112014D01*
G03X-977900Y3058571I-112014J0D01*
G03X-1089914Y2946557I0J-112014D01*
G01X-2867914Y2956926D02*
G03X-2755900Y2844912I112014J0D01*
G03X-2643886Y2956926I0J112014D01*
G03X-2755900Y3068940I-112014J0D01*
G03X-2867914Y2956926I0J-112014D01*
G01X-1089914Y3200557D02*
G03X-977900Y3088543I112014J0D01*
G03X-865886Y3200557I0J112014D01*
G03X-977900Y3312571I-112014J0D01*
G03X-1089914Y3200557I0J-112014D01*
G01X-2755900Y3101086D02*
G03X-2643886Y3213100I0J112014D01*
G03X-2755900Y3325114I-112014J0D01*
G03X-2867914Y3213100I0J-112014D01*
G03X-2755900Y3101086I112014J0D01*
G01X-1089914Y3454557D02*
G03X-977900Y3342543I112014J0D01*
G03X-865886Y3454557I0J112014D01*
G03X-977900Y3566571I-112014J0D01*
G03X-1089914Y3454557I0J-112014D01*
G01X-2755900Y3355086D02*
G03X-2643886Y3467100I0J112014D01*
G03X-2755900Y3579114I-112014J0D01*
G03X-2867914Y3467100I0J-112014D01*
G03X-2755900Y3355086I112014J0D01*
G01X-1089914Y3704350D02*
G03X-977900Y3592336I112014J0D01*
G03X-865886Y3704350I0J112014D01*
G03X-977900Y3816364I-112014J0D01*
G03X-1089914Y3704350I0J-112014D01*
G01X-2867914Y3721100D02*
G03X-2755900Y3609086I112014J0D01*
G03X-2643886Y3721100I0J112014D01*
G03X-2755900Y3833114I-112014J0D01*
G03X-2867914Y3721100I0J-112014D01*
G01X-1089914Y3962557D02*
G03X-977900Y3850543I112014J0D01*
G03X-865886Y3962557I0J112014D01*
G03X-977900Y4074571I-112014J0D01*
G03X-1089914Y3962557I0J-112014D01*
G01X-2755900Y3863086D02*
G03X-2643886Y3975100I0J112014D01*
G03X-2755900Y4087114I-112014J0D01*
G03X-2867914Y3975100I0J-112014D01*
G03X-2755900Y3863086I112014J0D01*
G01X-1089914Y4216557D02*
G03X-977900Y4104543I112014J0D01*
G03X-865886Y4216557I0J112014D01*
G03X-977900Y4328571I-112014J0D01*
G03X-1089914Y4216557I0J-112014D01*
G01X-2867914Y4229100D02*
G03X-2755900Y4117086I112014J0D01*
G03X-2643886Y4229100I0J112014D01*
G03X-2755900Y4341114I-112014J0D01*
G03X-2867914Y4229100I0J-112014D01*
G01X-2755900Y1577086D02*
G03X-2643886Y1689100I0J112014D01*
G03X-2755900Y1801114I-112014J0D01*
G03X-2867914Y1689100I0J-112014D01*
G03X-2755900Y1577086I112014J0D01*
G01X-2755900Y1831086D02*
G03X-2643886Y1943100I0J112014D01*
G03X-2755900Y2055114I-112014J0D01*
G03X-2867914Y1943100I0J-112014D01*
G03X-2755900Y1831086I112014J0D01*
G01X-2867914Y2197100D02*
G03X-2755900Y2085086I112014J0D01*
G03X-2643886Y2197100I0J112014D01*
G03X-2755900Y2309114I-112014J0D01*
G03X-2867914Y2197100I0J-112014D01*
G01X-2755900Y2339086D02*
G03X-2643886Y2451100I0J112014D01*
G03X-2755900Y2563114I-112014J0D01*
G03X-2867914Y2451100I0J-112014D01*
G03X-2755900Y2339086I112014J0D01*
G01X-977900Y2580543D02*
G03X-865886Y2692557I0J112014D01*
G03X-977900Y2804571I-112014J0D01*
G03X-1089914Y2692557I0J-112014D01*
G03X-977900Y2580543I112014J0D01*
G01X-2867914Y4660900D02*
G03X-2832100Y4625086I35814J0D01*
G01X-2679700D01*
G03X-2643886Y4660900I0J35814D01*
G01Y4813300D01*
G03X-2679700Y4849114I-35814J0D01*
G01X-2832100D01*
G03X-2867914Y4813300I0J-35814D01*
G01Y4660900D01*
G01X-1089914Y4737100D02*
G03X-977900Y4625086I112014J0D01*
G03X-865886Y4737100I0J112014D01*
G03X-977900Y4849114I-112014J0D01*
G03X-1089914Y4737100I0J-112014D01*
G54D10*
G01X-3987800Y5956300D02*
G01X-4058708Y5956300D01*
G01X-3987800Y5956300D02*
G01X-3987800Y6062208D01*
G01X-3987800Y5956300D02*
G01X-3987800Y5850392D01*
G01X-2755900Y3213100D02*
G01X-2858008Y3213100D01*
G01X-2755900Y3213100D02*
G01X-2653792Y3213100D01*
G01X-2755900Y3213100D02*
G01X-2755900Y3315208D01*
G01X-2755900Y3213100D02*
G01X-2755900Y3110992D01*
G04 Copper End*

G04 Pad Start*
G54D11*
G01X-3733800Y5956300D03*
G01X-3860800Y5956300D03*
G54D12*
G01X-3987800Y5956300D03*
G54D13*
G01X-2515464Y5511800D03*
G01X-2666136Y5511800D03*
G54D14*
G01X-2755900Y4737100D03*
G54D16*
G01X-2755900Y4483100D03*
G01X-2755900Y4229100D03*
G01X-2755900Y3975100D03*
G01X-2755900Y3721100D03*
G01X-2755900Y3467100D03*
G01X-2755900Y3213100D03*
G01X-2755900Y2956926D03*
G01X-2755900Y2705100D03*
G01X-2755900Y2451100D03*
G01X-2755900Y2197100D03*
G01X-2755900Y1943100D03*
G01X-2755900Y1689100D03*
G01X-2755900Y1181100D03*
G01X-2755900Y927100D03*
G01X-2755900Y1435100D03*
G01X-977900Y927100D03*
G01X-977900Y4470557D03*
G01X-977900Y4216557D03*
G01X-977900Y3962557D03*
G01X-977900Y3704350D03*
G01X-977900Y3454557D03*
G01X-977900Y3200557D03*
G01X-977900Y2946557D03*
G01X-977900Y2692557D03*
G01X-977900Y2438557D03*
G01X-977900Y2184557D03*
G01X-977900Y1930557D03*
G01X-977900Y1676557D03*
G01X-977900Y1422557D03*
G01X-977900Y1168557D03*
G01X-977900Y4737100D03*
G04 Pad End*

G04 Track Start*
G54D10*
G01X-2515464Y5511800D02*
G01X-774700Y5511800D01*
G01X-546100Y5283200D01*
G01Y4559300D01*
G01X-647700Y4457700D01*
G01X-965043D01*
G01X-977900Y4470557D01*
G01X-3860800Y4660900D02*
G01X-3683000Y4483100D01*
G01X-2755900D01*
G01X-2666136Y5511800D02*
G01X-3855925Y5511800D01*
G01X-3860800Y5506925D01*
G01X-3860800Y5956300D02*
G01X-3860800Y5506925D01*
G01Y4660900D01*
G01X-965357Y2451100D02*
G01X-977900Y2438557D01*
G01X-469900Y2451100D02*
G01X-965357Y2451100D01*
G01X-203200Y2717800D02*
G01X-469900Y2451100D01*
G01X-203200Y5410200D02*
G01X-203200Y2717800D01*
G01X-749300Y5956300D02*
G01X-203200Y5410200D01*
G01X-3733800Y5956300D02*
G01X-749300Y5956300D01*
G04 Track End*

M02*
