G04 Layer: DrillDrawingLayer*
G04 EasyEDA Pro v2.1.59.0ce47373.225d47, 2024-05-24 15:24:34*
G04 Gerber Generator version 0.3*
G04 Scale: 100 percent, Rotated: No, Reflected: No*
G04 Dimensions in millimeters*
G04 Leading zeros omitted, absolute positions, 3 integers and 5 decimals*
%FSLAX35Y35*%
%MOMM*%
%ADD10C,0.254*%
G75*


G04 Image Start*
G36*
G01X-3753764Y5976264D02*
G01X-3753764Y5972607D01*
G01X-3750107D01*
G01X-3717493D01*
G01Y5939993D01*
G01X-3750107D01*
G01Y5972607D01*
G01X-3753764D01*
G01Y5936386D01*
G01X-3713836D01*
G01Y5976264D01*
G37*
G36*
G01X-3880764Y5976264D02*
G01X-3880764Y5972607D01*
G01X-3877107D01*
G01X-3844493D01*
G01Y5939993D01*
G01X-3877107D01*
G01Y5972607D01*
G01X-3880764D01*
G01Y5936386D01*
G01X-3840836D01*
G01Y5976264D01*
G37*
G36*
G01X-4007764Y5976264D02*
G01X-4007764Y5972607D01*
G01X-4004107D01*
G01X-3971493D01*
G01Y5939993D01*
G01X-4004107D01*
G01Y5972607D01*
G01X-4007764D01*
G01Y5936386D01*
G01X-3967836D01*
G01Y5976264D01*
G37*
G36*
G01X-2755900Y4757064D02*
G01X-2757932Y4756912D01*
G01X-2759913Y4756658D01*
G01X-2761844Y4756150D01*
G01X-2763672Y4755490D01*
G01X-2765400Y4754626D01*
G01X-2767025Y4753610D01*
G01X-2768600Y4752492D01*
G01X-2770022Y4751222D01*
G01X-2771292Y4749800D01*
G01X-2772410Y4748225D01*
G01X-2773426Y4746600D01*
G01X-2774290Y4744872D01*
G01X-2774950Y4743044D01*
G01X-2775458Y4741113D01*
G01X-2775712Y4739132D01*
G01X-2775814Y4737100D01*
G01X-2772512D01*
G01X-2772410Y4738776D01*
G01X-2772156Y4740453D01*
G01X-2771750Y4742028D01*
G01X-2771191Y4743552D01*
G01X-2770530Y4745025D01*
G01X-2769667Y4746396D01*
G01X-2768702Y4747666D01*
G01X-2767635Y4748835D01*
G01X-2766466Y4749902D01*
G01X-2765196Y4750867D01*
G01X-2763825Y4751730D01*
G01X-2762352Y4752391D01*
G01X-2760828Y4752950D01*
G01X-2759253Y4753356D01*
G01X-2757576Y4753610D01*
G01X-2755900Y4753712D01*
G01X-2754224Y4753610D01*
G01X-2752547Y4753356D01*
G01X-2750972Y4752950D01*
G01X-2749448Y4752391D01*
G01X-2747975Y4751730D01*
G01X-2746604Y4750867D01*
G01X-2745334Y4749902D01*
G01X-2744165Y4748835D01*
G01X-2743098Y4747666D01*
G01X-2742133Y4746396D01*
G01X-2741270Y4745025D01*
G01X-2740609Y4743552D01*
G01X-2740050Y4742028D01*
G01X-2739644Y4740453D01*
G01X-2739390Y4738776D01*
G01X-2739288Y4737100D01*
G01X-2739390Y4735424D01*
G01X-2739644Y4733747D01*
G01X-2740050Y4732172D01*
G01X-2740609Y4730648D01*
G01X-2741270Y4729175D01*
G01X-2742133Y4727804D01*
G01X-2743098Y4726534D01*
G01X-2744165Y4725365D01*
G01X-2745334Y4724298D01*
G01X-2746604Y4723333D01*
G01X-2747975Y4722470D01*
G01X-2749448Y4721809D01*
G01X-2750972Y4721250D01*
G01X-2752547Y4720844D01*
G01X-2754224Y4720590D01*
G01X-2755900Y4720488D01*
G01X-2757576Y4720590D01*
G01X-2759253Y4720844D01*
G01X-2760828Y4721250D01*
G01X-2762352Y4721809D01*
G01X-2763825Y4722470D01*
G01X-2765196Y4723333D01*
G01X-2766466Y4724298D01*
G01X-2767635Y4725365D01*
G01X-2768702Y4726534D01*
G01X-2769667Y4727804D01*
G01X-2770530Y4729175D01*
G01X-2771191Y4730648D01*
G01X-2771750Y4732172D01*
G01X-2772156Y4733747D01*
G01X-2772410Y4735424D01*
G01X-2772512Y4737100D01*
G01X-2775814D01*
G01X-2775712Y4735068D01*
G01X-2775458Y4733087D01*
G01X-2774950Y4731156D01*
G01X-2774290Y4729328D01*
G01X-2773426Y4727600D01*
G01X-2772410Y4725975D01*
G01X-2771292Y4724400D01*
G01X-2770022Y4722978D01*
G01X-2768600Y4721708D01*
G01X-2767025Y4720590D01*
G01X-2765400Y4719574D01*
G01X-2763672Y4718710D01*
G01X-2761844Y4718050D01*
G01X-2759913Y4717542D01*
G01X-2757932Y4717288D01*
G01X-2755900Y4717136D01*
G01X-2753868Y4717288D01*
G01X-2751887Y4717542D01*
G01X-2749956Y4718050D01*
G01X-2748128Y4718710D01*
G01X-2746400Y4719574D01*
G01X-2744775Y4720590D01*
G01X-2743200Y4721708D01*
G01X-2741778Y4722978D01*
G01X-2740508Y4724400D01*
G01X-2739390Y4725975D01*
G01X-2738374Y4727600D01*
G01X-2737510Y4729328D01*
G01X-2736850Y4731156D01*
G01X-2736342Y4733087D01*
G01X-2736088Y4735068D01*
G01X-2735936Y4737100D01*
G01X-2736088Y4739132D01*
G01X-2736342Y4741113D01*
G01X-2736850Y4743044D01*
G01X-2737510Y4744872D01*
G01X-2738374Y4746600D01*
G01X-2739390Y4748225D01*
G01X-2740508Y4749800D01*
G01X-2741778Y4751222D01*
G01X-2743200Y4752492D01*
G01X-2744775Y4753610D01*
G01X-2746400Y4754626D01*
G01X-2748128Y4755490D01*
G01X-2749956Y4756150D01*
G01X-2751887Y4756658D01*
G01X-2753868Y4756912D01*
G37*
G36*
G01X-2755900Y4503064D02*
G01X-2757932Y4502912D01*
G01X-2759913Y4502658D01*
G01X-2761844Y4502150D01*
G01X-2763672Y4501490D01*
G01X-2765400Y4500626D01*
G01X-2767025Y4499610D01*
G01X-2768600Y4498492D01*
G01X-2770022Y4497222D01*
G01X-2771292Y4495800D01*
G01X-2772410Y4494225D01*
G01X-2773426Y4492600D01*
G01X-2774290Y4490872D01*
G01X-2774950Y4489044D01*
G01X-2775458Y4487113D01*
G01X-2775712Y4485132D01*
G01X-2775814Y4483100D01*
G01X-2772512D01*
G01X-2772410Y4484776D01*
G01X-2772156Y4486453D01*
G01X-2771750Y4488028D01*
G01X-2771191Y4489552D01*
G01X-2770530Y4491025D01*
G01X-2769667Y4492396D01*
G01X-2768702Y4493666D01*
G01X-2767635Y4494835D01*
G01X-2766466Y4495902D01*
G01X-2765196Y4496867D01*
G01X-2763825Y4497730D01*
G01X-2762352Y4498391D01*
G01X-2760828Y4498950D01*
G01X-2759253Y4499356D01*
G01X-2757576Y4499610D01*
G01X-2755900Y4499712D01*
G01X-2754224Y4499610D01*
G01X-2752547Y4499356D01*
G01X-2750972Y4498950D01*
G01X-2749448Y4498391D01*
G01X-2747975Y4497730D01*
G01X-2746604Y4496867D01*
G01X-2745334Y4495902D01*
G01X-2744165Y4494835D01*
G01X-2743098Y4493666D01*
G01X-2742133Y4492396D01*
G01X-2741270Y4491025D01*
G01X-2740609Y4489552D01*
G01X-2740050Y4488028D01*
G01X-2739644Y4486453D01*
G01X-2739390Y4484776D01*
G01X-2739288Y4483100D01*
G01X-2739390Y4481424D01*
G01X-2739644Y4479747D01*
G01X-2740050Y4478172D01*
G01X-2740609Y4476648D01*
G01X-2741270Y4475175D01*
G01X-2742133Y4473804D01*
G01X-2743098Y4472534D01*
G01X-2744165Y4471365D01*
G01X-2745334Y4470298D01*
G01X-2746604Y4469333D01*
G01X-2747975Y4468470D01*
G01X-2749448Y4467809D01*
G01X-2750972Y4467250D01*
G01X-2752547Y4466844D01*
G01X-2754224Y4466590D01*
G01X-2755900Y4466488D01*
G01X-2757576Y4466590D01*
G01X-2759253Y4466844D01*
G01X-2760828Y4467250D01*
G01X-2762352Y4467809D01*
G01X-2763825Y4468470D01*
G01X-2765196Y4469333D01*
G01X-2766466Y4470298D01*
G01X-2767635Y4471365D01*
G01X-2768702Y4472534D01*
G01X-2769667Y4473804D01*
G01X-2770530Y4475175D01*
G01X-2771191Y4476648D01*
G01X-2771750Y4478172D01*
G01X-2772156Y4479747D01*
G01X-2772410Y4481424D01*
G01X-2772512Y4483100D01*
G01X-2775814D01*
G01X-2775712Y4481068D01*
G01X-2775458Y4479087D01*
G01X-2774950Y4477156D01*
G01X-2774290Y4475328D01*
G01X-2773426Y4473600D01*
G01X-2772410Y4471975D01*
G01X-2771292Y4470400D01*
G01X-2770022Y4468978D01*
G01X-2768600Y4467708D01*
G01X-2767025Y4466590D01*
G01X-2765400Y4465574D01*
G01X-2763672Y4464710D01*
G01X-2761844Y4464050D01*
G01X-2759913Y4463542D01*
G01X-2757932Y4463288D01*
G01X-2755900Y4463136D01*
G01X-2753868Y4463288D01*
G01X-2751887Y4463542D01*
G01X-2749956Y4464050D01*
G01X-2748128Y4464710D01*
G01X-2746400Y4465574D01*
G01X-2744775Y4466590D01*
G01X-2743200Y4467708D01*
G01X-2741778Y4468978D01*
G01X-2740508Y4470400D01*
G01X-2739390Y4471975D01*
G01X-2738374Y4473600D01*
G01X-2737510Y4475328D01*
G01X-2736850Y4477156D01*
G01X-2736342Y4479087D01*
G01X-2736088Y4481068D01*
G01X-2735936Y4483100D01*
G01X-2736088Y4485132D01*
G01X-2736342Y4487113D01*
G01X-2736850Y4489044D01*
G01X-2737510Y4490872D01*
G01X-2738374Y4492600D01*
G01X-2739390Y4494225D01*
G01X-2740508Y4495800D01*
G01X-2741778Y4497222D01*
G01X-2743200Y4498492D01*
G01X-2744775Y4499610D01*
G01X-2746400Y4500626D01*
G01X-2748128Y4501490D01*
G01X-2749956Y4502150D01*
G01X-2751887Y4502658D01*
G01X-2753868Y4502912D01*
G37*
G36*
G01X-2755900Y4249064D02*
G01X-2757932Y4248912D01*
G01X-2759913Y4248658D01*
G01X-2761844Y4248150D01*
G01X-2763672Y4247490D01*
G01X-2765400Y4246626D01*
G01X-2767025Y4245610D01*
G01X-2768600Y4244492D01*
G01X-2770022Y4243222D01*
G01X-2771292Y4241800D01*
G01X-2772410Y4240225D01*
G01X-2773426Y4238600D01*
G01X-2774290Y4236872D01*
G01X-2774950Y4235044D01*
G01X-2775458Y4233113D01*
G01X-2775712Y4231132D01*
G01X-2775814Y4229100D01*
G01X-2772512D01*
G01X-2772410Y4230776D01*
G01X-2772156Y4232453D01*
G01X-2771750Y4234028D01*
G01X-2771191Y4235552D01*
G01X-2770530Y4237025D01*
G01X-2769667Y4238396D01*
G01X-2768702Y4239666D01*
G01X-2767635Y4240835D01*
G01X-2766466Y4241902D01*
G01X-2765196Y4242867D01*
G01X-2763825Y4243730D01*
G01X-2762352Y4244391D01*
G01X-2760828Y4244950D01*
G01X-2759253Y4245356D01*
G01X-2757576Y4245610D01*
G01X-2755900Y4245712D01*
G01X-2754224Y4245610D01*
G01X-2752547Y4245356D01*
G01X-2750972Y4244950D01*
G01X-2749448Y4244391D01*
G01X-2747975Y4243730D01*
G01X-2746604Y4242867D01*
G01X-2745334Y4241902D01*
G01X-2744165Y4240835D01*
G01X-2743098Y4239666D01*
G01X-2742133Y4238396D01*
G01X-2741270Y4237025D01*
G01X-2740609Y4235552D01*
G01X-2740050Y4234028D01*
G01X-2739644Y4232453D01*
G01X-2739390Y4230776D01*
G01X-2739288Y4229100D01*
G01X-2739390Y4227424D01*
G01X-2739644Y4225747D01*
G01X-2740050Y4224172D01*
G01X-2740609Y4222648D01*
G01X-2741270Y4221175D01*
G01X-2742133Y4219804D01*
G01X-2743098Y4218534D01*
G01X-2744165Y4217365D01*
G01X-2745334Y4216298D01*
G01X-2746604Y4215333D01*
G01X-2747975Y4214470D01*
G01X-2749448Y4213809D01*
G01X-2750972Y4213250D01*
G01X-2752547Y4212844D01*
G01X-2754224Y4212590D01*
G01X-2755900Y4212488D01*
G01X-2757576Y4212590D01*
G01X-2759253Y4212844D01*
G01X-2760828Y4213250D01*
G01X-2762352Y4213809D01*
G01X-2763825Y4214470D01*
G01X-2765196Y4215333D01*
G01X-2766466Y4216298D01*
G01X-2767635Y4217365D01*
G01X-2768702Y4218534D01*
G01X-2769667Y4219804D01*
G01X-2770530Y4221175D01*
G01X-2771191Y4222648D01*
G01X-2771750Y4224172D01*
G01X-2772156Y4225747D01*
G01X-2772410Y4227424D01*
G01X-2772512Y4229100D01*
G01X-2775814D01*
G01X-2775712Y4227068D01*
G01X-2775458Y4225087D01*
G01X-2774950Y4223156D01*
G01X-2774290Y4221328D01*
G01X-2773426Y4219600D01*
G01X-2772410Y4217975D01*
G01X-2771292Y4216400D01*
G01X-2770022Y4214978D01*
G01X-2768600Y4213708D01*
G01X-2767025Y4212590D01*
G01X-2765400Y4211574D01*
G01X-2763672Y4210710D01*
G01X-2761844Y4210050D01*
G01X-2759913Y4209542D01*
G01X-2757932Y4209288D01*
G01X-2755900Y4209136D01*
G01X-2753868Y4209288D01*
G01X-2751887Y4209542D01*
G01X-2749956Y4210050D01*
G01X-2748128Y4210710D01*
G01X-2746400Y4211574D01*
G01X-2744775Y4212590D01*
G01X-2743200Y4213708D01*
G01X-2741778Y4214978D01*
G01X-2740508Y4216400D01*
G01X-2739390Y4217975D01*
G01X-2738374Y4219600D01*
G01X-2737510Y4221328D01*
G01X-2736850Y4223156D01*
G01X-2736342Y4225087D01*
G01X-2736088Y4227068D01*
G01X-2735936Y4229100D01*
G01X-2736088Y4231132D01*
G01X-2736342Y4233113D01*
G01X-2736850Y4235044D01*
G01X-2737510Y4236872D01*
G01X-2738374Y4238600D01*
G01X-2739390Y4240225D01*
G01X-2740508Y4241800D01*
G01X-2741778Y4243222D01*
G01X-2743200Y4244492D01*
G01X-2744775Y4245610D01*
G01X-2746400Y4246626D01*
G01X-2748128Y4247490D01*
G01X-2749956Y4248150D01*
G01X-2751887Y4248658D01*
G01X-2753868Y4248912D01*
G37*
G36*
G01X-2755900Y3995064D02*
G01X-2757932Y3994912D01*
G01X-2759913Y3994658D01*
G01X-2761844Y3994150D01*
G01X-2763672Y3993490D01*
G01X-2765400Y3992626D01*
G01X-2767025Y3991610D01*
G01X-2768600Y3990492D01*
G01X-2770022Y3989222D01*
G01X-2771292Y3987800D01*
G01X-2772410Y3986225D01*
G01X-2773426Y3984600D01*
G01X-2774290Y3982872D01*
G01X-2774950Y3981044D01*
G01X-2775458Y3979113D01*
G01X-2775712Y3977132D01*
G01X-2775814Y3975100D01*
G01X-2772512D01*
G01X-2772410Y3976776D01*
G01X-2772156Y3978453D01*
G01X-2771750Y3980028D01*
G01X-2771191Y3981552D01*
G01X-2770530Y3983025D01*
G01X-2769667Y3984396D01*
G01X-2768702Y3985666D01*
G01X-2767635Y3986835D01*
G01X-2766466Y3987902D01*
G01X-2765196Y3988867D01*
G01X-2763825Y3989730D01*
G01X-2762352Y3990391D01*
G01X-2760828Y3990950D01*
G01X-2759253Y3991356D01*
G01X-2757576Y3991610D01*
G01X-2755900Y3991712D01*
G01X-2754224Y3991610D01*
G01X-2752547Y3991356D01*
G01X-2750972Y3990950D01*
G01X-2749448Y3990391D01*
G01X-2747975Y3989730D01*
G01X-2746604Y3988867D01*
G01X-2745334Y3987902D01*
G01X-2744165Y3986835D01*
G01X-2743098Y3985666D01*
G01X-2742133Y3984396D01*
G01X-2741270Y3983025D01*
G01X-2740609Y3981552D01*
G01X-2740050Y3980028D01*
G01X-2739644Y3978453D01*
G01X-2739390Y3976776D01*
G01X-2739288Y3975100D01*
G01X-2739390Y3973424D01*
G01X-2739644Y3971747D01*
G01X-2740050Y3970172D01*
G01X-2740609Y3968648D01*
G01X-2741270Y3967175D01*
G01X-2742133Y3965804D01*
G01X-2743098Y3964534D01*
G01X-2744165Y3963365D01*
G01X-2745334Y3962298D01*
G01X-2746604Y3961333D01*
G01X-2747975Y3960470D01*
G01X-2749448Y3959809D01*
G01X-2750972Y3959250D01*
G01X-2752547Y3958844D01*
G01X-2754224Y3958590D01*
G01X-2755900Y3958488D01*
G01X-2757576Y3958590D01*
G01X-2759253Y3958844D01*
G01X-2760828Y3959250D01*
G01X-2762352Y3959809D01*
G01X-2763825Y3960470D01*
G01X-2765196Y3961333D01*
G01X-2766466Y3962298D01*
G01X-2767635Y3963365D01*
G01X-2768702Y3964534D01*
G01X-2769667Y3965804D01*
G01X-2770530Y3967175D01*
G01X-2771191Y3968648D01*
G01X-2771750Y3970172D01*
G01X-2772156Y3971747D01*
G01X-2772410Y3973424D01*
G01X-2772512Y3975100D01*
G01X-2775814D01*
G01X-2775712Y3973068D01*
G01X-2775458Y3971087D01*
G01X-2774950Y3969156D01*
G01X-2774290Y3967328D01*
G01X-2773426Y3965600D01*
G01X-2772410Y3963975D01*
G01X-2771292Y3962400D01*
G01X-2770022Y3960978D01*
G01X-2768600Y3959708D01*
G01X-2767025Y3958590D01*
G01X-2765400Y3957574D01*
G01X-2763672Y3956710D01*
G01X-2761844Y3956050D01*
G01X-2759913Y3955542D01*
G01X-2757932Y3955288D01*
G01X-2755900Y3955136D01*
G01X-2753868Y3955288D01*
G01X-2751887Y3955542D01*
G01X-2749956Y3956050D01*
G01X-2748128Y3956710D01*
G01X-2746400Y3957574D01*
G01X-2744775Y3958590D01*
G01X-2743200Y3959708D01*
G01X-2741778Y3960978D01*
G01X-2740508Y3962400D01*
G01X-2739390Y3963975D01*
G01X-2738374Y3965600D01*
G01X-2737510Y3967328D01*
G01X-2736850Y3969156D01*
G01X-2736342Y3971087D01*
G01X-2736088Y3973068D01*
G01X-2735936Y3975100D01*
G01X-2736088Y3977132D01*
G01X-2736342Y3979113D01*
G01X-2736850Y3981044D01*
G01X-2737510Y3982872D01*
G01X-2738374Y3984600D01*
G01X-2739390Y3986225D01*
G01X-2740508Y3987800D01*
G01X-2741778Y3989222D01*
G01X-2743200Y3990492D01*
G01X-2744775Y3991610D01*
G01X-2746400Y3992626D01*
G01X-2748128Y3993490D01*
G01X-2749956Y3994150D01*
G01X-2751887Y3994658D01*
G01X-2753868Y3994912D01*
G37*
G36*
G01X-2755900Y3741064D02*
G01X-2757932Y3740912D01*
G01X-2759913Y3740658D01*
G01X-2761844Y3740150D01*
G01X-2763672Y3739490D01*
G01X-2765400Y3738626D01*
G01X-2767025Y3737610D01*
G01X-2768600Y3736492D01*
G01X-2770022Y3735222D01*
G01X-2771292Y3733800D01*
G01X-2772410Y3732225D01*
G01X-2773426Y3730600D01*
G01X-2774290Y3728872D01*
G01X-2774950Y3727044D01*
G01X-2775458Y3725113D01*
G01X-2775712Y3723132D01*
G01X-2775814Y3721100D01*
G01X-2772512D01*
G01X-2772410Y3722776D01*
G01X-2772156Y3724453D01*
G01X-2771750Y3726028D01*
G01X-2771191Y3727552D01*
G01X-2770530Y3729025D01*
G01X-2769667Y3730396D01*
G01X-2768702Y3731666D01*
G01X-2767635Y3732835D01*
G01X-2766466Y3733902D01*
G01X-2765196Y3734867D01*
G01X-2763825Y3735730D01*
G01X-2762352Y3736391D01*
G01X-2760828Y3736950D01*
G01X-2759253Y3737356D01*
G01X-2757576Y3737610D01*
G01X-2755900Y3737712D01*
G01X-2754224Y3737610D01*
G01X-2752547Y3737356D01*
G01X-2750972Y3736950D01*
G01X-2749448Y3736391D01*
G01X-2747975Y3735730D01*
G01X-2746604Y3734867D01*
G01X-2745334Y3733902D01*
G01X-2744165Y3732835D01*
G01X-2743098Y3731666D01*
G01X-2742133Y3730396D01*
G01X-2741270Y3729025D01*
G01X-2740609Y3727552D01*
G01X-2740050Y3726028D01*
G01X-2739644Y3724453D01*
G01X-2739390Y3722776D01*
G01X-2739288Y3721100D01*
G01X-2739390Y3719424D01*
G01X-2739644Y3717747D01*
G01X-2740050Y3716172D01*
G01X-2740609Y3714648D01*
G01X-2741270Y3713175D01*
G01X-2742133Y3711804D01*
G01X-2743098Y3710534D01*
G01X-2744165Y3709365D01*
G01X-2745334Y3708298D01*
G01X-2746604Y3707333D01*
G01X-2747975Y3706470D01*
G01X-2749448Y3705809D01*
G01X-2750972Y3705250D01*
G01X-2752547Y3704844D01*
G01X-2754224Y3704590D01*
G01X-2755900Y3704488D01*
G01X-2757576Y3704590D01*
G01X-2759253Y3704844D01*
G01X-2760828Y3705250D01*
G01X-2762352Y3705809D01*
G01X-2763825Y3706470D01*
G01X-2765196Y3707333D01*
G01X-2766466Y3708298D01*
G01X-2767635Y3709365D01*
G01X-2768702Y3710534D01*
G01X-2769667Y3711804D01*
G01X-2770530Y3713175D01*
G01X-2771191Y3714648D01*
G01X-2771750Y3716172D01*
G01X-2772156Y3717747D01*
G01X-2772410Y3719424D01*
G01X-2772512Y3721100D01*
G01X-2775814D01*
G01X-2775712Y3719068D01*
G01X-2775458Y3717087D01*
G01X-2774950Y3715156D01*
G01X-2774290Y3713328D01*
G01X-2773426Y3711600D01*
G01X-2772410Y3709975D01*
G01X-2771292Y3708400D01*
G01X-2770022Y3706978D01*
G01X-2768600Y3705708D01*
G01X-2767025Y3704590D01*
G01X-2765400Y3703574D01*
G01X-2763672Y3702710D01*
G01X-2761844Y3702050D01*
G01X-2759913Y3701542D01*
G01X-2757932Y3701288D01*
G01X-2755900Y3701136D01*
G01X-2753868Y3701288D01*
G01X-2751887Y3701542D01*
G01X-2749956Y3702050D01*
G01X-2748128Y3702710D01*
G01X-2746400Y3703574D01*
G01X-2744775Y3704590D01*
G01X-2743200Y3705708D01*
G01X-2741778Y3706978D01*
G01X-2740508Y3708400D01*
G01X-2739390Y3709975D01*
G01X-2738374Y3711600D01*
G01X-2737510Y3713328D01*
G01X-2736850Y3715156D01*
G01X-2736342Y3717087D01*
G01X-2736088Y3719068D01*
G01X-2735936Y3721100D01*
G01X-2736088Y3723132D01*
G01X-2736342Y3725113D01*
G01X-2736850Y3727044D01*
G01X-2737510Y3728872D01*
G01X-2738374Y3730600D01*
G01X-2739390Y3732225D01*
G01X-2740508Y3733800D01*
G01X-2741778Y3735222D01*
G01X-2743200Y3736492D01*
G01X-2744775Y3737610D01*
G01X-2746400Y3738626D01*
G01X-2748128Y3739490D01*
G01X-2749956Y3740150D01*
G01X-2751887Y3740658D01*
G01X-2753868Y3740912D01*
G37*
G36*
G01X-2755900Y3487064D02*
G01X-2757932Y3486912D01*
G01X-2759913Y3486658D01*
G01X-2761844Y3486150D01*
G01X-2763672Y3485490D01*
G01X-2765400Y3484626D01*
G01X-2767025Y3483610D01*
G01X-2768600Y3482492D01*
G01X-2770022Y3481222D01*
G01X-2771292Y3479800D01*
G01X-2772410Y3478225D01*
G01X-2773426Y3476600D01*
G01X-2774290Y3474872D01*
G01X-2774950Y3473044D01*
G01X-2775458Y3471113D01*
G01X-2775712Y3469132D01*
G01X-2775814Y3467100D01*
G01X-2772512D01*
G01X-2772410Y3468776D01*
G01X-2772156Y3470453D01*
G01X-2771750Y3472028D01*
G01X-2771191Y3473552D01*
G01X-2770530Y3475025D01*
G01X-2769667Y3476396D01*
G01X-2768702Y3477666D01*
G01X-2767635Y3478835D01*
G01X-2766466Y3479902D01*
G01X-2765196Y3480867D01*
G01X-2763825Y3481730D01*
G01X-2762352Y3482391D01*
G01X-2760828Y3482950D01*
G01X-2759253Y3483356D01*
G01X-2757576Y3483610D01*
G01X-2755900Y3483712D01*
G01X-2754224Y3483610D01*
G01X-2752547Y3483356D01*
G01X-2750972Y3482950D01*
G01X-2749448Y3482391D01*
G01X-2747975Y3481730D01*
G01X-2746604Y3480867D01*
G01X-2745334Y3479902D01*
G01X-2744165Y3478835D01*
G01X-2743098Y3477666D01*
G01X-2742133Y3476396D01*
G01X-2741270Y3475025D01*
G01X-2740609Y3473552D01*
G01X-2740050Y3472028D01*
G01X-2739644Y3470453D01*
G01X-2739390Y3468776D01*
G01X-2739288Y3467100D01*
G01X-2739390Y3465424D01*
G01X-2739644Y3463747D01*
G01X-2740050Y3462172D01*
G01X-2740609Y3460648D01*
G01X-2741270Y3459175D01*
G01X-2742133Y3457804D01*
G01X-2743098Y3456534D01*
G01X-2744165Y3455365D01*
G01X-2745334Y3454298D01*
G01X-2746604Y3453333D01*
G01X-2747975Y3452470D01*
G01X-2749448Y3451809D01*
G01X-2750972Y3451250D01*
G01X-2752547Y3450844D01*
G01X-2754224Y3450590D01*
G01X-2755900Y3450488D01*
G01X-2757576Y3450590D01*
G01X-2759253Y3450844D01*
G01X-2760828Y3451250D01*
G01X-2762352Y3451809D01*
G01X-2763825Y3452470D01*
G01X-2765196Y3453333D01*
G01X-2766466Y3454298D01*
G01X-2767635Y3455365D01*
G01X-2768702Y3456534D01*
G01X-2769667Y3457804D01*
G01X-2770530Y3459175D01*
G01X-2771191Y3460648D01*
G01X-2771750Y3462172D01*
G01X-2772156Y3463747D01*
G01X-2772410Y3465424D01*
G01X-2772512Y3467100D01*
G01X-2775814D01*
G01X-2775712Y3465068D01*
G01X-2775458Y3463087D01*
G01X-2774950Y3461156D01*
G01X-2774290Y3459328D01*
G01X-2773426Y3457600D01*
G01X-2772410Y3455975D01*
G01X-2771292Y3454400D01*
G01X-2770022Y3452978D01*
G01X-2768600Y3451708D01*
G01X-2767025Y3450590D01*
G01X-2765400Y3449574D01*
G01X-2763672Y3448710D01*
G01X-2761844Y3448050D01*
G01X-2759913Y3447542D01*
G01X-2757932Y3447288D01*
G01X-2755900Y3447136D01*
G01X-2753868Y3447288D01*
G01X-2751887Y3447542D01*
G01X-2749956Y3448050D01*
G01X-2748128Y3448710D01*
G01X-2746400Y3449574D01*
G01X-2744775Y3450590D01*
G01X-2743200Y3451708D01*
G01X-2741778Y3452978D01*
G01X-2740508Y3454400D01*
G01X-2739390Y3455975D01*
G01X-2738374Y3457600D01*
G01X-2737510Y3459328D01*
G01X-2736850Y3461156D01*
G01X-2736342Y3463087D01*
G01X-2736088Y3465068D01*
G01X-2735936Y3467100D01*
G01X-2736088Y3469132D01*
G01X-2736342Y3471113D01*
G01X-2736850Y3473044D01*
G01X-2737510Y3474872D01*
G01X-2738374Y3476600D01*
G01X-2739390Y3478225D01*
G01X-2740508Y3479800D01*
G01X-2741778Y3481222D01*
G01X-2743200Y3482492D01*
G01X-2744775Y3483610D01*
G01X-2746400Y3484626D01*
G01X-2748128Y3485490D01*
G01X-2749956Y3486150D01*
G01X-2751887Y3486658D01*
G01X-2753868Y3486912D01*
G37*
G36*
G01X-2755900Y3233064D02*
G01X-2757932Y3232912D01*
G01X-2759913Y3232658D01*
G01X-2761844Y3232150D01*
G01X-2763672Y3231490D01*
G01X-2765400Y3230626D01*
G01X-2767025Y3229610D01*
G01X-2768600Y3228492D01*
G01X-2770022Y3227222D01*
G01X-2771292Y3225800D01*
G01X-2772410Y3224225D01*
G01X-2773426Y3222600D01*
G01X-2774290Y3220872D01*
G01X-2774950Y3219044D01*
G01X-2775458Y3217113D01*
G01X-2775712Y3215132D01*
G01X-2775814Y3213100D01*
G01X-2772512D01*
G01X-2772410Y3214776D01*
G01X-2772156Y3216453D01*
G01X-2771750Y3218028D01*
G01X-2771191Y3219552D01*
G01X-2770530Y3221025D01*
G01X-2769667Y3222396D01*
G01X-2768702Y3223666D01*
G01X-2767635Y3224835D01*
G01X-2766466Y3225902D01*
G01X-2765196Y3226867D01*
G01X-2763825Y3227730D01*
G01X-2762352Y3228391D01*
G01X-2760828Y3228950D01*
G01X-2759253Y3229356D01*
G01X-2757576Y3229610D01*
G01X-2755900Y3229712D01*
G01X-2754224Y3229610D01*
G01X-2752547Y3229356D01*
G01X-2750972Y3228950D01*
G01X-2749448Y3228391D01*
G01X-2747975Y3227730D01*
G01X-2746604Y3226867D01*
G01X-2745334Y3225902D01*
G01X-2744165Y3224835D01*
G01X-2743098Y3223666D01*
G01X-2742133Y3222396D01*
G01X-2741270Y3221025D01*
G01X-2740609Y3219552D01*
G01X-2740050Y3218028D01*
G01X-2739644Y3216453D01*
G01X-2739390Y3214776D01*
G01X-2739288Y3213100D01*
G01X-2739390Y3211424D01*
G01X-2739644Y3209747D01*
G01X-2740050Y3208172D01*
G01X-2740609Y3206648D01*
G01X-2741270Y3205175D01*
G01X-2742133Y3203804D01*
G01X-2743098Y3202534D01*
G01X-2744165Y3201365D01*
G01X-2745334Y3200298D01*
G01X-2746604Y3199333D01*
G01X-2747975Y3198470D01*
G01X-2749448Y3197809D01*
G01X-2750972Y3197250D01*
G01X-2752547Y3196844D01*
G01X-2754224Y3196590D01*
G01X-2755900Y3196488D01*
G01X-2757576Y3196590D01*
G01X-2759253Y3196844D01*
G01X-2760828Y3197250D01*
G01X-2762352Y3197809D01*
G01X-2763825Y3198470D01*
G01X-2765196Y3199333D01*
G01X-2766466Y3200298D01*
G01X-2767635Y3201365D01*
G01X-2768702Y3202534D01*
G01X-2769667Y3203804D01*
G01X-2770530Y3205175D01*
G01X-2771191Y3206648D01*
G01X-2771750Y3208172D01*
G01X-2772156Y3209747D01*
G01X-2772410Y3211424D01*
G01X-2772512Y3213100D01*
G01X-2775814D01*
G01X-2775712Y3211068D01*
G01X-2775458Y3209087D01*
G01X-2774950Y3207156D01*
G01X-2774290Y3205328D01*
G01X-2773426Y3203600D01*
G01X-2772410Y3201975D01*
G01X-2771292Y3200400D01*
G01X-2770022Y3198978D01*
G01X-2768600Y3197708D01*
G01X-2767025Y3196590D01*
G01X-2765400Y3195574D01*
G01X-2763672Y3194710D01*
G01X-2761844Y3194050D01*
G01X-2759913Y3193542D01*
G01X-2757932Y3193288D01*
G01X-2755900Y3193186D01*
G01X-2753868Y3193288D01*
G01X-2751887Y3193542D01*
G01X-2749956Y3194050D01*
G01X-2748128Y3194710D01*
G01X-2746400Y3195574D01*
G01X-2744775Y3196590D01*
G01X-2743200Y3197708D01*
G01X-2741778Y3198978D01*
G01X-2740508Y3200400D01*
G01X-2739390Y3201975D01*
G01X-2738374Y3203600D01*
G01X-2737510Y3205328D01*
G01X-2736850Y3207156D01*
G01X-2736342Y3209087D01*
G01X-2736088Y3211068D01*
G01X-2735936Y3213100D01*
G01X-2736088Y3215132D01*
G01X-2736342Y3217113D01*
G01X-2736850Y3219044D01*
G01X-2737510Y3220872D01*
G01X-2738374Y3222600D01*
G01X-2739390Y3224225D01*
G01X-2740508Y3225800D01*
G01X-2741778Y3227222D01*
G01X-2743200Y3228492D01*
G01X-2744775Y3229610D01*
G01X-2746400Y3230626D01*
G01X-2748128Y3231490D01*
G01X-2749956Y3232150D01*
G01X-2751887Y3232658D01*
G01X-2753868Y3232912D01*
G37*
G36*
G01X-2755900Y2976880D02*
G01X-2757932Y2976778D01*
G01X-2759913Y2976474D01*
G01X-2761844Y2975966D01*
G01X-2763672Y2975305D01*
G01X-2765400Y2974442D01*
G01X-2767025Y2973476D01*
G01X-2768600Y2972308D01*
G01X-2770022Y2971038D01*
G01X-2771292Y2969616D01*
G01X-2772410Y2968092D01*
G01X-2773426Y2966415D01*
G01X-2774290Y2964688D01*
G01X-2774950Y2962859D01*
G01X-2775458Y2960929D01*
G01X-2775712Y2958948D01*
G01X-2775814Y2956916D01*
G01X-2772512D01*
G01X-2772410Y2958643D01*
G01X-2772156Y2960268D01*
G01X-2771750Y2961843D01*
G01X-2771191Y2963367D01*
G01X-2770530Y2964840D01*
G01X-2769667Y2966212D01*
G01X-2768702Y2967482D01*
G01X-2767635Y2968650D01*
G01X-2766466Y2969717D01*
G01X-2765196Y2970682D01*
G01X-2763825Y2971546D01*
G01X-2762352Y2972257D01*
G01X-2760828Y2972816D01*
G01X-2759253Y2973222D01*
G01X-2757576Y2973476D01*
G01X-2755900Y2973527D01*
G01X-2754224Y2973476D01*
G01X-2752547Y2973222D01*
G01X-2750972Y2972816D01*
G01X-2749448Y2972257D01*
G01X-2747975Y2971546D01*
G01X-2746604Y2970682D01*
G01X-2745334Y2969717D01*
G01X-2744165Y2968650D01*
G01X-2743098Y2967482D01*
G01X-2742133Y2966212D01*
G01X-2741270Y2964840D01*
G01X-2740609Y2963367D01*
G01X-2740050Y2961843D01*
G01X-2739644Y2960268D01*
G01X-2739390Y2958643D01*
G01X-2739288Y2956916D01*
G01X-2739390Y2955239D01*
G01X-2739644Y2953563D01*
G01X-2740050Y2951988D01*
G01X-2740609Y2950464D01*
G01X-2741270Y2948991D01*
G01X-2742133Y2947619D01*
G01X-2743098Y2946349D01*
G01X-2744165Y2945181D01*
G01X-2745334Y2944114D01*
G01X-2746604Y2943149D01*
G01X-2747975Y2942336D01*
G01X-2749448Y2941625D01*
G01X-2750972Y2941066D01*
G01X-2752547Y2940660D01*
G01X-2754224Y2940406D01*
G01X-2755900Y2940304D01*
G01X-2757576Y2940406D01*
G01X-2759253Y2940660D01*
G01X-2760828Y2941066D01*
G01X-2762352Y2941625D01*
G01X-2763825Y2942336D01*
G01X-2765196Y2943149D01*
G01X-2766466Y2944114D01*
G01X-2767635Y2945181D01*
G01X-2768702Y2946349D01*
G01X-2769667Y2947619D01*
G01X-2770530Y2948991D01*
G01X-2771191Y2950464D01*
G01X-2771750Y2951988D01*
G01X-2772156Y2953563D01*
G01X-2772410Y2955239D01*
G01X-2772512Y2956916D01*
G01X-2775814D01*
G01X-2775712Y2954884D01*
G01X-2775458Y2952902D01*
G01X-2774950Y2950972D01*
G01X-2774290Y2949143D01*
G01X-2773426Y2947416D01*
G01X-2772410Y2945790D01*
G01X-2771292Y2944266D01*
G01X-2770022Y2942844D01*
G01X-2768600Y2941523D01*
G01X-2767025Y2940406D01*
G01X-2765400Y2939390D01*
G01X-2763672Y2938577D01*
G01X-2761844Y2937866D01*
G01X-2759913Y2937408D01*
G01X-2757932Y2937104D01*
G01X-2755900Y2937002D01*
G01X-2753868Y2937104D01*
G01X-2751887Y2937408D01*
G01X-2749956Y2937866D01*
G01X-2748128Y2938577D01*
G01X-2746400Y2939390D01*
G01X-2744775Y2940406D01*
G01X-2743200Y2941523D01*
G01X-2741778Y2942844D01*
G01X-2740508Y2944266D01*
G01X-2739390Y2945790D01*
G01X-2738374Y2947416D01*
G01X-2737510Y2949143D01*
G01X-2736850Y2950972D01*
G01X-2736342Y2952902D01*
G01X-2736088Y2954884D01*
G01X-2735936Y2956916D01*
G01X-2736088Y2958948D01*
G01X-2736342Y2960929D01*
G01X-2736850Y2962859D01*
G01X-2737510Y2964688D01*
G01X-2738374Y2966415D01*
G01X-2739390Y2968092D01*
G01X-2740508Y2969616D01*
G01X-2741778Y2971038D01*
G01X-2743200Y2972308D01*
G01X-2744775Y2973476D01*
G01X-2746400Y2974442D01*
G01X-2748128Y2975305D01*
G01X-2749956Y2975966D01*
G01X-2751887Y2976474D01*
G01X-2753868Y2976778D01*
G37*
G36*
G01X-2755900Y2725064D02*
G01X-2757932Y2724912D01*
G01X-2759913Y2724658D01*
G01X-2761844Y2724150D01*
G01X-2763672Y2723490D01*
G01X-2765400Y2722626D01*
G01X-2767025Y2721610D01*
G01X-2768600Y2720492D01*
G01X-2770022Y2719222D01*
G01X-2771292Y2717800D01*
G01X-2772410Y2716225D01*
G01X-2773426Y2714600D01*
G01X-2774290Y2712872D01*
G01X-2774950Y2711044D01*
G01X-2775458Y2709113D01*
G01X-2775712Y2707132D01*
G01X-2775814Y2705100D01*
G01X-2772512D01*
G01X-2772410Y2706776D01*
G01X-2772156Y2708453D01*
G01X-2771750Y2710028D01*
G01X-2771191Y2711552D01*
G01X-2770530Y2713025D01*
G01X-2769667Y2714396D01*
G01X-2768702Y2715666D01*
G01X-2767635Y2716835D01*
G01X-2766466Y2717902D01*
G01X-2765196Y2718867D01*
G01X-2763825Y2719730D01*
G01X-2762352Y2720391D01*
G01X-2760828Y2720950D01*
G01X-2759253Y2721356D01*
G01X-2757576Y2721610D01*
G01X-2755900Y2721712D01*
G01X-2754224Y2721610D01*
G01X-2752547Y2721356D01*
G01X-2750972Y2720950D01*
G01X-2749448Y2720391D01*
G01X-2747975Y2719730D01*
G01X-2746604Y2718867D01*
G01X-2745334Y2717902D01*
G01X-2744165Y2716835D01*
G01X-2743098Y2715666D01*
G01X-2742133Y2714396D01*
G01X-2741270Y2713025D01*
G01X-2740609Y2711552D01*
G01X-2740050Y2710028D01*
G01X-2739644Y2708453D01*
G01X-2739390Y2706776D01*
G01X-2739288Y2705100D01*
G01X-2739390Y2703424D01*
G01X-2739644Y2701747D01*
G01X-2740050Y2700172D01*
G01X-2740609Y2698648D01*
G01X-2741270Y2697175D01*
G01X-2742133Y2695804D01*
G01X-2743098Y2694534D01*
G01X-2744165Y2693365D01*
G01X-2745334Y2692298D01*
G01X-2746604Y2691333D01*
G01X-2747975Y2690470D01*
G01X-2749448Y2689809D01*
G01X-2750972Y2689250D01*
G01X-2752547Y2688844D01*
G01X-2754224Y2688590D01*
G01X-2755900Y2688488D01*
G01X-2757576Y2688590D01*
G01X-2759253Y2688844D01*
G01X-2760828Y2689250D01*
G01X-2762352Y2689809D01*
G01X-2763825Y2690470D01*
G01X-2765196Y2691333D01*
G01X-2766466Y2692298D01*
G01X-2767635Y2693365D01*
G01X-2768702Y2694534D01*
G01X-2769667Y2695804D01*
G01X-2770530Y2697175D01*
G01X-2771191Y2698648D01*
G01X-2771750Y2700172D01*
G01X-2772156Y2701747D01*
G01X-2772410Y2703424D01*
G01X-2772512Y2705100D01*
G01X-2775814D01*
G01X-2775712Y2703068D01*
G01X-2775458Y2701087D01*
G01X-2774950Y2699156D01*
G01X-2774290Y2697328D01*
G01X-2773426Y2695600D01*
G01X-2772410Y2693975D01*
G01X-2771292Y2692400D01*
G01X-2770022Y2690978D01*
G01X-2768600Y2689708D01*
G01X-2767025Y2688590D01*
G01X-2765400Y2687574D01*
G01X-2763672Y2686710D01*
G01X-2761844Y2686050D01*
G01X-2759913Y2685542D01*
G01X-2757932Y2685288D01*
G01X-2755900Y2685186D01*
G01X-2753868Y2685288D01*
G01X-2751887Y2685542D01*
G01X-2749956Y2686050D01*
G01X-2748128Y2686710D01*
G01X-2746400Y2687574D01*
G01X-2744775Y2688590D01*
G01X-2743200Y2689708D01*
G01X-2741778Y2690978D01*
G01X-2740508Y2692400D01*
G01X-2739390Y2693975D01*
G01X-2738374Y2695600D01*
G01X-2737510Y2697328D01*
G01X-2736850Y2699156D01*
G01X-2736342Y2701087D01*
G01X-2736088Y2703068D01*
G01X-2735936Y2705100D01*
G01X-2736088Y2707132D01*
G01X-2736342Y2709113D01*
G01X-2736850Y2711044D01*
G01X-2737510Y2712872D01*
G01X-2738374Y2714600D01*
G01X-2739390Y2716225D01*
G01X-2740508Y2717800D01*
G01X-2741778Y2719222D01*
G01X-2743200Y2720492D01*
G01X-2744775Y2721610D01*
G01X-2746400Y2722626D01*
G01X-2748128Y2723490D01*
G01X-2749956Y2724150D01*
G01X-2751887Y2724658D01*
G01X-2753868Y2724912D01*
G37*
G36*
G01X-2755900Y2471064D02*
G01X-2757932Y2470912D01*
G01X-2759913Y2470658D01*
G01X-2761844Y2470150D01*
G01X-2763672Y2469490D01*
G01X-2765400Y2468626D01*
G01X-2767025Y2467610D01*
G01X-2768600Y2466492D01*
G01X-2770022Y2465222D01*
G01X-2771292Y2463800D01*
G01X-2772410Y2462225D01*
G01X-2773426Y2460600D01*
G01X-2774290Y2458872D01*
G01X-2774950Y2457044D01*
G01X-2775458Y2455113D01*
G01X-2775712Y2453132D01*
G01X-2775814Y2451100D01*
G01X-2772512D01*
G01X-2772410Y2452776D01*
G01X-2772156Y2454453D01*
G01X-2771750Y2456028D01*
G01X-2771191Y2457552D01*
G01X-2770530Y2459025D01*
G01X-2769667Y2460396D01*
G01X-2768702Y2461666D01*
G01X-2767635Y2462835D01*
G01X-2766466Y2463902D01*
G01X-2765196Y2464867D01*
G01X-2763825Y2465730D01*
G01X-2762352Y2466391D01*
G01X-2760828Y2466950D01*
G01X-2759253Y2467356D01*
G01X-2757576Y2467610D01*
G01X-2755900Y2467712D01*
G01X-2754224Y2467610D01*
G01X-2752547Y2467356D01*
G01X-2750972Y2466950D01*
G01X-2749448Y2466391D01*
G01X-2747975Y2465730D01*
G01X-2746604Y2464867D01*
G01X-2745334Y2463902D01*
G01X-2744165Y2462835D01*
G01X-2743098Y2461666D01*
G01X-2742133Y2460396D01*
G01X-2741270Y2459025D01*
G01X-2740609Y2457552D01*
G01X-2740050Y2456028D01*
G01X-2739644Y2454453D01*
G01X-2739390Y2452776D01*
G01X-2739288Y2451100D01*
G01X-2739390Y2449424D01*
G01X-2739644Y2447747D01*
G01X-2740050Y2446172D01*
G01X-2740609Y2444648D01*
G01X-2741270Y2443175D01*
G01X-2742133Y2441804D01*
G01X-2743098Y2440534D01*
G01X-2744165Y2439365D01*
G01X-2745334Y2438298D01*
G01X-2746604Y2437333D01*
G01X-2747975Y2436470D01*
G01X-2749448Y2435809D01*
G01X-2750972Y2435250D01*
G01X-2752547Y2434844D01*
G01X-2754224Y2434590D01*
G01X-2755900Y2434488D01*
G01X-2757576Y2434590D01*
G01X-2759253Y2434844D01*
G01X-2760828Y2435250D01*
G01X-2762352Y2435809D01*
G01X-2763825Y2436470D01*
G01X-2765196Y2437333D01*
G01X-2766466Y2438298D01*
G01X-2767635Y2439365D01*
G01X-2768702Y2440534D01*
G01X-2769667Y2441804D01*
G01X-2770530Y2443175D01*
G01X-2771191Y2444648D01*
G01X-2771750Y2446172D01*
G01X-2772156Y2447747D01*
G01X-2772410Y2449424D01*
G01X-2772512Y2451100D01*
G01X-2775814D01*
G01X-2775712Y2449068D01*
G01X-2775458Y2447087D01*
G01X-2774950Y2445156D01*
G01X-2774290Y2443328D01*
G01X-2773426Y2441600D01*
G01X-2772410Y2439975D01*
G01X-2771292Y2438400D01*
G01X-2770022Y2436978D01*
G01X-2768600Y2435708D01*
G01X-2767025Y2434590D01*
G01X-2765400Y2433574D01*
G01X-2763672Y2432710D01*
G01X-2761844Y2432050D01*
G01X-2759913Y2431542D01*
G01X-2757932Y2431288D01*
G01X-2755900Y2431186D01*
G01X-2753868Y2431288D01*
G01X-2751887Y2431542D01*
G01X-2749956Y2432050D01*
G01X-2748128Y2432710D01*
G01X-2746400Y2433574D01*
G01X-2744775Y2434590D01*
G01X-2743200Y2435708D01*
G01X-2741778Y2436978D01*
G01X-2740508Y2438400D01*
G01X-2739390Y2439975D01*
G01X-2738374Y2441600D01*
G01X-2737510Y2443328D01*
G01X-2736850Y2445156D01*
G01X-2736342Y2447087D01*
G01X-2736088Y2449068D01*
G01X-2735936Y2451100D01*
G01X-2736088Y2453132D01*
G01X-2736342Y2455113D01*
G01X-2736850Y2457044D01*
G01X-2737510Y2458872D01*
G01X-2738374Y2460600D01*
G01X-2739390Y2462225D01*
G01X-2740508Y2463800D01*
G01X-2741778Y2465222D01*
G01X-2743200Y2466492D01*
G01X-2744775Y2467610D01*
G01X-2746400Y2468626D01*
G01X-2748128Y2469490D01*
G01X-2749956Y2470150D01*
G01X-2751887Y2470658D01*
G01X-2753868Y2470912D01*
G37*
G36*
G01X-2755900Y2217064D02*
G01X-2757932Y2216912D01*
G01X-2759913Y2216658D01*
G01X-2761844Y2216150D01*
G01X-2763672Y2215490D01*
G01X-2765400Y2214626D01*
G01X-2767025Y2213610D01*
G01X-2768600Y2212492D01*
G01X-2770022Y2211222D01*
G01X-2771292Y2209800D01*
G01X-2772410Y2208225D01*
G01X-2773426Y2206600D01*
G01X-2774290Y2204872D01*
G01X-2774950Y2203044D01*
G01X-2775458Y2201113D01*
G01X-2775712Y2199132D01*
G01X-2775814Y2197100D01*
G01X-2772512D01*
G01X-2772410Y2198776D01*
G01X-2772156Y2200453D01*
G01X-2771750Y2202028D01*
G01X-2771191Y2203552D01*
G01X-2770530Y2205025D01*
G01X-2769667Y2206396D01*
G01X-2768702Y2207666D01*
G01X-2767635Y2208835D01*
G01X-2766466Y2209902D01*
G01X-2765196Y2210867D01*
G01X-2763825Y2211730D01*
G01X-2762352Y2212391D01*
G01X-2760828Y2212950D01*
G01X-2759253Y2213356D01*
G01X-2757576Y2213610D01*
G01X-2755900Y2213712D01*
G01X-2754224Y2213610D01*
G01X-2752547Y2213356D01*
G01X-2750972Y2212950D01*
G01X-2749448Y2212391D01*
G01X-2747975Y2211730D01*
G01X-2746604Y2210867D01*
G01X-2745334Y2209902D01*
G01X-2744165Y2208835D01*
G01X-2743098Y2207666D01*
G01X-2742133Y2206396D01*
G01X-2741270Y2205025D01*
G01X-2740609Y2203552D01*
G01X-2740050Y2202028D01*
G01X-2739644Y2200453D01*
G01X-2739390Y2198776D01*
G01X-2739288Y2197100D01*
G01X-2739390Y2195424D01*
G01X-2739644Y2193747D01*
G01X-2740050Y2192172D01*
G01X-2740609Y2190648D01*
G01X-2741270Y2189175D01*
G01X-2742133Y2187804D01*
G01X-2743098Y2186534D01*
G01X-2744165Y2185365D01*
G01X-2745334Y2184298D01*
G01X-2746604Y2183333D01*
G01X-2747975Y2182470D01*
G01X-2749448Y2181809D01*
G01X-2750972Y2181250D01*
G01X-2752547Y2180844D01*
G01X-2754224Y2180590D01*
G01X-2755900Y2180488D01*
G01X-2757576Y2180590D01*
G01X-2759253Y2180844D01*
G01X-2760828Y2181250D01*
G01X-2762352Y2181809D01*
G01X-2763825Y2182470D01*
G01X-2765196Y2183333D01*
G01X-2766466Y2184298D01*
G01X-2767635Y2185365D01*
G01X-2768702Y2186534D01*
G01X-2769667Y2187804D01*
G01X-2770530Y2189175D01*
G01X-2771191Y2190648D01*
G01X-2771750Y2192172D01*
G01X-2772156Y2193747D01*
G01X-2772410Y2195424D01*
G01X-2772512Y2197100D01*
G01X-2775814D01*
G01X-2775712Y2195068D01*
G01X-2775458Y2193087D01*
G01X-2774950Y2191156D01*
G01X-2774290Y2189328D01*
G01X-2773426Y2187600D01*
G01X-2772410Y2185975D01*
G01X-2771292Y2184400D01*
G01X-2770022Y2182978D01*
G01X-2768600Y2181708D01*
G01X-2767025Y2180590D01*
G01X-2765400Y2179574D01*
G01X-2763672Y2178710D01*
G01X-2761844Y2178050D01*
G01X-2759913Y2177542D01*
G01X-2757932Y2177288D01*
G01X-2755900Y2177186D01*
G01X-2753868Y2177288D01*
G01X-2751887Y2177542D01*
G01X-2749956Y2178050D01*
G01X-2748128Y2178710D01*
G01X-2746400Y2179574D01*
G01X-2744775Y2180590D01*
G01X-2743200Y2181708D01*
G01X-2741778Y2182978D01*
G01X-2740508Y2184400D01*
G01X-2739390Y2185975D01*
G01X-2738374Y2187600D01*
G01X-2737510Y2189328D01*
G01X-2736850Y2191156D01*
G01X-2736342Y2193087D01*
G01X-2736088Y2195068D01*
G01X-2735936Y2197100D01*
G01X-2736088Y2199132D01*
G01X-2736342Y2201113D01*
G01X-2736850Y2203044D01*
G01X-2737510Y2204872D01*
G01X-2738374Y2206600D01*
G01X-2739390Y2208225D01*
G01X-2740508Y2209800D01*
G01X-2741778Y2211222D01*
G01X-2743200Y2212492D01*
G01X-2744775Y2213610D01*
G01X-2746400Y2214626D01*
G01X-2748128Y2215490D01*
G01X-2749956Y2216150D01*
G01X-2751887Y2216658D01*
G01X-2753868Y2216912D01*
G37*
G36*
G01X-2755900Y1963064D02*
G01X-2757932Y1962912D01*
G01X-2759913Y1962658D01*
G01X-2761844Y1962150D01*
G01X-2763672Y1961490D01*
G01X-2765400Y1960626D01*
G01X-2767025Y1959610D01*
G01X-2768600Y1958492D01*
G01X-2770022Y1957222D01*
G01X-2771292Y1955800D01*
G01X-2772410Y1954225D01*
G01X-2773426Y1952600D01*
G01X-2774290Y1950872D01*
G01X-2774950Y1949044D01*
G01X-2775458Y1947113D01*
G01X-2775712Y1945132D01*
G01X-2775814Y1943100D01*
G01X-2772512D01*
G01X-2772410Y1944776D01*
G01X-2772156Y1946453D01*
G01X-2771750Y1948028D01*
G01X-2771191Y1949552D01*
G01X-2770530Y1951025D01*
G01X-2769667Y1952396D01*
G01X-2768702Y1953666D01*
G01X-2767635Y1954835D01*
G01X-2766466Y1955902D01*
G01X-2765196Y1956867D01*
G01X-2763825Y1957730D01*
G01X-2762352Y1958391D01*
G01X-2760828Y1958950D01*
G01X-2759253Y1959356D01*
G01X-2757576Y1959610D01*
G01X-2755900Y1959712D01*
G01X-2754224Y1959610D01*
G01X-2752547Y1959356D01*
G01X-2750972Y1958950D01*
G01X-2749448Y1958391D01*
G01X-2747975Y1957730D01*
G01X-2746604Y1956867D01*
G01X-2745334Y1955902D01*
G01X-2744165Y1954835D01*
G01X-2743098Y1953666D01*
G01X-2742133Y1952396D01*
G01X-2741270Y1951025D01*
G01X-2740609Y1949552D01*
G01X-2740050Y1948028D01*
G01X-2739644Y1946453D01*
G01X-2739390Y1944776D01*
G01X-2739288Y1943100D01*
G01X-2739390Y1941424D01*
G01X-2739644Y1939747D01*
G01X-2740050Y1938172D01*
G01X-2740609Y1936648D01*
G01X-2741270Y1935175D01*
G01X-2742133Y1933804D01*
G01X-2743098Y1932534D01*
G01X-2744165Y1931365D01*
G01X-2745334Y1930298D01*
G01X-2746604Y1929333D01*
G01X-2747975Y1928470D01*
G01X-2749448Y1927809D01*
G01X-2750972Y1927250D01*
G01X-2752547Y1926844D01*
G01X-2754224Y1926590D01*
G01X-2755900Y1926488D01*
G01X-2757576Y1926590D01*
G01X-2759253Y1926844D01*
G01X-2760828Y1927250D01*
G01X-2762352Y1927809D01*
G01X-2763825Y1928470D01*
G01X-2765196Y1929333D01*
G01X-2766466Y1930298D01*
G01X-2767635Y1931365D01*
G01X-2768702Y1932534D01*
G01X-2769667Y1933804D01*
G01X-2770530Y1935175D01*
G01X-2771191Y1936648D01*
G01X-2771750Y1938172D01*
G01X-2772156Y1939747D01*
G01X-2772410Y1941424D01*
G01X-2772512Y1943100D01*
G01X-2775814D01*
G01X-2775712Y1941068D01*
G01X-2775458Y1939087D01*
G01X-2774950Y1937156D01*
G01X-2774290Y1935328D01*
G01X-2773426Y1933600D01*
G01X-2772410Y1931975D01*
G01X-2771292Y1930400D01*
G01X-2770022Y1928978D01*
G01X-2768600Y1927708D01*
G01X-2767025Y1926590D01*
G01X-2765400Y1925574D01*
G01X-2763672Y1924710D01*
G01X-2761844Y1924050D01*
G01X-2759913Y1923542D01*
G01X-2757932Y1923288D01*
G01X-2755900Y1923186D01*
G01X-2753868Y1923288D01*
G01X-2751887Y1923542D01*
G01X-2749956Y1924050D01*
G01X-2748128Y1924710D01*
G01X-2746400Y1925574D01*
G01X-2744775Y1926590D01*
G01X-2743200Y1927708D01*
G01X-2741778Y1928978D01*
G01X-2740508Y1930400D01*
G01X-2739390Y1931975D01*
G01X-2738374Y1933600D01*
G01X-2737510Y1935328D01*
G01X-2736850Y1937156D01*
G01X-2736342Y1939087D01*
G01X-2736088Y1941068D01*
G01X-2735936Y1943100D01*
G01X-2736088Y1945132D01*
G01X-2736342Y1947113D01*
G01X-2736850Y1949044D01*
G01X-2737510Y1950872D01*
G01X-2738374Y1952600D01*
G01X-2739390Y1954225D01*
G01X-2740508Y1955800D01*
G01X-2741778Y1957222D01*
G01X-2743200Y1958492D01*
G01X-2744775Y1959610D01*
G01X-2746400Y1960626D01*
G01X-2748128Y1961490D01*
G01X-2749956Y1962150D01*
G01X-2751887Y1962658D01*
G01X-2753868Y1962912D01*
G37*
G36*
G01X-2755900Y1709064D02*
G01X-2757932Y1708912D01*
G01X-2759913Y1708658D01*
G01X-2761844Y1708150D01*
G01X-2763672Y1707490D01*
G01X-2765400Y1706626D01*
G01X-2767025Y1705610D01*
G01X-2768600Y1704492D01*
G01X-2770022Y1703222D01*
G01X-2771292Y1701800D01*
G01X-2772410Y1700225D01*
G01X-2773426Y1698600D01*
G01X-2774290Y1696872D01*
G01X-2774950Y1695044D01*
G01X-2775458Y1693113D01*
G01X-2775712Y1691132D01*
G01X-2775814Y1689100D01*
G01X-2772512D01*
G01X-2772410Y1690776D01*
G01X-2772156Y1692453D01*
G01X-2771750Y1694028D01*
G01X-2771191Y1695552D01*
G01X-2770530Y1697025D01*
G01X-2769667Y1698396D01*
G01X-2768702Y1699666D01*
G01X-2767635Y1700835D01*
G01X-2766466Y1701902D01*
G01X-2765196Y1702867D01*
G01X-2763825Y1703730D01*
G01X-2762352Y1704391D01*
G01X-2760828Y1704950D01*
G01X-2759253Y1705356D01*
G01X-2757576Y1705610D01*
G01X-2755900Y1705712D01*
G01X-2754224Y1705610D01*
G01X-2752547Y1705356D01*
G01X-2750972Y1704950D01*
G01X-2749448Y1704391D01*
G01X-2747975Y1703730D01*
G01X-2746604Y1702867D01*
G01X-2745334Y1701902D01*
G01X-2744165Y1700835D01*
G01X-2743098Y1699666D01*
G01X-2742133Y1698396D01*
G01X-2741270Y1697025D01*
G01X-2740609Y1695552D01*
G01X-2740050Y1694028D01*
G01X-2739644Y1692453D01*
G01X-2739390Y1690776D01*
G01X-2739288Y1689100D01*
G01X-2739390Y1687424D01*
G01X-2739644Y1685747D01*
G01X-2740050Y1684172D01*
G01X-2740609Y1682648D01*
G01X-2741270Y1681175D01*
G01X-2742133Y1679804D01*
G01X-2743098Y1678534D01*
G01X-2744165Y1677365D01*
G01X-2745334Y1676298D01*
G01X-2746604Y1675333D01*
G01X-2747975Y1674470D01*
G01X-2749448Y1673809D01*
G01X-2750972Y1673250D01*
G01X-2752547Y1672844D01*
G01X-2754224Y1672590D01*
G01X-2755900Y1672488D01*
G01X-2757576Y1672590D01*
G01X-2759253Y1672844D01*
G01X-2760828Y1673250D01*
G01X-2762352Y1673809D01*
G01X-2763825Y1674470D01*
G01X-2765196Y1675333D01*
G01X-2766466Y1676298D01*
G01X-2767635Y1677365D01*
G01X-2768702Y1678534D01*
G01X-2769667Y1679804D01*
G01X-2770530Y1681175D01*
G01X-2771191Y1682648D01*
G01X-2771750Y1684172D01*
G01X-2772156Y1685747D01*
G01X-2772410Y1687424D01*
G01X-2772512Y1689100D01*
G01X-2775814D01*
G01X-2775712Y1687068D01*
G01X-2775458Y1685087D01*
G01X-2774950Y1683156D01*
G01X-2774290Y1681328D01*
G01X-2773426Y1679600D01*
G01X-2772410Y1677975D01*
G01X-2771292Y1676400D01*
G01X-2770022Y1674978D01*
G01X-2768600Y1673708D01*
G01X-2767025Y1672590D01*
G01X-2765400Y1671574D01*
G01X-2763672Y1670710D01*
G01X-2761844Y1670050D01*
G01X-2759913Y1669542D01*
G01X-2757932Y1669288D01*
G01X-2755900Y1669186D01*
G01X-2753868Y1669288D01*
G01X-2751887Y1669542D01*
G01X-2749956Y1670050D01*
G01X-2748128Y1670710D01*
G01X-2746400Y1671574D01*
G01X-2744775Y1672590D01*
G01X-2743200Y1673708D01*
G01X-2741778Y1674978D01*
G01X-2740508Y1676400D01*
G01X-2739390Y1677975D01*
G01X-2738374Y1679600D01*
G01X-2737510Y1681328D01*
G01X-2736850Y1683156D01*
G01X-2736342Y1685087D01*
G01X-2736088Y1687068D01*
G01X-2735936Y1689100D01*
G01X-2736088Y1691132D01*
G01X-2736342Y1693113D01*
G01X-2736850Y1695044D01*
G01X-2737510Y1696872D01*
G01X-2738374Y1698600D01*
G01X-2739390Y1700225D01*
G01X-2740508Y1701800D01*
G01X-2741778Y1703222D01*
G01X-2743200Y1704492D01*
G01X-2744775Y1705610D01*
G01X-2746400Y1706626D01*
G01X-2748128Y1707490D01*
G01X-2749956Y1708150D01*
G01X-2751887Y1708658D01*
G01X-2753868Y1708912D01*
G37*
G36*
G01X-2755900Y1201064D02*
G01X-2757932Y1200912D01*
G01X-2759913Y1200658D01*
G01X-2761844Y1200150D01*
G01X-2763672Y1199490D01*
G01X-2765400Y1198626D01*
G01X-2767025Y1197610D01*
G01X-2768600Y1196492D01*
G01X-2770022Y1195222D01*
G01X-2771292Y1193800D01*
G01X-2772410Y1192225D01*
G01X-2773426Y1190600D01*
G01X-2774290Y1188872D01*
G01X-2774950Y1187044D01*
G01X-2775458Y1185113D01*
G01X-2775712Y1183132D01*
G01X-2775814Y1181100D01*
G01X-2772512D01*
G01X-2772410Y1182776D01*
G01X-2772156Y1184453D01*
G01X-2771750Y1186028D01*
G01X-2771191Y1187552D01*
G01X-2770530Y1189025D01*
G01X-2769667Y1190396D01*
G01X-2768702Y1191666D01*
G01X-2767635Y1192835D01*
G01X-2766466Y1193902D01*
G01X-2765196Y1194867D01*
G01X-2763825Y1195730D01*
G01X-2762352Y1196391D01*
G01X-2760828Y1196950D01*
G01X-2759253Y1197356D01*
G01X-2757576Y1197610D01*
G01X-2755900Y1197712D01*
G01X-2754224Y1197610D01*
G01X-2752547Y1197356D01*
G01X-2750972Y1196950D01*
G01X-2749448Y1196391D01*
G01X-2747975Y1195730D01*
G01X-2746604Y1194867D01*
G01X-2745334Y1193902D01*
G01X-2744165Y1192835D01*
G01X-2743098Y1191666D01*
G01X-2742133Y1190396D01*
G01X-2741270Y1189025D01*
G01X-2740609Y1187552D01*
G01X-2740050Y1186028D01*
G01X-2739644Y1184453D01*
G01X-2739390Y1182776D01*
G01X-2739288Y1181100D01*
G01X-2739390Y1179424D01*
G01X-2739644Y1177747D01*
G01X-2740050Y1176172D01*
G01X-2740609Y1174648D01*
G01X-2741270Y1173175D01*
G01X-2742133Y1171804D01*
G01X-2743098Y1170534D01*
G01X-2744165Y1169365D01*
G01X-2745334Y1168298D01*
G01X-2746604Y1167333D01*
G01X-2747975Y1166470D01*
G01X-2749448Y1165809D01*
G01X-2750972Y1165250D01*
G01X-2752547Y1164844D01*
G01X-2754224Y1164590D01*
G01X-2755900Y1164488D01*
G01X-2757576Y1164590D01*
G01X-2759253Y1164844D01*
G01X-2760828Y1165250D01*
G01X-2762352Y1165809D01*
G01X-2763825Y1166470D01*
G01X-2765196Y1167333D01*
G01X-2766466Y1168298D01*
G01X-2767635Y1169365D01*
G01X-2768702Y1170534D01*
G01X-2769667Y1171804D01*
G01X-2770530Y1173175D01*
G01X-2771191Y1174648D01*
G01X-2771750Y1176172D01*
G01X-2772156Y1177747D01*
G01X-2772410Y1179424D01*
G01X-2772512Y1181100D01*
G01X-2775814D01*
G01X-2775712Y1179068D01*
G01X-2775458Y1177087D01*
G01X-2774950Y1175156D01*
G01X-2774290Y1173328D01*
G01X-2773426Y1171600D01*
G01X-2772410Y1169975D01*
G01X-2771292Y1168400D01*
G01X-2770022Y1166978D01*
G01X-2768600Y1165708D01*
G01X-2767025Y1164590D01*
G01X-2765400Y1163574D01*
G01X-2763672Y1162710D01*
G01X-2761844Y1162050D01*
G01X-2759913Y1161542D01*
G01X-2757932Y1161288D01*
G01X-2755900Y1161186D01*
G01X-2753868Y1161288D01*
G01X-2751887Y1161542D01*
G01X-2749956Y1162050D01*
G01X-2748128Y1162710D01*
G01X-2746400Y1163574D01*
G01X-2744775Y1164590D01*
G01X-2743200Y1165708D01*
G01X-2741778Y1166978D01*
G01X-2740508Y1168400D01*
G01X-2739390Y1169975D01*
G01X-2738374Y1171600D01*
G01X-2737510Y1173328D01*
G01X-2736850Y1175156D01*
G01X-2736342Y1177087D01*
G01X-2736088Y1179068D01*
G01X-2735936Y1181100D01*
G01X-2736088Y1183132D01*
G01X-2736342Y1185113D01*
G01X-2736850Y1187044D01*
G01X-2737510Y1188872D01*
G01X-2738374Y1190600D01*
G01X-2739390Y1192225D01*
G01X-2740508Y1193800D01*
G01X-2741778Y1195222D01*
G01X-2743200Y1196492D01*
G01X-2744775Y1197610D01*
G01X-2746400Y1198626D01*
G01X-2748128Y1199490D01*
G01X-2749956Y1200150D01*
G01X-2751887Y1200658D01*
G01X-2753868Y1200912D01*
G37*
G36*
G01X-2755900Y947064D02*
G01X-2757932Y946912D01*
G01X-2759913Y946658D01*
G01X-2761844Y946150D01*
G01X-2763672Y945490D01*
G01X-2765400Y944626D01*
G01X-2767025Y943610D01*
G01X-2768600Y942492D01*
G01X-2770022Y941222D01*
G01X-2771292Y939800D01*
G01X-2772410Y938225D01*
G01X-2773426Y936600D01*
G01X-2774290Y934872D01*
G01X-2774950Y933044D01*
G01X-2775458Y931113D01*
G01X-2775712Y929132D01*
G01X-2775814Y927100D01*
G01X-2772512D01*
G01X-2772410Y928776D01*
G01X-2772156Y930453D01*
G01X-2771750Y932028D01*
G01X-2771191Y933552D01*
G01X-2770530Y935025D01*
G01X-2769667Y936396D01*
G01X-2768702Y937666D01*
G01X-2767635Y938835D01*
G01X-2766466Y939902D01*
G01X-2765196Y940867D01*
G01X-2763825Y941730D01*
G01X-2762352Y942391D01*
G01X-2760828Y942950D01*
G01X-2759253Y943356D01*
G01X-2757576Y943610D01*
G01X-2755900Y943712D01*
G01X-2754224Y943610D01*
G01X-2752547Y943356D01*
G01X-2750972Y942950D01*
G01X-2749448Y942391D01*
G01X-2747975Y941730D01*
G01X-2746604Y940867D01*
G01X-2745334Y939902D01*
G01X-2744165Y938835D01*
G01X-2743098Y937666D01*
G01X-2742133Y936396D01*
G01X-2741270Y935025D01*
G01X-2740609Y933552D01*
G01X-2740050Y932028D01*
G01X-2739644Y930453D01*
G01X-2739390Y928776D01*
G01X-2739288Y927100D01*
G01X-2739390Y925424D01*
G01X-2739644Y923747D01*
G01X-2740050Y922172D01*
G01X-2740609Y920648D01*
G01X-2741270Y919175D01*
G01X-2742133Y917804D01*
G01X-2743098Y916534D01*
G01X-2744165Y915365D01*
G01X-2745334Y914298D01*
G01X-2746604Y913333D01*
G01X-2747975Y912470D01*
G01X-2749448Y911809D01*
G01X-2750972Y911250D01*
G01X-2752547Y910844D01*
G01X-2754224Y910590D01*
G01X-2755900Y910488D01*
G01X-2757576Y910590D01*
G01X-2759253Y910844D01*
G01X-2760828Y911250D01*
G01X-2762352Y911809D01*
G01X-2763825Y912470D01*
G01X-2765196Y913333D01*
G01X-2766466Y914298D01*
G01X-2767635Y915365D01*
G01X-2768702Y916534D01*
G01X-2769667Y917804D01*
G01X-2770530Y919175D01*
G01X-2771191Y920648D01*
G01X-2771750Y922172D01*
G01X-2772156Y923747D01*
G01X-2772410Y925424D01*
G01X-2772512Y927100D01*
G01X-2775814D01*
G01X-2775712Y925068D01*
G01X-2775458Y923087D01*
G01X-2774950Y921156D01*
G01X-2774290Y919328D01*
G01X-2773426Y917600D01*
G01X-2772410Y915975D01*
G01X-2771292Y914400D01*
G01X-2770022Y912978D01*
G01X-2768600Y911708D01*
G01X-2767025Y910590D01*
G01X-2765400Y909574D01*
G01X-2763672Y908710D01*
G01X-2761844Y908050D01*
G01X-2759913Y907542D01*
G01X-2757932Y907288D01*
G01X-2755900Y907186D01*
G01X-2753868Y907288D01*
G01X-2751887Y907542D01*
G01X-2749956Y908050D01*
G01X-2748128Y908710D01*
G01X-2746400Y909574D01*
G01X-2744775Y910590D01*
G01X-2743200Y911708D01*
G01X-2741778Y912978D01*
G01X-2740508Y914400D01*
G01X-2739390Y915975D01*
G01X-2738374Y917600D01*
G01X-2737510Y919328D01*
G01X-2736850Y921156D01*
G01X-2736342Y923087D01*
G01X-2736088Y925068D01*
G01X-2735936Y927100D01*
G01X-2736088Y929132D01*
G01X-2736342Y931113D01*
G01X-2736850Y933044D01*
G01X-2737510Y934872D01*
G01X-2738374Y936600D01*
G01X-2739390Y938225D01*
G01X-2740508Y939800D01*
G01X-2741778Y941222D01*
G01X-2743200Y942492D01*
G01X-2744775Y943610D01*
G01X-2746400Y944626D01*
G01X-2748128Y945490D01*
G01X-2749956Y946150D01*
G01X-2751887Y946658D01*
G01X-2753868Y946912D01*
G37*
G36*
G01X-2755900Y1455064D02*
G01X-2757932Y1454912D01*
G01X-2759913Y1454658D01*
G01X-2761844Y1454150D01*
G01X-2763672Y1453490D01*
G01X-2765400Y1452626D01*
G01X-2767025Y1451610D01*
G01X-2768600Y1450492D01*
G01X-2770022Y1449222D01*
G01X-2771292Y1447800D01*
G01X-2772410Y1446225D01*
G01X-2773426Y1444600D01*
G01X-2774290Y1442872D01*
G01X-2774950Y1441044D01*
G01X-2775458Y1439113D01*
G01X-2775712Y1437132D01*
G01X-2775814Y1435100D01*
G01X-2772512D01*
G01X-2772410Y1436776D01*
G01X-2772156Y1438453D01*
G01X-2771750Y1440028D01*
G01X-2771191Y1441552D01*
G01X-2770530Y1443025D01*
G01X-2769667Y1444396D01*
G01X-2768702Y1445666D01*
G01X-2767635Y1446835D01*
G01X-2766466Y1447902D01*
G01X-2765196Y1448867D01*
G01X-2763825Y1449730D01*
G01X-2762352Y1450391D01*
G01X-2760828Y1450950D01*
G01X-2759253Y1451356D01*
G01X-2757576Y1451610D01*
G01X-2755900Y1451712D01*
G01X-2754224Y1451610D01*
G01X-2752547Y1451356D01*
G01X-2750972Y1450950D01*
G01X-2749448Y1450391D01*
G01X-2747975Y1449730D01*
G01X-2746604Y1448867D01*
G01X-2745334Y1447902D01*
G01X-2744165Y1446835D01*
G01X-2743098Y1445666D01*
G01X-2742133Y1444396D01*
G01X-2741270Y1443025D01*
G01X-2740609Y1441552D01*
G01X-2740050Y1440028D01*
G01X-2739644Y1438453D01*
G01X-2739390Y1436776D01*
G01X-2739288Y1435100D01*
G01X-2739390Y1433424D01*
G01X-2739644Y1431747D01*
G01X-2740050Y1430172D01*
G01X-2740609Y1428648D01*
G01X-2741270Y1427175D01*
G01X-2742133Y1425804D01*
G01X-2743098Y1424534D01*
G01X-2744165Y1423365D01*
G01X-2745334Y1422298D01*
G01X-2746604Y1421333D01*
G01X-2747975Y1420470D01*
G01X-2749448Y1419809D01*
G01X-2750972Y1419250D01*
G01X-2752547Y1418844D01*
G01X-2754224Y1418590D01*
G01X-2755900Y1418488D01*
G01X-2757576Y1418590D01*
G01X-2759253Y1418844D01*
G01X-2760828Y1419250D01*
G01X-2762352Y1419809D01*
G01X-2763825Y1420470D01*
G01X-2765196Y1421333D01*
G01X-2766466Y1422298D01*
G01X-2767635Y1423365D01*
G01X-2768702Y1424534D01*
G01X-2769667Y1425804D01*
G01X-2770530Y1427175D01*
G01X-2771191Y1428648D01*
G01X-2771750Y1430172D01*
G01X-2772156Y1431747D01*
G01X-2772410Y1433424D01*
G01X-2772512Y1435100D01*
G01X-2775814D01*
G01X-2775712Y1433068D01*
G01X-2775458Y1431087D01*
G01X-2774950Y1429156D01*
G01X-2774290Y1427328D01*
G01X-2773426Y1425600D01*
G01X-2772410Y1423975D01*
G01X-2771292Y1422400D01*
G01X-2770022Y1420978D01*
G01X-2768600Y1419708D01*
G01X-2767025Y1418590D01*
G01X-2765400Y1417574D01*
G01X-2763672Y1416710D01*
G01X-2761844Y1416050D01*
G01X-2759913Y1415542D01*
G01X-2757932Y1415288D01*
G01X-2755900Y1415186D01*
G01X-2753868Y1415288D01*
G01X-2751887Y1415542D01*
G01X-2749956Y1416050D01*
G01X-2748128Y1416710D01*
G01X-2746400Y1417574D01*
G01X-2744775Y1418590D01*
G01X-2743200Y1419708D01*
G01X-2741778Y1420978D01*
G01X-2740508Y1422400D01*
G01X-2739390Y1423975D01*
G01X-2738374Y1425600D01*
G01X-2737510Y1427328D01*
G01X-2736850Y1429156D01*
G01X-2736342Y1431087D01*
G01X-2736088Y1433068D01*
G01X-2735936Y1435100D01*
G01X-2736088Y1437132D01*
G01X-2736342Y1439113D01*
G01X-2736850Y1441044D01*
G01X-2737510Y1442872D01*
G01X-2738374Y1444600D01*
G01X-2739390Y1446225D01*
G01X-2740508Y1447800D01*
G01X-2741778Y1449222D01*
G01X-2743200Y1450492D01*
G01X-2744775Y1451610D01*
G01X-2746400Y1452626D01*
G01X-2748128Y1453490D01*
G01X-2749956Y1454150D01*
G01X-2751887Y1454658D01*
G01X-2753868Y1454912D01*
G37*
G36*
G01X-977900Y947064D02*
G01X-979932Y946912D01*
G01X-981913Y946658D01*
G01X-983844Y946150D01*
G01X-985672Y945490D01*
G01X-987400Y944626D01*
G01X-989025Y943610D01*
G01X-990600Y942492D01*
G01X-992022Y941222D01*
G01X-993292Y939800D01*
G01X-994410Y938225D01*
G01X-995426Y936600D01*
G01X-996290Y934872D01*
G01X-996950Y933044D01*
G01X-997458Y931113D01*
G01X-997712Y929132D01*
G01X-997864Y927100D01*
G01X-994512D01*
G01X-994410Y928776D01*
G01X-994156Y930453D01*
G01X-993750Y932028D01*
G01X-993191Y933552D01*
G01X-992530Y935025D01*
G01X-991667Y936396D01*
G01X-990702Y937666D01*
G01X-989635Y938835D01*
G01X-988466Y939902D01*
G01X-987196Y940867D01*
G01X-985825Y941730D01*
G01X-984352Y942391D01*
G01X-982828Y942950D01*
G01X-981253Y943356D01*
G01X-979576Y943610D01*
G01X-977900Y943712D01*
G01X-976224Y943610D01*
G01X-974547Y943356D01*
G01X-972972Y942950D01*
G01X-971448Y942391D01*
G01X-969975Y941730D01*
G01X-968604Y940867D01*
G01X-967334Y939902D01*
G01X-966165Y938835D01*
G01X-965098Y937666D01*
G01X-964133Y936396D01*
G01X-963270Y935025D01*
G01X-962609Y933552D01*
G01X-962050Y932028D01*
G01X-961644Y930453D01*
G01X-961390Y928776D01*
G01X-961288Y927100D01*
G01X-961390Y925424D01*
G01X-961644Y923747D01*
G01X-962050Y922172D01*
G01X-962609Y920648D01*
G01X-963270Y919175D01*
G01X-964133Y917804D01*
G01X-965098Y916534D01*
G01X-966165Y915365D01*
G01X-967334Y914298D01*
G01X-968604Y913333D01*
G01X-969975Y912470D01*
G01X-971448Y911809D01*
G01X-972972Y911250D01*
G01X-974547Y910844D01*
G01X-976224Y910590D01*
G01X-977900Y910488D01*
G01X-979576Y910590D01*
G01X-981253Y910844D01*
G01X-982828Y911250D01*
G01X-984352Y911809D01*
G01X-985825Y912470D01*
G01X-987196Y913333D01*
G01X-988466Y914298D01*
G01X-989635Y915365D01*
G01X-990702Y916534D01*
G01X-991667Y917804D01*
G01X-992530Y919175D01*
G01X-993191Y920648D01*
G01X-993750Y922172D01*
G01X-994156Y923747D01*
G01X-994410Y925424D01*
G01X-994512Y927100D01*
G01X-997864D01*
G01X-997712Y925068D01*
G01X-997458Y923087D01*
G01X-996950Y921156D01*
G01X-996290Y919328D01*
G01X-995426Y917600D01*
G01X-994410Y915975D01*
G01X-993292Y914400D01*
G01X-992022Y912978D01*
G01X-990600Y911708D01*
G01X-989025Y910590D01*
G01X-987400Y909574D01*
G01X-985672Y908710D01*
G01X-983844Y908050D01*
G01X-981913Y907542D01*
G01X-979932Y907288D01*
G01X-977900Y907186D01*
G01X-975868Y907288D01*
G01X-973887Y907542D01*
G01X-971956Y908050D01*
G01X-970128Y908710D01*
G01X-968400Y909574D01*
G01X-966775Y910590D01*
G01X-965200Y911708D01*
G01X-963778Y912978D01*
G01X-962508Y914400D01*
G01X-961390Y915975D01*
G01X-960374Y917600D01*
G01X-959510Y919328D01*
G01X-958850Y921156D01*
G01X-958342Y923087D01*
G01X-958088Y925068D01*
G01X-957936Y927100D01*
G01X-958088Y929132D01*
G01X-958342Y931113D01*
G01X-958850Y933044D01*
G01X-959510Y934872D01*
G01X-960374Y936600D01*
G01X-961390Y938225D01*
G01X-962508Y939800D01*
G01X-963778Y941222D01*
G01X-965200Y942492D01*
G01X-966775Y943610D01*
G01X-968400Y944626D01*
G01X-970128Y945490D01*
G01X-971956Y946150D01*
G01X-973887Y946658D01*
G01X-975868Y946912D01*
G37*
G36*
G01X-977900Y4490517D02*
G01X-979932Y4490415D01*
G01X-981913Y4490110D01*
G01X-983844Y4489602D01*
G01X-985672Y4488942D01*
G01X-987400Y4488078D01*
G01X-989025Y4487113D01*
G01X-990600Y4485945D01*
G01X-992022Y4484675D01*
G01X-993292Y4483252D01*
G01X-994410Y4481728D01*
G01X-995426Y4480052D01*
G01X-996290Y4478325D01*
G01X-996950Y4476496D01*
G01X-997458Y4474566D01*
G01X-997712Y4472584D01*
G01X-997864Y4470552D01*
G01X-994512D01*
G01X-994410Y4472229D01*
G01X-994156Y4473905D01*
G01X-993750Y4475480D01*
G01X-993191Y4477004D01*
G01X-992530Y4478477D01*
G01X-991667Y4479849D01*
G01X-990702Y4481119D01*
G01X-989635Y4482287D01*
G01X-988466Y4483354D01*
G01X-987196Y4484319D01*
G01X-985825Y4485183D01*
G01X-984352Y4485843D01*
G01X-982828Y4486402D01*
G01X-981253Y4486859D01*
G01X-979576Y4487062D01*
G01X-977900Y4487164D01*
G01X-976224Y4487062D01*
G01X-974547Y4486859D01*
G01X-972972Y4486402D01*
G01X-971448Y4485843D01*
G01X-969975Y4485183D01*
G01X-968604Y4484319D01*
G01X-967334Y4483354D01*
G01X-966165Y4482287D01*
G01X-965098Y4481119D01*
G01X-964133Y4479849D01*
G01X-963270Y4478477D01*
G01X-962609Y4477004D01*
G01X-962050Y4475480D01*
G01X-961644Y4473905D01*
G01X-961390Y4472229D01*
G01X-961288Y4470552D01*
G01X-961390Y4468876D01*
G01X-961644Y4467200D01*
G01X-962050Y4465625D01*
G01X-962609Y4464101D01*
G01X-963270Y4462628D01*
G01X-964133Y4461256D01*
G01X-965098Y4459986D01*
G01X-966165Y4458818D01*
G01X-967334Y4457751D01*
G01X-968604Y4456786D01*
G01X-969975Y4455973D01*
G01X-971448Y4455262D01*
G01X-972972Y4454703D01*
G01X-974547Y4454296D01*
G01X-976224Y4454042D01*
G01X-977900Y4453941D01*
G01X-979576Y4454042D01*
G01X-981253Y4454296D01*
G01X-982828Y4454703D01*
G01X-984352Y4455262D01*
G01X-985825Y4455973D01*
G01X-987196Y4456786D01*
G01X-988466Y4457751D01*
G01X-989635Y4458818D01*
G01X-990702Y4459986D01*
G01X-991667Y4461256D01*
G01X-992530Y4462628D01*
G01X-993191Y4464101D01*
G01X-993750Y4465625D01*
G01X-994156Y4467200D01*
G01X-994410Y4468876D01*
G01X-994512Y4470552D01*
G01X-997864D01*
G01X-997712Y4468520D01*
G01X-997458Y4466539D01*
G01X-996950Y4464609D01*
G01X-996290Y4462780D01*
G01X-995426Y4461053D01*
G01X-994410Y4459427D01*
G01X-993292Y4457852D01*
G01X-992022Y4456481D01*
G01X-990600Y4455160D01*
G01X-989025Y4454042D01*
G01X-987400Y4453026D01*
G01X-985672Y4452163D01*
G01X-983844Y4451502D01*
G01X-981913Y4451045D01*
G01X-979932Y4450740D01*
G01X-977900Y4450639D01*
G01X-975868Y4450740D01*
G01X-973887Y4451045D01*
G01X-971956Y4451502D01*
G01X-970128Y4452163D01*
G01X-968400Y4453026D01*
G01X-966775Y4454042D01*
G01X-965200Y4455160D01*
G01X-963778Y4456481D01*
G01X-962508Y4457852D01*
G01X-961390Y4459427D01*
G01X-960374Y4461053D01*
G01X-959510Y4462780D01*
G01X-958850Y4464609D01*
G01X-958342Y4466539D01*
G01X-958088Y4468520D01*
G01X-957936Y4470552D01*
G01X-958088Y4472584D01*
G01X-958342Y4474566D01*
G01X-958850Y4476496D01*
G01X-959510Y4478325D01*
G01X-960374Y4480052D01*
G01X-961390Y4481728D01*
G01X-962508Y4483252D01*
G01X-963778Y4484675D01*
G01X-965200Y4485945D01*
G01X-966775Y4487113D01*
G01X-968400Y4488078D01*
G01X-970128Y4488942D01*
G01X-971956Y4489602D01*
G01X-973887Y4490110D01*
G01X-975868Y4490415D01*
G37*
G36*
G01X-977900Y4236517D02*
G01X-979932Y4236415D01*
G01X-981913Y4236110D01*
G01X-983844Y4235602D01*
G01X-985672Y4234942D01*
G01X-987400Y4234078D01*
G01X-989025Y4233113D01*
G01X-990600Y4231945D01*
G01X-992022Y4230675D01*
G01X-993292Y4229252D01*
G01X-994410Y4227728D01*
G01X-995426Y4226052D01*
G01X-996290Y4224325D01*
G01X-996950Y4222496D01*
G01X-997458Y4220566D01*
G01X-997712Y4218584D01*
G01X-997864Y4216552D01*
G01X-994512D01*
G01X-994410Y4218229D01*
G01X-994156Y4219905D01*
G01X-993750Y4221480D01*
G01X-993191Y4223004D01*
G01X-992530Y4224477D01*
G01X-991667Y4225849D01*
G01X-990702Y4227119D01*
G01X-989635Y4228287D01*
G01X-988466Y4229354D01*
G01X-987196Y4230319D01*
G01X-985825Y4231183D01*
G01X-984352Y4231843D01*
G01X-982828Y4232402D01*
G01X-981253Y4232859D01*
G01X-979576Y4233062D01*
G01X-977900Y4233164D01*
G01X-976224Y4233062D01*
G01X-974547Y4232859D01*
G01X-972972Y4232402D01*
G01X-971448Y4231843D01*
G01X-969975Y4231183D01*
G01X-968604Y4230319D01*
G01X-967334Y4229354D01*
G01X-966165Y4228287D01*
G01X-965098Y4227119D01*
G01X-964133Y4225849D01*
G01X-963270Y4224477D01*
G01X-962609Y4223004D01*
G01X-962050Y4221480D01*
G01X-961644Y4219905D01*
G01X-961390Y4218229D01*
G01X-961288Y4216552D01*
G01X-961390Y4214876D01*
G01X-961644Y4213200D01*
G01X-962050Y4211625D01*
G01X-962609Y4210101D01*
G01X-963270Y4208628D01*
G01X-964133Y4207256D01*
G01X-965098Y4205986D01*
G01X-966165Y4204818D01*
G01X-967334Y4203751D01*
G01X-968604Y4202786D01*
G01X-969975Y4201973D01*
G01X-971448Y4201262D01*
G01X-972972Y4200703D01*
G01X-974547Y4200296D01*
G01X-976224Y4200042D01*
G01X-977900Y4199941D01*
G01X-979576Y4200042D01*
G01X-981253Y4200296D01*
G01X-982828Y4200703D01*
G01X-984352Y4201262D01*
G01X-985825Y4201973D01*
G01X-987196Y4202786D01*
G01X-988466Y4203751D01*
G01X-989635Y4204818D01*
G01X-990702Y4205986D01*
G01X-991667Y4207256D01*
G01X-992530Y4208628D01*
G01X-993191Y4210101D01*
G01X-993750Y4211625D01*
G01X-994156Y4213200D01*
G01X-994410Y4214876D01*
G01X-994512Y4216552D01*
G01X-997864D01*
G01X-997712Y4214520D01*
G01X-997458Y4212539D01*
G01X-996950Y4210609D01*
G01X-996290Y4208780D01*
G01X-995426Y4207053D01*
G01X-994410Y4205427D01*
G01X-993292Y4203852D01*
G01X-992022Y4202481D01*
G01X-990600Y4201160D01*
G01X-989025Y4200042D01*
G01X-987400Y4199026D01*
G01X-985672Y4198163D01*
G01X-983844Y4197502D01*
G01X-981913Y4197045D01*
G01X-979932Y4196740D01*
G01X-977900Y4196639D01*
G01X-975868Y4196740D01*
G01X-973887Y4197045D01*
G01X-971956Y4197502D01*
G01X-970128Y4198163D01*
G01X-968400Y4199026D01*
G01X-966775Y4200042D01*
G01X-965200Y4201160D01*
G01X-963778Y4202481D01*
G01X-962508Y4203852D01*
G01X-961390Y4205427D01*
G01X-960374Y4207053D01*
G01X-959510Y4208780D01*
G01X-958850Y4210609D01*
G01X-958342Y4212539D01*
G01X-958088Y4214520D01*
G01X-957936Y4216552D01*
G01X-958088Y4218584D01*
G01X-958342Y4220566D01*
G01X-958850Y4222496D01*
G01X-959510Y4224325D01*
G01X-960374Y4226052D01*
G01X-961390Y4227728D01*
G01X-962508Y4229252D01*
G01X-963778Y4230675D01*
G01X-965200Y4231945D01*
G01X-966775Y4233113D01*
G01X-968400Y4234078D01*
G01X-970128Y4234942D01*
G01X-971956Y4235602D01*
G01X-973887Y4236110D01*
G01X-975868Y4236415D01*
G37*
G36*
G01X-977900Y3982517D02*
G01X-979932Y3982415D01*
G01X-981913Y3982110D01*
G01X-983844Y3981602D01*
G01X-985672Y3980942D01*
G01X-987400Y3980078D01*
G01X-989025Y3979113D01*
G01X-990600Y3977945D01*
G01X-992022Y3976675D01*
G01X-993292Y3975252D01*
G01X-994410Y3973728D01*
G01X-995426Y3972052D01*
G01X-996290Y3970325D01*
G01X-996950Y3968496D01*
G01X-997458Y3966566D01*
G01X-997712Y3964584D01*
G01X-997864Y3962552D01*
G01X-994512D01*
G01X-994410Y3964229D01*
G01X-994156Y3965905D01*
G01X-993750Y3967480D01*
G01X-993191Y3969004D01*
G01X-992530Y3970477D01*
G01X-991667Y3971849D01*
G01X-990702Y3973119D01*
G01X-989635Y3974287D01*
G01X-988466Y3975354D01*
G01X-987196Y3976319D01*
G01X-985825Y3977183D01*
G01X-984352Y3977843D01*
G01X-982828Y3978402D01*
G01X-981253Y3978859D01*
G01X-979576Y3979062D01*
G01X-977900Y3979164D01*
G01X-976224Y3979062D01*
G01X-974547Y3978859D01*
G01X-972972Y3978402D01*
G01X-971448Y3977843D01*
G01X-969975Y3977183D01*
G01X-968604Y3976319D01*
G01X-967334Y3975354D01*
G01X-966165Y3974287D01*
G01X-965098Y3973119D01*
G01X-964133Y3971849D01*
G01X-963270Y3970477D01*
G01X-962609Y3969004D01*
G01X-962050Y3967480D01*
G01X-961644Y3965905D01*
G01X-961390Y3964229D01*
G01X-961288Y3962552D01*
G01X-961390Y3960876D01*
G01X-961644Y3959200D01*
G01X-962050Y3957625D01*
G01X-962609Y3956101D01*
G01X-963270Y3954628D01*
G01X-964133Y3953256D01*
G01X-965098Y3951986D01*
G01X-966165Y3950818D01*
G01X-967334Y3949751D01*
G01X-968604Y3948786D01*
G01X-969975Y3947973D01*
G01X-971448Y3947262D01*
G01X-972972Y3946703D01*
G01X-974547Y3946296D01*
G01X-976224Y3946042D01*
G01X-977900Y3945941D01*
G01X-979576Y3946042D01*
G01X-981253Y3946296D01*
G01X-982828Y3946703D01*
G01X-984352Y3947262D01*
G01X-985825Y3947973D01*
G01X-987196Y3948786D01*
G01X-988466Y3949751D01*
G01X-989635Y3950818D01*
G01X-990702Y3951986D01*
G01X-991667Y3953256D01*
G01X-992530Y3954628D01*
G01X-993191Y3956101D01*
G01X-993750Y3957625D01*
G01X-994156Y3959200D01*
G01X-994410Y3960876D01*
G01X-994512Y3962552D01*
G01X-997864D01*
G01X-997712Y3960520D01*
G01X-997458Y3958539D01*
G01X-996950Y3956609D01*
G01X-996290Y3954780D01*
G01X-995426Y3953053D01*
G01X-994410Y3951427D01*
G01X-993292Y3949852D01*
G01X-992022Y3948481D01*
G01X-990600Y3947160D01*
G01X-989025Y3946042D01*
G01X-987400Y3945026D01*
G01X-985672Y3944163D01*
G01X-983844Y3943502D01*
G01X-981913Y3943045D01*
G01X-979932Y3942740D01*
G01X-977900Y3942639D01*
G01X-975868Y3942740D01*
G01X-973887Y3943045D01*
G01X-971956Y3943502D01*
G01X-970128Y3944163D01*
G01X-968400Y3945026D01*
G01X-966775Y3946042D01*
G01X-965200Y3947160D01*
G01X-963778Y3948481D01*
G01X-962508Y3949852D01*
G01X-961390Y3951427D01*
G01X-960374Y3953053D01*
G01X-959510Y3954780D01*
G01X-958850Y3956609D01*
G01X-958342Y3958539D01*
G01X-958088Y3960520D01*
G01X-957936Y3962552D01*
G01X-958088Y3964584D01*
G01X-958342Y3966566D01*
G01X-958850Y3968496D01*
G01X-959510Y3970325D01*
G01X-960374Y3972052D01*
G01X-961390Y3973728D01*
G01X-962508Y3975252D01*
G01X-963778Y3976675D01*
G01X-965200Y3977945D01*
G01X-966775Y3979113D01*
G01X-968400Y3980078D01*
G01X-970128Y3980942D01*
G01X-971956Y3981602D01*
G01X-973887Y3982110D01*
G01X-975868Y3982415D01*
G37*
G36*
G01X-977900Y3724300D02*
G01X-979932Y3724199D01*
G01X-981913Y3723894D01*
G01X-983844Y3723386D01*
G01X-985672Y3722726D01*
G01X-987400Y3721862D01*
G01X-989025Y3720897D01*
G01X-990600Y3719728D01*
G01X-992022Y3718458D01*
G01X-993292Y3717036D01*
G01X-994410Y3715512D01*
G01X-995426Y3713836D01*
G01X-996290Y3712108D01*
G01X-996950Y3710280D01*
G01X-997458Y3708349D01*
G01X-997712Y3706368D01*
G01X-997864Y3704336D01*
G01X-994512D01*
G01X-994410Y3706063D01*
G01X-994156Y3707689D01*
G01X-993750Y3709264D01*
G01X-993191Y3710788D01*
G01X-992530Y3712261D01*
G01X-991667Y3713632D01*
G01X-990702Y3714902D01*
G01X-989635Y3716071D01*
G01X-988466Y3717188D01*
G01X-987196Y3718103D01*
G01X-985825Y3718966D01*
G01X-984352Y3719678D01*
G01X-982828Y3720236D01*
G01X-981253Y3720643D01*
G01X-979576Y3720897D01*
G01X-977900Y3720948D01*
G01X-976224Y3720897D01*
G01X-974547Y3720643D01*
G01X-972972Y3720236D01*
G01X-971448Y3719678D01*
G01X-969975Y3718966D01*
G01X-968604Y3718103D01*
G01X-967334Y3717188D01*
G01X-966165Y3716071D01*
G01X-965098Y3714902D01*
G01X-964133Y3713632D01*
G01X-963270Y3712261D01*
G01X-962609Y3710788D01*
G01X-962050Y3709264D01*
G01X-961644Y3707689D01*
G01X-961390Y3706063D01*
G01X-961288Y3704336D01*
G01X-961390Y3702660D01*
G01X-961644Y3700983D01*
G01X-962050Y3699408D01*
G01X-962609Y3697884D01*
G01X-963270Y3696411D01*
G01X-964133Y3695090D01*
G01X-965098Y3693770D01*
G01X-966165Y3692601D01*
G01X-967334Y3691534D01*
G01X-968604Y3690569D01*
G01X-969975Y3689756D01*
G01X-971448Y3689045D01*
G01X-972972Y3688486D01*
G01X-974547Y3688080D01*
G01X-976224Y3687826D01*
G01X-977900Y3687724D01*
G01X-979576Y3687826D01*
G01X-981253Y3688080D01*
G01X-982828Y3688486D01*
G01X-984352Y3689045D01*
G01X-985825Y3689756D01*
G01X-987196Y3690569D01*
G01X-988466Y3691534D01*
G01X-989635Y3692601D01*
G01X-990702Y3693770D01*
G01X-991667Y3695090D01*
G01X-992530Y3696411D01*
G01X-993191Y3697884D01*
G01X-993750Y3699408D01*
G01X-994156Y3700983D01*
G01X-994410Y3702660D01*
G01X-994512Y3704336D01*
G01X-997864D01*
G01X-997712Y3702304D01*
G01X-997458Y3700323D01*
G01X-996950Y3698443D01*
G01X-996290Y3696564D01*
G01X-995426Y3694836D01*
G01X-994410Y3693211D01*
G01X-993292Y3691687D01*
G01X-992022Y3690264D01*
G01X-990600Y3688944D01*
G01X-989025Y3687826D01*
G01X-987400Y3686810D01*
G01X-985672Y3685997D01*
G01X-983844Y3685286D01*
G01X-981913Y3684829D01*
G01X-979932Y3684524D01*
G01X-977900Y3684422D01*
G01X-975868Y3684524D01*
G01X-973887Y3684829D01*
G01X-971956Y3685286D01*
G01X-970128Y3685997D01*
G01X-968400Y3686810D01*
G01X-966775Y3687826D01*
G01X-965200Y3688944D01*
G01X-963778Y3690264D01*
G01X-962508Y3691687D01*
G01X-961390Y3693211D01*
G01X-960374Y3694836D01*
G01X-959510Y3696564D01*
G01X-958850Y3698443D01*
G01X-958342Y3700323D01*
G01X-958088Y3702304D01*
G01X-957936Y3704336D01*
G01X-958088Y3706368D01*
G01X-958342Y3708349D01*
G01X-958850Y3710280D01*
G01X-959510Y3712108D01*
G01X-960374Y3713836D01*
G01X-961390Y3715512D01*
G01X-962508Y3717036D01*
G01X-963778Y3718458D01*
G01X-965200Y3719728D01*
G01X-966775Y3720897D01*
G01X-968400Y3721862D01*
G01X-970128Y3722726D01*
G01X-971956Y3723386D01*
G01X-973887Y3723894D01*
G01X-975868Y3724199D01*
G37*
G36*
G01X-977900Y3474517D02*
G01X-979932Y3474415D01*
G01X-981913Y3474110D01*
G01X-983844Y3473602D01*
G01X-985672Y3472942D01*
G01X-987400Y3472078D01*
G01X-989025Y3471113D01*
G01X-990600Y3469945D01*
G01X-992022Y3468675D01*
G01X-993292Y3467252D01*
G01X-994410Y3465728D01*
G01X-995426Y3464052D01*
G01X-996290Y3462325D01*
G01X-996950Y3460496D01*
G01X-997458Y3458566D01*
G01X-997712Y3456584D01*
G01X-997864Y3454552D01*
G01X-994512D01*
G01X-994410Y3456229D01*
G01X-994156Y3457905D01*
G01X-993750Y3459480D01*
G01X-993191Y3461004D01*
G01X-992530Y3462477D01*
G01X-991667Y3463849D01*
G01X-990702Y3465119D01*
G01X-989635Y3466287D01*
G01X-988466Y3467354D01*
G01X-987196Y3468319D01*
G01X-985825Y3469183D01*
G01X-984352Y3469843D01*
G01X-982828Y3470402D01*
G01X-981253Y3470859D01*
G01X-979576Y3471062D01*
G01X-977900Y3471164D01*
G01X-976224Y3471062D01*
G01X-974547Y3470859D01*
G01X-972972Y3470402D01*
G01X-971448Y3469843D01*
G01X-969975Y3469183D01*
G01X-968604Y3468319D01*
G01X-967334Y3467354D01*
G01X-966165Y3466287D01*
G01X-965098Y3465119D01*
G01X-964133Y3463849D01*
G01X-963270Y3462477D01*
G01X-962609Y3461004D01*
G01X-962050Y3459480D01*
G01X-961644Y3457905D01*
G01X-961390Y3456229D01*
G01X-961288Y3454552D01*
G01X-961390Y3452876D01*
G01X-961644Y3451200D01*
G01X-962050Y3449625D01*
G01X-962609Y3448101D01*
G01X-963270Y3446628D01*
G01X-964133Y3445256D01*
G01X-965098Y3443986D01*
G01X-966165Y3442818D01*
G01X-967334Y3441751D01*
G01X-968604Y3440786D01*
G01X-969975Y3439973D01*
G01X-971448Y3439262D01*
G01X-972972Y3438703D01*
G01X-974547Y3438296D01*
G01X-976224Y3438042D01*
G01X-977900Y3437941D01*
G01X-979576Y3438042D01*
G01X-981253Y3438296D01*
G01X-982828Y3438703D01*
G01X-984352Y3439262D01*
G01X-985825Y3439973D01*
G01X-987196Y3440786D01*
G01X-988466Y3441751D01*
G01X-989635Y3442818D01*
G01X-990702Y3443986D01*
G01X-991667Y3445256D01*
G01X-992530Y3446628D01*
G01X-993191Y3448101D01*
G01X-993750Y3449625D01*
G01X-994156Y3451200D01*
G01X-994410Y3452876D01*
G01X-994512Y3454552D01*
G01X-997864D01*
G01X-997712Y3452520D01*
G01X-997458Y3450539D01*
G01X-996950Y3448609D01*
G01X-996290Y3446780D01*
G01X-995426Y3445053D01*
G01X-994410Y3443427D01*
G01X-993292Y3441852D01*
G01X-992022Y3440481D01*
G01X-990600Y3439160D01*
G01X-989025Y3438042D01*
G01X-987400Y3437026D01*
G01X-985672Y3436163D01*
G01X-983844Y3435502D01*
G01X-981913Y3435045D01*
G01X-979932Y3434740D01*
G01X-977900Y3434639D01*
G01X-975868Y3434740D01*
G01X-973887Y3435045D01*
G01X-971956Y3435502D01*
G01X-970128Y3436163D01*
G01X-968400Y3437026D01*
G01X-966775Y3438042D01*
G01X-965200Y3439160D01*
G01X-963778Y3440481D01*
G01X-962508Y3441852D01*
G01X-961390Y3443427D01*
G01X-960374Y3445053D01*
G01X-959510Y3446780D01*
G01X-958850Y3448609D01*
G01X-958342Y3450539D01*
G01X-958088Y3452520D01*
G01X-957936Y3454552D01*
G01X-958088Y3456584D01*
G01X-958342Y3458566D01*
G01X-958850Y3460496D01*
G01X-959510Y3462325D01*
G01X-960374Y3464052D01*
G01X-961390Y3465728D01*
G01X-962508Y3467252D01*
G01X-963778Y3468675D01*
G01X-965200Y3469945D01*
G01X-966775Y3471113D01*
G01X-968400Y3472078D01*
G01X-970128Y3472942D01*
G01X-971956Y3473602D01*
G01X-973887Y3474110D01*
G01X-975868Y3474415D01*
G37*
G36*
G01X-977900Y3220517D02*
G01X-979932Y3220415D01*
G01X-981913Y3220110D01*
G01X-983844Y3219602D01*
G01X-985672Y3218942D01*
G01X-987400Y3218078D01*
G01X-989025Y3217113D01*
G01X-990600Y3215945D01*
G01X-992022Y3214675D01*
G01X-993292Y3213252D01*
G01X-994410Y3211728D01*
G01X-995426Y3210052D01*
G01X-996290Y3208325D01*
G01X-996950Y3206496D01*
G01X-997458Y3204566D01*
G01X-997712Y3202584D01*
G01X-997864Y3200552D01*
G01X-994512D01*
G01X-994410Y3202229D01*
G01X-994156Y3203905D01*
G01X-993750Y3205480D01*
G01X-993191Y3207004D01*
G01X-992530Y3208477D01*
G01X-991667Y3209849D01*
G01X-990702Y3211119D01*
G01X-989635Y3212287D01*
G01X-988466Y3213354D01*
G01X-987196Y3214319D01*
G01X-985825Y3215183D01*
G01X-984352Y3215843D01*
G01X-982828Y3216402D01*
G01X-981253Y3216859D01*
G01X-979576Y3217062D01*
G01X-977900Y3217164D01*
G01X-976224Y3217062D01*
G01X-974547Y3216859D01*
G01X-972972Y3216402D01*
G01X-971448Y3215843D01*
G01X-969975Y3215183D01*
G01X-968604Y3214319D01*
G01X-967334Y3213354D01*
G01X-966165Y3212287D01*
G01X-965098Y3211119D01*
G01X-964133Y3209849D01*
G01X-963270Y3208477D01*
G01X-962609Y3207004D01*
G01X-962050Y3205480D01*
G01X-961644Y3203905D01*
G01X-961390Y3202229D01*
G01X-961288Y3200552D01*
G01X-961390Y3198876D01*
G01X-961644Y3197200D01*
G01X-962050Y3195625D01*
G01X-962609Y3194101D01*
G01X-963270Y3192628D01*
G01X-964133Y3191256D01*
G01X-965098Y3189986D01*
G01X-966165Y3188818D01*
G01X-967334Y3187751D01*
G01X-968604Y3186786D01*
G01X-969975Y3185973D01*
G01X-971448Y3185262D01*
G01X-972972Y3184703D01*
G01X-974547Y3184296D01*
G01X-976224Y3184042D01*
G01X-977900Y3183941D01*
G01X-979576Y3184042D01*
G01X-981253Y3184296D01*
G01X-982828Y3184703D01*
G01X-984352Y3185262D01*
G01X-985825Y3185973D01*
G01X-987196Y3186786D01*
G01X-988466Y3187751D01*
G01X-989635Y3188818D01*
G01X-990702Y3189986D01*
G01X-991667Y3191256D01*
G01X-992530Y3192628D01*
G01X-993191Y3194101D01*
G01X-993750Y3195625D01*
G01X-994156Y3197200D01*
G01X-994410Y3198876D01*
G01X-994512Y3200552D01*
G01X-997864D01*
G01X-997712Y3198520D01*
G01X-997458Y3196539D01*
G01X-996950Y3194609D01*
G01X-996290Y3192780D01*
G01X-995426Y3191053D01*
G01X-994410Y3189427D01*
G01X-993292Y3187852D01*
G01X-992022Y3186481D01*
G01X-990600Y3185160D01*
G01X-989025Y3184042D01*
G01X-987400Y3183026D01*
G01X-985672Y3182163D01*
G01X-983844Y3181502D01*
G01X-981913Y3181045D01*
G01X-979932Y3180740D01*
G01X-977900Y3180639D01*
G01X-975868Y3180740D01*
G01X-973887Y3181045D01*
G01X-971956Y3181502D01*
G01X-970128Y3182163D01*
G01X-968400Y3183026D01*
G01X-966775Y3184042D01*
G01X-965200Y3185160D01*
G01X-963778Y3186481D01*
G01X-962508Y3187852D01*
G01X-961390Y3189427D01*
G01X-960374Y3191053D01*
G01X-959510Y3192780D01*
G01X-958850Y3194609D01*
G01X-958342Y3196539D01*
G01X-958088Y3198520D01*
G01X-957936Y3200552D01*
G01X-958088Y3202584D01*
G01X-958342Y3204566D01*
G01X-958850Y3206496D01*
G01X-959510Y3208325D01*
G01X-960374Y3210052D01*
G01X-961390Y3211728D01*
G01X-962508Y3213252D01*
G01X-963778Y3214675D01*
G01X-965200Y3215945D01*
G01X-966775Y3217113D01*
G01X-968400Y3218078D01*
G01X-970128Y3218942D01*
G01X-971956Y3219602D01*
G01X-973887Y3220110D01*
G01X-975868Y3220415D01*
G37*
G36*
G01X-977900Y2966517D02*
G01X-979932Y2966415D01*
G01X-981913Y2966110D01*
G01X-983844Y2965602D01*
G01X-985672Y2964942D01*
G01X-987400Y2964078D01*
G01X-989025Y2963113D01*
G01X-990600Y2961945D01*
G01X-992022Y2960675D01*
G01X-993292Y2959252D01*
G01X-994410Y2957728D01*
G01X-995426Y2956052D01*
G01X-996290Y2954325D01*
G01X-996950Y2952496D01*
G01X-997458Y2950566D01*
G01X-997712Y2948584D01*
G01X-997864Y2946552D01*
G01X-994512D01*
G01X-994410Y2948229D01*
G01X-994156Y2949905D01*
G01X-993750Y2951480D01*
G01X-993191Y2953004D01*
G01X-992530Y2954477D01*
G01X-991667Y2955849D01*
G01X-990702Y2957119D01*
G01X-989635Y2958287D01*
G01X-988466Y2959354D01*
G01X-987196Y2960319D01*
G01X-985825Y2961183D01*
G01X-984352Y2961843D01*
G01X-982828Y2962402D01*
G01X-981253Y2962859D01*
G01X-979576Y2963062D01*
G01X-977900Y2963164D01*
G01X-976224Y2963062D01*
G01X-974547Y2962859D01*
G01X-972972Y2962402D01*
G01X-971448Y2961843D01*
G01X-969975Y2961183D01*
G01X-968604Y2960319D01*
G01X-967334Y2959354D01*
G01X-966165Y2958287D01*
G01X-965098Y2957119D01*
G01X-964133Y2955849D01*
G01X-963270Y2954477D01*
G01X-962609Y2953004D01*
G01X-962050Y2951480D01*
G01X-961644Y2949905D01*
G01X-961390Y2948229D01*
G01X-961288Y2946552D01*
G01X-961390Y2944876D01*
G01X-961644Y2943200D01*
G01X-962050Y2941625D01*
G01X-962609Y2940101D01*
G01X-963270Y2938628D01*
G01X-964133Y2937256D01*
G01X-965098Y2935986D01*
G01X-966165Y2934818D01*
G01X-967334Y2933751D01*
G01X-968604Y2932786D01*
G01X-969975Y2931973D01*
G01X-971448Y2931262D01*
G01X-972972Y2930703D01*
G01X-974547Y2930296D01*
G01X-976224Y2930042D01*
G01X-977900Y2929941D01*
G01X-979576Y2930042D01*
G01X-981253Y2930296D01*
G01X-982828Y2930703D01*
G01X-984352Y2931262D01*
G01X-985825Y2931973D01*
G01X-987196Y2932786D01*
G01X-988466Y2933751D01*
G01X-989635Y2934818D01*
G01X-990702Y2935986D01*
G01X-991667Y2937256D01*
G01X-992530Y2938628D01*
G01X-993191Y2940101D01*
G01X-993750Y2941625D01*
G01X-994156Y2943200D01*
G01X-994410Y2944876D01*
G01X-994512Y2946552D01*
G01X-997864D01*
G01X-997712Y2944520D01*
G01X-997458Y2942539D01*
G01X-996950Y2940609D01*
G01X-996290Y2938780D01*
G01X-995426Y2937053D01*
G01X-994410Y2935427D01*
G01X-993292Y2933852D01*
G01X-992022Y2932481D01*
G01X-990600Y2931160D01*
G01X-989025Y2930042D01*
G01X-987400Y2929026D01*
G01X-985672Y2928163D01*
G01X-983844Y2927502D01*
G01X-981913Y2927045D01*
G01X-979932Y2926740D01*
G01X-977900Y2926639D01*
G01X-975868Y2926740D01*
G01X-973887Y2927045D01*
G01X-971956Y2927502D01*
G01X-970128Y2928163D01*
G01X-968400Y2929026D01*
G01X-966775Y2930042D01*
G01X-965200Y2931160D01*
G01X-963778Y2932481D01*
G01X-962508Y2933852D01*
G01X-961390Y2935427D01*
G01X-960374Y2937053D01*
G01X-959510Y2938780D01*
G01X-958850Y2940609D01*
G01X-958342Y2942539D01*
G01X-958088Y2944520D01*
G01X-957936Y2946552D01*
G01X-958088Y2948584D01*
G01X-958342Y2950566D01*
G01X-958850Y2952496D01*
G01X-959510Y2954325D01*
G01X-960374Y2956052D01*
G01X-961390Y2957728D01*
G01X-962508Y2959252D01*
G01X-963778Y2960675D01*
G01X-965200Y2961945D01*
G01X-966775Y2963113D01*
G01X-968400Y2964078D01*
G01X-970128Y2964942D01*
G01X-971956Y2965602D01*
G01X-973887Y2966110D01*
G01X-975868Y2966415D01*
G37*
G36*
G01X-977900Y2712517D02*
G01X-979932Y2712415D01*
G01X-981913Y2712110D01*
G01X-983844Y2711602D01*
G01X-985672Y2710942D01*
G01X-987400Y2710078D01*
G01X-989025Y2709113D01*
G01X-990600Y2707945D01*
G01X-992022Y2706675D01*
G01X-993292Y2705252D01*
G01X-994410Y2703728D01*
G01X-995426Y2702052D01*
G01X-996290Y2700325D01*
G01X-996950Y2698496D01*
G01X-997458Y2696566D01*
G01X-997712Y2694584D01*
G01X-997864Y2692552D01*
G01X-994512D01*
G01X-994410Y2694229D01*
G01X-994156Y2695905D01*
G01X-993750Y2697480D01*
G01X-993191Y2699004D01*
G01X-992530Y2700477D01*
G01X-991667Y2701849D01*
G01X-990702Y2703119D01*
G01X-989635Y2704287D01*
G01X-988466Y2705354D01*
G01X-987196Y2706319D01*
G01X-985825Y2707183D01*
G01X-984352Y2707843D01*
G01X-982828Y2708402D01*
G01X-981253Y2708859D01*
G01X-979576Y2709062D01*
G01X-977900Y2709164D01*
G01X-976224Y2709062D01*
G01X-974547Y2708859D01*
G01X-972972Y2708402D01*
G01X-971448Y2707843D01*
G01X-969975Y2707183D01*
G01X-968604Y2706319D01*
G01X-967334Y2705354D01*
G01X-966165Y2704287D01*
G01X-965098Y2703119D01*
G01X-964133Y2701849D01*
G01X-963270Y2700477D01*
G01X-962609Y2699004D01*
G01X-962050Y2697480D01*
G01X-961644Y2695905D01*
G01X-961390Y2694229D01*
G01X-961288Y2692552D01*
G01X-961390Y2690876D01*
G01X-961644Y2689200D01*
G01X-962050Y2687625D01*
G01X-962609Y2686101D01*
G01X-963270Y2684628D01*
G01X-964133Y2683256D01*
G01X-965098Y2681986D01*
G01X-966165Y2680818D01*
G01X-967334Y2679751D01*
G01X-968604Y2678786D01*
G01X-969975Y2677973D01*
G01X-971448Y2677262D01*
G01X-972972Y2676703D01*
G01X-974547Y2676296D01*
G01X-976224Y2676042D01*
G01X-977900Y2675941D01*
G01X-979576Y2676042D01*
G01X-981253Y2676296D01*
G01X-982828Y2676703D01*
G01X-984352Y2677262D01*
G01X-985825Y2677973D01*
G01X-987196Y2678786D01*
G01X-988466Y2679751D01*
G01X-989635Y2680818D01*
G01X-990702Y2681986D01*
G01X-991667Y2683256D01*
G01X-992530Y2684628D01*
G01X-993191Y2686101D01*
G01X-993750Y2687625D01*
G01X-994156Y2689200D01*
G01X-994410Y2690876D01*
G01X-994512Y2692552D01*
G01X-997864D01*
G01X-997712Y2690520D01*
G01X-997458Y2688539D01*
G01X-996950Y2686609D01*
G01X-996290Y2684780D01*
G01X-995426Y2683053D01*
G01X-994410Y2681427D01*
G01X-993292Y2679852D01*
G01X-992022Y2678481D01*
G01X-990600Y2677160D01*
G01X-989025Y2676042D01*
G01X-987400Y2675026D01*
G01X-985672Y2674163D01*
G01X-983844Y2673502D01*
G01X-981913Y2673045D01*
G01X-979932Y2672740D01*
G01X-977900Y2672639D01*
G01X-975868Y2672740D01*
G01X-973887Y2673045D01*
G01X-971956Y2673502D01*
G01X-970128Y2674163D01*
G01X-968400Y2675026D01*
G01X-966775Y2676042D01*
G01X-965200Y2677160D01*
G01X-963778Y2678481D01*
G01X-962508Y2679852D01*
G01X-961390Y2681427D01*
G01X-960374Y2683053D01*
G01X-959510Y2684780D01*
G01X-958850Y2686609D01*
G01X-958342Y2688539D01*
G01X-958088Y2690520D01*
G01X-957936Y2692552D01*
G01X-958088Y2694584D01*
G01X-958342Y2696566D01*
G01X-958850Y2698496D01*
G01X-959510Y2700325D01*
G01X-960374Y2702052D01*
G01X-961390Y2703728D01*
G01X-962508Y2705252D01*
G01X-963778Y2706675D01*
G01X-965200Y2707945D01*
G01X-966775Y2709113D01*
G01X-968400Y2710078D01*
G01X-970128Y2710942D01*
G01X-971956Y2711602D01*
G01X-973887Y2712110D01*
G01X-975868Y2712415D01*
G37*
G36*
G01X-977900Y2458517D02*
G01X-979932Y2458415D01*
G01X-981913Y2458110D01*
G01X-983844Y2457602D01*
G01X-985672Y2456942D01*
G01X-987400Y2456078D01*
G01X-989025Y2455113D01*
G01X-990600Y2453945D01*
G01X-992022Y2452675D01*
G01X-993292Y2451252D01*
G01X-994410Y2449728D01*
G01X-995426Y2448052D01*
G01X-996290Y2446325D01*
G01X-996950Y2444496D01*
G01X-997458Y2442566D01*
G01X-997712Y2440584D01*
G01X-997864Y2438552D01*
G01X-994512D01*
G01X-994410Y2440229D01*
G01X-994156Y2441905D01*
G01X-993750Y2443480D01*
G01X-993191Y2445004D01*
G01X-992530Y2446477D01*
G01X-991667Y2447849D01*
G01X-990702Y2449119D01*
G01X-989635Y2450287D01*
G01X-988466Y2451354D01*
G01X-987196Y2452319D01*
G01X-985825Y2453183D01*
G01X-984352Y2453843D01*
G01X-982828Y2454402D01*
G01X-981253Y2454859D01*
G01X-979576Y2455062D01*
G01X-977900Y2455164D01*
G01X-976224Y2455062D01*
G01X-974547Y2454859D01*
G01X-972972Y2454402D01*
G01X-971448Y2453843D01*
G01X-969975Y2453183D01*
G01X-968604Y2452319D01*
G01X-967334Y2451354D01*
G01X-966165Y2450287D01*
G01X-965098Y2449119D01*
G01X-964133Y2447849D01*
G01X-963270Y2446477D01*
G01X-962609Y2445004D01*
G01X-962050Y2443480D01*
G01X-961644Y2441905D01*
G01X-961390Y2440229D01*
G01X-961288Y2438552D01*
G01X-961390Y2436876D01*
G01X-961644Y2435200D01*
G01X-962050Y2433625D01*
G01X-962609Y2432101D01*
G01X-963270Y2430628D01*
G01X-964133Y2429256D01*
G01X-965098Y2427986D01*
G01X-966165Y2426818D01*
G01X-967334Y2425751D01*
G01X-968604Y2424786D01*
G01X-969975Y2423973D01*
G01X-971448Y2423262D01*
G01X-972972Y2422703D01*
G01X-974547Y2422296D01*
G01X-976224Y2422042D01*
G01X-977900Y2421941D01*
G01X-979576Y2422042D01*
G01X-981253Y2422296D01*
G01X-982828Y2422703D01*
G01X-984352Y2423262D01*
G01X-985825Y2423973D01*
G01X-987196Y2424786D01*
G01X-988466Y2425751D01*
G01X-989635Y2426818D01*
G01X-990702Y2427986D01*
G01X-991667Y2429256D01*
G01X-992530Y2430628D01*
G01X-993191Y2432101D01*
G01X-993750Y2433625D01*
G01X-994156Y2435200D01*
G01X-994410Y2436876D01*
G01X-994512Y2438552D01*
G01X-997864D01*
G01X-997712Y2436520D01*
G01X-997458Y2434539D01*
G01X-996950Y2432609D01*
G01X-996290Y2430780D01*
G01X-995426Y2429053D01*
G01X-994410Y2427427D01*
G01X-993292Y2425852D01*
G01X-992022Y2424481D01*
G01X-990600Y2423160D01*
G01X-989025Y2422042D01*
G01X-987400Y2421026D01*
G01X-985672Y2420163D01*
G01X-983844Y2419502D01*
G01X-981913Y2419045D01*
G01X-979932Y2418740D01*
G01X-977900Y2418639D01*
G01X-975868Y2418740D01*
G01X-973887Y2419045D01*
G01X-971956Y2419502D01*
G01X-970128Y2420163D01*
G01X-968400Y2421026D01*
G01X-966775Y2422042D01*
G01X-965200Y2423160D01*
G01X-963778Y2424481D01*
G01X-962508Y2425852D01*
G01X-961390Y2427427D01*
G01X-960374Y2429053D01*
G01X-959510Y2430780D01*
G01X-958850Y2432609D01*
G01X-958342Y2434539D01*
G01X-958088Y2436520D01*
G01X-957936Y2438552D01*
G01X-958088Y2440584D01*
G01X-958342Y2442566D01*
G01X-958850Y2444496D01*
G01X-959510Y2446325D01*
G01X-960374Y2448052D01*
G01X-961390Y2449728D01*
G01X-962508Y2451252D01*
G01X-963778Y2452675D01*
G01X-965200Y2453945D01*
G01X-966775Y2455113D01*
G01X-968400Y2456078D01*
G01X-970128Y2456942D01*
G01X-971956Y2457602D01*
G01X-973887Y2458110D01*
G01X-975868Y2458415D01*
G37*
G36*
G01X-977900Y2204517D02*
G01X-979932Y2204415D01*
G01X-981913Y2204110D01*
G01X-983844Y2203602D01*
G01X-985672Y2202942D01*
G01X-987400Y2202078D01*
G01X-989025Y2201113D01*
G01X-990600Y2199945D01*
G01X-992022Y2198675D01*
G01X-993292Y2197252D01*
G01X-994410Y2195728D01*
G01X-995426Y2194052D01*
G01X-996290Y2192325D01*
G01X-996950Y2190496D01*
G01X-997458Y2188566D01*
G01X-997712Y2186584D01*
G01X-997864Y2184552D01*
G01X-994512D01*
G01X-994410Y2186229D01*
G01X-994156Y2187905D01*
G01X-993750Y2189480D01*
G01X-993191Y2191004D01*
G01X-992530Y2192477D01*
G01X-991667Y2193849D01*
G01X-990702Y2195119D01*
G01X-989635Y2196287D01*
G01X-988466Y2197354D01*
G01X-987196Y2198319D01*
G01X-985825Y2199183D01*
G01X-984352Y2199843D01*
G01X-982828Y2200402D01*
G01X-981253Y2200859D01*
G01X-979576Y2201062D01*
G01X-977900Y2201164D01*
G01X-976224Y2201062D01*
G01X-974547Y2200859D01*
G01X-972972Y2200402D01*
G01X-971448Y2199843D01*
G01X-969975Y2199183D01*
G01X-968604Y2198319D01*
G01X-967334Y2197354D01*
G01X-966165Y2196287D01*
G01X-965098Y2195119D01*
G01X-964133Y2193849D01*
G01X-963270Y2192477D01*
G01X-962609Y2191004D01*
G01X-962050Y2189480D01*
G01X-961644Y2187905D01*
G01X-961390Y2186229D01*
G01X-961288Y2184552D01*
G01X-961390Y2182876D01*
G01X-961644Y2181200D01*
G01X-962050Y2179625D01*
G01X-962609Y2178101D01*
G01X-963270Y2176628D01*
G01X-964133Y2175256D01*
G01X-965098Y2173986D01*
G01X-966165Y2172818D01*
G01X-967334Y2171751D01*
G01X-968604Y2170786D01*
G01X-969975Y2169973D01*
G01X-971448Y2169262D01*
G01X-972972Y2168703D01*
G01X-974547Y2168296D01*
G01X-976224Y2168042D01*
G01X-977900Y2167941D01*
G01X-979576Y2168042D01*
G01X-981253Y2168296D01*
G01X-982828Y2168703D01*
G01X-984352Y2169262D01*
G01X-985825Y2169973D01*
G01X-987196Y2170786D01*
G01X-988466Y2171751D01*
G01X-989635Y2172818D01*
G01X-990702Y2173986D01*
G01X-991667Y2175256D01*
G01X-992530Y2176628D01*
G01X-993191Y2178101D01*
G01X-993750Y2179625D01*
G01X-994156Y2181200D01*
G01X-994410Y2182876D01*
G01X-994512Y2184552D01*
G01X-997864D01*
G01X-997712Y2182520D01*
G01X-997458Y2180539D01*
G01X-996950Y2178609D01*
G01X-996290Y2176780D01*
G01X-995426Y2175053D01*
G01X-994410Y2173427D01*
G01X-993292Y2171852D01*
G01X-992022Y2170481D01*
G01X-990600Y2169160D01*
G01X-989025Y2168042D01*
G01X-987400Y2167026D01*
G01X-985672Y2166163D01*
G01X-983844Y2165502D01*
G01X-981913Y2165045D01*
G01X-979932Y2164740D01*
G01X-977900Y2164639D01*
G01X-975868Y2164740D01*
G01X-973887Y2165045D01*
G01X-971956Y2165502D01*
G01X-970128Y2166163D01*
G01X-968400Y2167026D01*
G01X-966775Y2168042D01*
G01X-965200Y2169160D01*
G01X-963778Y2170481D01*
G01X-962508Y2171852D01*
G01X-961390Y2173427D01*
G01X-960374Y2175053D01*
G01X-959510Y2176780D01*
G01X-958850Y2178609D01*
G01X-958342Y2180539D01*
G01X-958088Y2182520D01*
G01X-957936Y2184552D01*
G01X-958088Y2186584D01*
G01X-958342Y2188566D01*
G01X-958850Y2190496D01*
G01X-959510Y2192325D01*
G01X-960374Y2194052D01*
G01X-961390Y2195728D01*
G01X-962508Y2197252D01*
G01X-963778Y2198675D01*
G01X-965200Y2199945D01*
G01X-966775Y2201113D01*
G01X-968400Y2202078D01*
G01X-970128Y2202942D01*
G01X-971956Y2203602D01*
G01X-973887Y2204110D01*
G01X-975868Y2204415D01*
G37*
G36*
G01X-977900Y1950517D02*
G01X-979932Y1950415D01*
G01X-981913Y1950110D01*
G01X-983844Y1949602D01*
G01X-985672Y1948942D01*
G01X-987400Y1948078D01*
G01X-989025Y1947113D01*
G01X-990600Y1945945D01*
G01X-992022Y1944675D01*
G01X-993292Y1943252D01*
G01X-994410Y1941728D01*
G01X-995426Y1940052D01*
G01X-996290Y1938325D01*
G01X-996950Y1936496D01*
G01X-997458Y1934566D01*
G01X-997712Y1932584D01*
G01X-997864Y1930552D01*
G01X-994512D01*
G01X-994410Y1932229D01*
G01X-994156Y1933905D01*
G01X-993750Y1935480D01*
G01X-993191Y1937004D01*
G01X-992530Y1938477D01*
G01X-991667Y1939849D01*
G01X-990702Y1941119D01*
G01X-989635Y1942287D01*
G01X-988466Y1943354D01*
G01X-987196Y1944319D01*
G01X-985825Y1945183D01*
G01X-984352Y1945843D01*
G01X-982828Y1946402D01*
G01X-981253Y1946859D01*
G01X-979576Y1947062D01*
G01X-977900Y1947164D01*
G01X-976224Y1947062D01*
G01X-974547Y1946859D01*
G01X-972972Y1946402D01*
G01X-971448Y1945843D01*
G01X-969975Y1945183D01*
G01X-968604Y1944319D01*
G01X-967334Y1943354D01*
G01X-966165Y1942287D01*
G01X-965098Y1941119D01*
G01X-964133Y1939849D01*
G01X-963270Y1938477D01*
G01X-962609Y1937004D01*
G01X-962050Y1935480D01*
G01X-961644Y1933905D01*
G01X-961390Y1932229D01*
G01X-961288Y1930552D01*
G01X-961390Y1928876D01*
G01X-961644Y1927200D01*
G01X-962050Y1925625D01*
G01X-962609Y1924101D01*
G01X-963270Y1922628D01*
G01X-964133Y1921256D01*
G01X-965098Y1919986D01*
G01X-966165Y1918818D01*
G01X-967334Y1917751D01*
G01X-968604Y1916786D01*
G01X-969975Y1915973D01*
G01X-971448Y1915262D01*
G01X-972972Y1914703D01*
G01X-974547Y1914296D01*
G01X-976224Y1914042D01*
G01X-977900Y1913941D01*
G01X-979576Y1914042D01*
G01X-981253Y1914296D01*
G01X-982828Y1914703D01*
G01X-984352Y1915262D01*
G01X-985825Y1915973D01*
G01X-987196Y1916786D01*
G01X-988466Y1917751D01*
G01X-989635Y1918818D01*
G01X-990702Y1919986D01*
G01X-991667Y1921256D01*
G01X-992530Y1922628D01*
G01X-993191Y1924101D01*
G01X-993750Y1925625D01*
G01X-994156Y1927200D01*
G01X-994410Y1928876D01*
G01X-994512Y1930552D01*
G01X-997864D01*
G01X-997712Y1928520D01*
G01X-997458Y1926539D01*
G01X-996950Y1924609D01*
G01X-996290Y1922780D01*
G01X-995426Y1921053D01*
G01X-994410Y1919427D01*
G01X-993292Y1917852D01*
G01X-992022Y1916481D01*
G01X-990600Y1915160D01*
G01X-989025Y1914042D01*
G01X-987400Y1913026D01*
G01X-985672Y1912163D01*
G01X-983844Y1911502D01*
G01X-981913Y1911045D01*
G01X-979932Y1910740D01*
G01X-977900Y1910639D01*
G01X-975868Y1910740D01*
G01X-973887Y1911045D01*
G01X-971956Y1911502D01*
G01X-970128Y1912163D01*
G01X-968400Y1913026D01*
G01X-966775Y1914042D01*
G01X-965200Y1915160D01*
G01X-963778Y1916481D01*
G01X-962508Y1917852D01*
G01X-961390Y1919427D01*
G01X-960374Y1921053D01*
G01X-959510Y1922780D01*
G01X-958850Y1924609D01*
G01X-958342Y1926539D01*
G01X-958088Y1928520D01*
G01X-957936Y1930552D01*
G01X-958088Y1932584D01*
G01X-958342Y1934566D01*
G01X-958850Y1936496D01*
G01X-959510Y1938325D01*
G01X-960374Y1940052D01*
G01X-961390Y1941728D01*
G01X-962508Y1943252D01*
G01X-963778Y1944675D01*
G01X-965200Y1945945D01*
G01X-966775Y1947113D01*
G01X-968400Y1948078D01*
G01X-970128Y1948942D01*
G01X-971956Y1949602D01*
G01X-973887Y1950110D01*
G01X-975868Y1950415D01*
G37*
G36*
G01X-977900Y1696517D02*
G01X-979932Y1696415D01*
G01X-981913Y1696110D01*
G01X-983844Y1695602D01*
G01X-985672Y1694942D01*
G01X-987400Y1694078D01*
G01X-989025Y1693113D01*
G01X-990600Y1691945D01*
G01X-992022Y1690675D01*
G01X-993292Y1689252D01*
G01X-994410Y1687728D01*
G01X-995426Y1686052D01*
G01X-996290Y1684325D01*
G01X-996950Y1682496D01*
G01X-997458Y1680566D01*
G01X-997712Y1678584D01*
G01X-997864Y1676552D01*
G01X-994512D01*
G01X-994410Y1678229D01*
G01X-994156Y1679905D01*
G01X-993750Y1681480D01*
G01X-993191Y1683004D01*
G01X-992530Y1684477D01*
G01X-991667Y1685849D01*
G01X-990702Y1687119D01*
G01X-989635Y1688287D01*
G01X-988466Y1689354D01*
G01X-987196Y1690319D01*
G01X-985825Y1691183D01*
G01X-984352Y1691843D01*
G01X-982828Y1692402D01*
G01X-981253Y1692859D01*
G01X-979576Y1693062D01*
G01X-977900Y1693164D01*
G01X-976224Y1693062D01*
G01X-974547Y1692859D01*
G01X-972972Y1692402D01*
G01X-971448Y1691843D01*
G01X-969975Y1691183D01*
G01X-968604Y1690319D01*
G01X-967334Y1689354D01*
G01X-966165Y1688287D01*
G01X-965098Y1687119D01*
G01X-964133Y1685849D01*
G01X-963270Y1684477D01*
G01X-962609Y1683004D01*
G01X-962050Y1681480D01*
G01X-961644Y1679905D01*
G01X-961390Y1678229D01*
G01X-961288Y1676552D01*
G01X-961390Y1674876D01*
G01X-961644Y1673200D01*
G01X-962050Y1671625D01*
G01X-962609Y1670101D01*
G01X-963270Y1668628D01*
G01X-964133Y1667256D01*
G01X-965098Y1665986D01*
G01X-966165Y1664818D01*
G01X-967334Y1663751D01*
G01X-968604Y1662786D01*
G01X-969975Y1661973D01*
G01X-971448Y1661262D01*
G01X-972972Y1660703D01*
G01X-974547Y1660296D01*
G01X-976224Y1660042D01*
G01X-977900Y1659941D01*
G01X-979576Y1660042D01*
G01X-981253Y1660296D01*
G01X-982828Y1660703D01*
G01X-984352Y1661262D01*
G01X-985825Y1661973D01*
G01X-987196Y1662786D01*
G01X-988466Y1663751D01*
G01X-989635Y1664818D01*
G01X-990702Y1665986D01*
G01X-991667Y1667256D01*
G01X-992530Y1668628D01*
G01X-993191Y1670101D01*
G01X-993750Y1671625D01*
G01X-994156Y1673200D01*
G01X-994410Y1674876D01*
G01X-994512Y1676552D01*
G01X-997864D01*
G01X-997712Y1674520D01*
G01X-997458Y1672539D01*
G01X-996950Y1670609D01*
G01X-996290Y1668780D01*
G01X-995426Y1667053D01*
G01X-994410Y1665427D01*
G01X-993292Y1663852D01*
G01X-992022Y1662481D01*
G01X-990600Y1661160D01*
G01X-989025Y1660042D01*
G01X-987400Y1659026D01*
G01X-985672Y1658163D01*
G01X-983844Y1657502D01*
G01X-981913Y1657045D01*
G01X-979932Y1656740D01*
G01X-977900Y1656639D01*
G01X-975868Y1656740D01*
G01X-973887Y1657045D01*
G01X-971956Y1657502D01*
G01X-970128Y1658163D01*
G01X-968400Y1659026D01*
G01X-966775Y1660042D01*
G01X-965200Y1661160D01*
G01X-963778Y1662481D01*
G01X-962508Y1663852D01*
G01X-961390Y1665427D01*
G01X-960374Y1667053D01*
G01X-959510Y1668780D01*
G01X-958850Y1670609D01*
G01X-958342Y1672539D01*
G01X-958088Y1674520D01*
G01X-957936Y1676552D01*
G01X-958088Y1678584D01*
G01X-958342Y1680566D01*
G01X-958850Y1682496D01*
G01X-959510Y1684325D01*
G01X-960374Y1686052D01*
G01X-961390Y1687728D01*
G01X-962508Y1689252D01*
G01X-963778Y1690675D01*
G01X-965200Y1691945D01*
G01X-966775Y1693113D01*
G01X-968400Y1694078D01*
G01X-970128Y1694942D01*
G01X-971956Y1695602D01*
G01X-973887Y1696110D01*
G01X-975868Y1696415D01*
G37*
G36*
G01X-977900Y1442517D02*
G01X-979932Y1442415D01*
G01X-981913Y1442110D01*
G01X-983844Y1441602D01*
G01X-985672Y1440942D01*
G01X-987400Y1440078D01*
G01X-989025Y1439113D01*
G01X-990600Y1437945D01*
G01X-992022Y1436675D01*
G01X-993292Y1435252D01*
G01X-994410Y1433728D01*
G01X-995426Y1432052D01*
G01X-996290Y1430325D01*
G01X-996950Y1428496D01*
G01X-997458Y1426566D01*
G01X-997712Y1424584D01*
G01X-997864Y1422552D01*
G01X-994512D01*
G01X-994410Y1424229D01*
G01X-994156Y1425905D01*
G01X-993750Y1427480D01*
G01X-993191Y1429004D01*
G01X-992530Y1430477D01*
G01X-991667Y1431849D01*
G01X-990702Y1433119D01*
G01X-989635Y1434287D01*
G01X-988466Y1435354D01*
G01X-987196Y1436319D01*
G01X-985825Y1437183D01*
G01X-984352Y1437843D01*
G01X-982828Y1438402D01*
G01X-981253Y1438859D01*
G01X-979576Y1439062D01*
G01X-977900Y1439164D01*
G01X-976224Y1439062D01*
G01X-974547Y1438859D01*
G01X-972972Y1438402D01*
G01X-971448Y1437843D01*
G01X-969975Y1437183D01*
G01X-968604Y1436319D01*
G01X-967334Y1435354D01*
G01X-966165Y1434287D01*
G01X-965098Y1433119D01*
G01X-964133Y1431849D01*
G01X-963270Y1430477D01*
G01X-962609Y1429004D01*
G01X-962050Y1427480D01*
G01X-961644Y1425905D01*
G01X-961390Y1424229D01*
G01X-961288Y1422552D01*
G01X-961390Y1420876D01*
G01X-961644Y1419200D01*
G01X-962050Y1417625D01*
G01X-962609Y1416101D01*
G01X-963270Y1414628D01*
G01X-964133Y1413256D01*
G01X-965098Y1411986D01*
G01X-966165Y1410818D01*
G01X-967334Y1409751D01*
G01X-968604Y1408786D01*
G01X-969975Y1407973D01*
G01X-971448Y1407262D01*
G01X-972972Y1406703D01*
G01X-974547Y1406296D01*
G01X-976224Y1406042D01*
G01X-977900Y1405941D01*
G01X-979576Y1406042D01*
G01X-981253Y1406296D01*
G01X-982828Y1406703D01*
G01X-984352Y1407262D01*
G01X-985825Y1407973D01*
G01X-987196Y1408786D01*
G01X-988466Y1409751D01*
G01X-989635Y1410818D01*
G01X-990702Y1411986D01*
G01X-991667Y1413256D01*
G01X-992530Y1414628D01*
G01X-993191Y1416101D01*
G01X-993750Y1417625D01*
G01X-994156Y1419200D01*
G01X-994410Y1420876D01*
G01X-994512Y1422552D01*
G01X-997864D01*
G01X-997712Y1420520D01*
G01X-997458Y1418539D01*
G01X-996950Y1416609D01*
G01X-996290Y1414780D01*
G01X-995426Y1413053D01*
G01X-994410Y1411427D01*
G01X-993292Y1409852D01*
G01X-992022Y1408481D01*
G01X-990600Y1407160D01*
G01X-989025Y1406042D01*
G01X-987400Y1405026D01*
G01X-985672Y1404163D01*
G01X-983844Y1403502D01*
G01X-981913Y1403045D01*
G01X-979932Y1402740D01*
G01X-977900Y1402639D01*
G01X-975868Y1402740D01*
G01X-973887Y1403045D01*
G01X-971956Y1403502D01*
G01X-970128Y1404163D01*
G01X-968400Y1405026D01*
G01X-966775Y1406042D01*
G01X-965200Y1407160D01*
G01X-963778Y1408481D01*
G01X-962508Y1409852D01*
G01X-961390Y1411427D01*
G01X-960374Y1413053D01*
G01X-959510Y1414780D01*
G01X-958850Y1416609D01*
G01X-958342Y1418539D01*
G01X-958088Y1420520D01*
G01X-957936Y1422552D01*
G01X-958088Y1424584D01*
G01X-958342Y1426566D01*
G01X-958850Y1428496D01*
G01X-959510Y1430325D01*
G01X-960374Y1432052D01*
G01X-961390Y1433728D01*
G01X-962508Y1435252D01*
G01X-963778Y1436675D01*
G01X-965200Y1437945D01*
G01X-966775Y1439113D01*
G01X-968400Y1440078D01*
G01X-970128Y1440942D01*
G01X-971956Y1441602D01*
G01X-973887Y1442110D01*
G01X-975868Y1442415D01*
G37*
G36*
G01X-977900Y1188517D02*
G01X-979932Y1188415D01*
G01X-981913Y1188110D01*
G01X-983844Y1187602D01*
G01X-985672Y1186942D01*
G01X-987400Y1186078D01*
G01X-989025Y1185113D01*
G01X-990600Y1183945D01*
G01X-992022Y1182675D01*
G01X-993292Y1181252D01*
G01X-994410Y1179728D01*
G01X-995426Y1178052D01*
G01X-996290Y1176325D01*
G01X-996950Y1174496D01*
G01X-997458Y1172566D01*
G01X-997712Y1170584D01*
G01X-997864Y1168552D01*
G01X-994512D01*
G01X-994410Y1170229D01*
G01X-994156Y1171905D01*
G01X-993750Y1173480D01*
G01X-993191Y1175004D01*
G01X-992530Y1176477D01*
G01X-991667Y1177849D01*
G01X-990702Y1179119D01*
G01X-989635Y1180287D01*
G01X-988466Y1181354D01*
G01X-987196Y1182319D01*
G01X-985825Y1183183D01*
G01X-984352Y1183843D01*
G01X-982828Y1184402D01*
G01X-981253Y1184859D01*
G01X-979576Y1185062D01*
G01X-977900Y1185164D01*
G01X-976224Y1185062D01*
G01X-974547Y1184859D01*
G01X-972972Y1184402D01*
G01X-971448Y1183843D01*
G01X-969975Y1183183D01*
G01X-968604Y1182319D01*
G01X-967334Y1181354D01*
G01X-966165Y1180287D01*
G01X-965098Y1179119D01*
G01X-964133Y1177849D01*
G01X-963270Y1176477D01*
G01X-962609Y1175004D01*
G01X-962050Y1173480D01*
G01X-961644Y1171905D01*
G01X-961390Y1170229D01*
G01X-961288Y1168552D01*
G01X-961390Y1166876D01*
G01X-961644Y1165200D01*
G01X-962050Y1163625D01*
G01X-962609Y1162101D01*
G01X-963270Y1160628D01*
G01X-964133Y1159256D01*
G01X-965098Y1157986D01*
G01X-966165Y1156818D01*
G01X-967334Y1155751D01*
G01X-968604Y1154786D01*
G01X-969975Y1153973D01*
G01X-971448Y1153262D01*
G01X-972972Y1152703D01*
G01X-974547Y1152296D01*
G01X-976224Y1152042D01*
G01X-977900Y1151941D01*
G01X-979576Y1152042D01*
G01X-981253Y1152296D01*
G01X-982828Y1152703D01*
G01X-984352Y1153262D01*
G01X-985825Y1153973D01*
G01X-987196Y1154786D01*
G01X-988466Y1155751D01*
G01X-989635Y1156818D01*
G01X-990702Y1157986D01*
G01X-991667Y1159256D01*
G01X-992530Y1160628D01*
G01X-993191Y1162101D01*
G01X-993750Y1163625D01*
G01X-994156Y1165200D01*
G01X-994410Y1166876D01*
G01X-994512Y1168552D01*
G01X-997864D01*
G01X-997712Y1166520D01*
G01X-997458Y1164539D01*
G01X-996950Y1162609D01*
G01X-996290Y1160780D01*
G01X-995426Y1159053D01*
G01X-994410Y1157427D01*
G01X-993292Y1155852D01*
G01X-992022Y1154481D01*
G01X-990600Y1153160D01*
G01X-989025Y1152042D01*
G01X-987400Y1151026D01*
G01X-985672Y1150163D01*
G01X-983844Y1149502D01*
G01X-981913Y1149045D01*
G01X-979932Y1148740D01*
G01X-977900Y1148639D01*
G01X-975868Y1148740D01*
G01X-973887Y1149045D01*
G01X-971956Y1149502D01*
G01X-970128Y1150163D01*
G01X-968400Y1151026D01*
G01X-966775Y1152042D01*
G01X-965200Y1153160D01*
G01X-963778Y1154481D01*
G01X-962508Y1155852D01*
G01X-961390Y1157427D01*
G01X-960374Y1159053D01*
G01X-959510Y1160780D01*
G01X-958850Y1162609D01*
G01X-958342Y1164539D01*
G01X-958088Y1166520D01*
G01X-957936Y1168552D01*
G01X-958088Y1170584D01*
G01X-958342Y1172566D01*
G01X-958850Y1174496D01*
G01X-959510Y1176325D01*
G01X-960374Y1178052D01*
G01X-961390Y1179728D01*
G01X-962508Y1181252D01*
G01X-963778Y1182675D01*
G01X-965200Y1183945D01*
G01X-966775Y1185113D01*
G01X-968400Y1186078D01*
G01X-970128Y1186942D01*
G01X-971956Y1187602D01*
G01X-973887Y1188110D01*
G01X-975868Y1188415D01*
G37*
G36*
G01X-977900Y4757064D02*
G01X-979932Y4756912D01*
G01X-981913Y4756658D01*
G01X-983844Y4756150D01*
G01X-985672Y4755490D01*
G01X-987400Y4754626D01*
G01X-989025Y4753610D01*
G01X-990600Y4752492D01*
G01X-992022Y4751222D01*
G01X-993292Y4749800D01*
G01X-994410Y4748225D01*
G01X-995426Y4746600D01*
G01X-996290Y4744872D01*
G01X-996950Y4743044D01*
G01X-997458Y4741113D01*
G01X-997712Y4739132D01*
G01X-997864Y4737100D01*
G01X-994512D01*
G01X-994410Y4738776D01*
G01X-994156Y4740453D01*
G01X-993750Y4742028D01*
G01X-993191Y4743552D01*
G01X-992530Y4745025D01*
G01X-991667Y4746396D01*
G01X-990702Y4747666D01*
G01X-989635Y4748835D01*
G01X-988466Y4749902D01*
G01X-987196Y4750867D01*
G01X-985825Y4751730D01*
G01X-984352Y4752391D01*
G01X-982828Y4752950D01*
G01X-981253Y4753356D01*
G01X-979576Y4753610D01*
G01X-977900Y4753712D01*
G01X-976224Y4753610D01*
G01X-974547Y4753356D01*
G01X-972972Y4752950D01*
G01X-971448Y4752391D01*
G01X-969975Y4751730D01*
G01X-968604Y4750867D01*
G01X-967334Y4749902D01*
G01X-966165Y4748835D01*
G01X-965098Y4747666D01*
G01X-964133Y4746396D01*
G01X-963270Y4745025D01*
G01X-962609Y4743552D01*
G01X-962050Y4742028D01*
G01X-961644Y4740453D01*
G01X-961390Y4738776D01*
G01X-961288Y4737100D01*
G01X-961390Y4735424D01*
G01X-961644Y4733747D01*
G01X-962050Y4732172D01*
G01X-962609Y4730648D01*
G01X-963270Y4729175D01*
G01X-964133Y4727804D01*
G01X-965098Y4726534D01*
G01X-966165Y4725365D01*
G01X-967334Y4724298D01*
G01X-968604Y4723333D01*
G01X-969975Y4722470D01*
G01X-971448Y4721809D01*
G01X-972972Y4721250D01*
G01X-974547Y4720844D01*
G01X-976224Y4720590D01*
G01X-977900Y4720488D01*
G01X-979576Y4720590D01*
G01X-981253Y4720844D01*
G01X-982828Y4721250D01*
G01X-984352Y4721809D01*
G01X-985825Y4722470D01*
G01X-987196Y4723333D01*
G01X-988466Y4724298D01*
G01X-989635Y4725365D01*
G01X-990702Y4726534D01*
G01X-991667Y4727804D01*
G01X-992530Y4729175D01*
G01X-993191Y4730648D01*
G01X-993750Y4732172D01*
G01X-994156Y4733747D01*
G01X-994410Y4735424D01*
G01X-994512Y4737100D01*
G01X-997864D01*
G01X-997712Y4735068D01*
G01X-997458Y4733087D01*
G01X-996950Y4731156D01*
G01X-996290Y4729328D01*
G01X-995426Y4727600D01*
G01X-994410Y4725975D01*
G01X-993292Y4724400D01*
G01X-992022Y4722978D01*
G01X-990600Y4721708D01*
G01X-989025Y4720590D01*
G01X-987400Y4719574D01*
G01X-985672Y4718710D01*
G01X-983844Y4718050D01*
G01X-981913Y4717542D01*
G01X-979932Y4717288D01*
G01X-977900Y4717136D01*
G01X-975868Y4717288D01*
G01X-973887Y4717542D01*
G01X-971956Y4718050D01*
G01X-970128Y4718710D01*
G01X-968400Y4719574D01*
G01X-966775Y4720590D01*
G01X-965200Y4721708D01*
G01X-963778Y4722978D01*
G01X-962508Y4724400D01*
G01X-961390Y4725975D01*
G01X-960374Y4727600D01*
G01X-959510Y4729328D01*
G01X-958850Y4731156D01*
G01X-958342Y4733087D01*
G01X-958088Y4735068D01*
G01X-957936Y4737100D01*
G01X-958088Y4739132D01*
G01X-958342Y4741113D01*
G01X-958850Y4743044D01*
G01X-959510Y4744872D01*
G01X-960374Y4746600D01*
G01X-961390Y4748225D01*
G01X-962508Y4749800D01*
G01X-963778Y4751222D01*
G01X-965200Y4752492D01*
G01X-966775Y4753610D01*
G01X-968400Y4754626D01*
G01X-970128Y4755490D01*
G01X-971956Y4756150D01*
G01X-973887Y4756658D01*
G01X-975868Y4756912D01*
G37*
G04 Image End*
G54D10*

M02*
